<?xml version="1.0" encoding="utf-8"?>
<!-- Generator: Adobe Illustrator 23.0.1, SVG Export Plug-In . SVG Version: 6.00 Build 0)  -->
<svg version="1.1" xmlns="http://www.w3.org/2000/svg" xmlns:xlink="http://www.w3.org/1999/xlink" x="0px" y="0px"
	 viewBox="0 0 48.2 48.2" style="enable-background:new 0 0 48.2 48.2;" xml:space="preserve">
<style type="text/css">
	.st0{fill:#73C598;}
</style>
<g id="Warstwa_1">
	<rect x="9.1" y="19.2" transform="matrix(0.8839 0.4677 -0.4677 0.8839 11.2418 -5.1078)" width="13.6" height="1.8"/>
	<rect x="8.7" y="36.2" transform="matrix(0.8839 0.4677 -0.4677 0.8839 19.1426 -2.9332)" width="13.6" height="1.8"/>
	<rect x="24.9" y="19.2" transform="matrix(-0.866 0.5 -0.5 -0.866 69.2667 21.6119)" width="13.6" height="1.8"/>
	<rect x="18.4" y="31.6" transform="matrix(-1.836970e-16 1 -1 -1.836970e-16 56.3458 8.5893)" width="11" height="1.8"/>
	<rect x="25.5" y="36.4" transform="matrix(-0.866 0.5 -0.5 -0.866 78.3888 53.6453)" width="13" height="1.8"/>
	<rect x="9.1" y="10.2" transform="matrix(-0.8958 0.4444 -0.4444 -0.8958 35.1034 14.0282)" width="13.6" height="1.8"/>
</g>
<g id="Warstwa_2">
	<path d="M23.9,3.7c-2,0-3.6,1.6-3.6,3.6c0,2,1.6,3.6,3.6,3.6c2,0,3.6-1.6,3.6-3.6C27.5,5.3,25.9,3.7,23.9,3.7z M23.9,9.3
		c-1.1,0-2-0.9-2-2c0-1.1,0.9-2,2-2c1.1,0,2,0.9,2,2C25.8,8.4,25,9.3,23.9,9.3z"/>
	<path d="M7.6,11.7c-2,0-3.6,1.6-3.6,3.6c0,2,1.6,3.6,3.6,3.6c2,0,3.6-1.6,3.6-3.6C11.2,13.3,9.6,11.7,7.6,11.7z M7.6,17.3
		c-1.1,0-2-0.9-2-2c0-1.1,0.9-2,2-2c1.1,0,2,0.9,2,2C9.6,16.4,8.7,17.3,7.6,17.3z"/>
	<path class="st0" d="M23.9,20.6c-2,0-3.6,1.6-3.6,3.6c0,2,1.6,3.6,3.6,3.6c2,0,3.6-1.6,3.6-3.6C27.5,22.3,25.9,20.6,23.9,20.6z
		 M23.9,26.2c-1.1,0-2-0.9-2-2c0-1.1,0.9-2,2-2c1.1,0,2,0.9,2,2C25.8,25.3,25,26.2,23.9,26.2z"/>
	<path d="M23.9,37.5c-2,0-3.6,1.6-3.6,3.6c0,2,1.6,3.6,3.6,3.6c2,0,3.6-1.6,3.6-3.6C27.5,39.1,25.9,37.5,23.9,37.5z M23.9,43.1
		c-1.1,0-2-0.9-2-2c0-1.1,0.9-2,2-2c1.1,0,2,0.9,2,2C25.8,42.2,25,43.1,23.9,43.1z"/>
	<path class="st0" d="M40,29.8c-2,0-3.6,1.6-3.6,3.6c0,2,1.6,3.6,3.6,3.6c2,0,3.6-1.6,3.6-3.6C43.7,31.4,42.1,29.8,40,29.8z
		 M40,35.4c-1.1,0-2-0.9-2-2c0-1.1,0.9-2,2-2c1.1,0,2,0.9,2,2C42,34.5,41.1,35.4,40,35.4z"/>
	<path class="st0" d="M7.6,29.6c-2,0-3.6,1.6-3.6,3.6c0,2,1.6,3.6,3.6,3.6c2,0,3.6-1.6,3.6-3.6C11.2,31.3,9.6,29.6,7.6,29.6z
		 M7.6,35.3c-1.1,0-2-0.9-2-2c0-1.1,0.9-2,2-2c1.1,0,2,0.9,2,2C9.6,34.4,8.7,35.3,7.6,35.3z"/>
	<path d="M40,11.7c-2,0-3.6,1.6-3.6,3.6c0,2,1.6,3.6,3.6,3.6c2,0,3.6-1.6,3.6-3.6C43.7,13.3,42.1,11.7,40,11.7z M40,17.3
		c-1.1,0-2-0.9-2-2c0-1.1,0.9-2,2-2c1.1,0,2,0.9,2,2C42,16.4,41.1,17.3,40,17.3z"/>
</g>
</svg>
