<?xml version="1.0" standalone="no"?>
<!DOCTYPE svg PUBLIC "-//W3C//DTD SVG 20010904//EN"
 "http://www.w3.org/TR/2001/REC-SVG-20010904/DTD/svg10.dtd">
<svg version="1.0" xmlns="http://www.w3.org/2000/svg"
 width="700.000000pt" height="700.000000pt" viewBox="0 0 700.000000 700.000000"
 preserveAspectRatio="xMidYMid meet">
<metadata>
Created by potrace 1.11, written by Peter Selinger 2001-2013
</metadata>
<g transform="translate(0.000000,700.000000) scale(0.100000,-0.100000)"
fill="#000000" stroke="none">
<path d="M3457 6464 c-1 -1 -29 -5 -62 -9 -119 -13 -258 -93 -332 -190 -80
-104 -111 -198 -111 -333 l0 -87 -104 -52 c-56 -28 -383 -191 -726 -360 l-623
-309 -46 42 c-320 294 -850 73 -869 -361 -19 -440 468 -705 827 -448 40 28 48
31 65 19 10 -7 91 -50 179 -96 88 -46 165 -86 170 -90 6 -4 82 -44 170 -90 88
-46 165 -86 170 -90 6 -4 73 -40 150 -80 77 -40 167 -87 200 -105 33 -18 110
-58 170 -90 132 -69 259 -137 264 -141 2 -2 4 -45 3 -96 0 -51 6 -117 14 -145
43 -164 172 -303 337 -363 26 -9 29 -16 29 -75 0 -1141 -3 -1385 -16 -1385
-35 0 -158 -75 -214 -130 l-60 -60 -43 23 c-24 13 -98 52 -164 87 -66 34 -158
83 -205 108 -47 25 -119 63 -160 85 -365 193 -543 287 -675 357 -55 30 -116
62 -135 71 l-35 17 -1 79 c-1 94 -7 127 -39 204 -58 145 -174 252 -327 304
-97 32 -241 30 -333 -5 -297 -114 -426 -442 -286 -726 67 -134 202 -242 346
-274 72 -17 202 -14 260 5 83 27 154 67 215 123 l59 53 171 -91 c94 -50 198
-105 233 -124 34 -18 125 -66 202 -106 77 -40 154 -80 170 -90 17 -10 78 -43
137 -74 59 -31 153 -81 210 -111 57 -30 149 -78 205 -107 l103 -53 0 -70 c0
-214 128 -397 335 -480 87 -35 225 -43 319 -19 221 58 388 269 388 491 1 31
16 42 248 171 25 14 73 43 108 64 34 21 64 38 67 38 4 0 88 49 155 90 8 5 38
21 65 36 28 14 57 32 66 40 8 8 18 14 21 14 3 0 152 85 330 188 l325 188 56
-57 c153 -159 389 -206 587 -117 141 64 251 190 291 332 24 88 23 242 -2 317
-82 248 -337 390 -609 339 -227 -42 -411 -264 -412 -498 l-1 -67 -675 -390
c-372 -214 -681 -391 -687 -393 -7 -2 -24 15 -39 37 -51 73 -157 147 -256 180
l-36 11 0 719 0 719 52 16 c115 36 236 144 292 260 40 82 53 145 53 242 l0 82
372 215 c205 118 388 223 407 234 20 11 92 53 160 93 69 40 143 83 165 95 22
13 107 62 189 109 l148 87 44 -36 c53 -44 173 -100 234 -110 271 -46 530 114
601 372 23 80 25 215 5 288 -43 160 -156 282 -321 345 -70 26 -220 36 -300 18
-188 -41 -341 -187 -390 -375 -21 -77 -21 -229 -1 -262 4 -5 -63 -49 -146 -98
-84 -48 -160 -92 -170 -98 -9 -5 -29 -17 -45 -26 -15 -8 -162 -93 -326 -187
-164 -95 -314 -182 -335 -194 -20 -11 -77 -44 -127 -73 -49 -29 -110 -65 -135
-79 -25 -15 -68 -38 -97 -53 l-52 -27 -33 35 c-191 200 -518 207 -726 15 l-44
-40 -30 17 c-16 9 -95 51 -176 93 -81 42 -160 84 -177 94 -31 18 -124 68 -310
165 -60 32 -141 75 -180 95 -170 91 -227 121 -330 175 -143 75 -259 137 -262
139 -2 1 3 31 11 67 7 35 11 99 10 142 l-4 78 723 359 722 359 22 -23 c207
-220 547 -225 757 -10 199 204 197 532 -5 733 -56 56 -140 108 -209 129 -34
11 -167 31 -173 26z m116 -254 c62 -23 127 -82 159 -144 16 -31 22 -60 22
-116 1 -64 -3 -84 -29 -134 -112 -221 -403 -220 -516 1 -45 89 -27 230 39 308
79 94 210 128 325 85z m-2350 -1168 c96 -43 171 -158 169 -259 -2 -123 -64
-219 -173 -268 -56 -25 -70 -27 -136 -22 -315 24 -368 452 -70 559 62 22 147
18 210 -10z m4682 7 c71 -26 128 -77 163 -143 37 -71 38 -179 3 -250 -28 -56
-78 -108 -136 -139 -59 -32 -192 -31 -255 2 -95 50 -155 145 -159 248 -7 204
195 353 384 282z m-2308 -1305 c105 -51 171 -163 160 -272 -19 -184 -182 -307
-357 -267 -71 16 -146 75 -185 146 -26 47 -30 64 -29 134 0 86 16 130 70 194
79 94 224 122 341 65z m-2352 -1329 c132 -77 182 -228 120 -363 -79 -173 -261
-228 -421 -127 -182 116 -166 397 28 496 83 42 196 40 273 -6z m4677 2 c53
-22 122 -90 149 -145 32 -67 33 -179 1 -244 -50 -102 -143 -161 -258 -165 -83
-3 -149 23 -207 81 -62 62 -81 110 -82 201 0 106 29 168 113 239 60 52 201 68
284 33z m-2313 -1132 c96 -53 145 -135 145 -245 0 -92 -26 -153 -94 -220 -59
-57 -119 -80 -202 -76 -249 12 -366 311 -192 490 31 31 72 56 134 80 8 3 47 4
86 2 54 -2 82 -9 123 -31z"/>
</g>
</svg>
