<?xml version="1.0" encoding="utf-8"?>
<!-- Generator: Adobe Illustrator 23.0.1, SVG Export Plug-In . SVG Version: 6.00 Build 0)  -->
<svg version="1.1" xmlns="http://www.w3.org/2000/svg" xmlns:xlink="http://www.w3.org/1999/xlink" x="0px" y="0px"
	 viewBox="0 0 652 580.7" style="enable-background:new 0 0 652 580.7;" xml:space="preserve">
<style type="text/css">
	.st0{display:none;}
	.st1{fill:#332B3B;}
	.st2{fill:url(#kolko_5_);}
	.st3{fill:none;stroke:url(#SVGID_1_);stroke-miterlimit:10;}
	.st4{fill:none;stroke:url(#SVGID_2_);stroke-miterlimit:10;}
	.st5{fill:#5CD89F;}
	.st6{fill:url(#kolko_6_);}
	.st7{fill:none;stroke:url(#SVGID_3_);stroke-miterlimit:10;}
	.st8{fill:none;stroke:url(#SVGID_4_);stroke-miterlimit:10;}
	.st9{fill:none;stroke:url(#SVGID_5_);stroke-miterlimit:10;}
	.st10{fill:none;stroke:url(#SVGID_6_);stroke-miterlimit:10;}
	.st11{fill:url(#kolko_7_);}
	.st12{fill:none;stroke:url(#SVGID_7_);stroke-miterlimit:10;}
	.st13{fill:none;stroke:url(#SVGID_8_);stroke-miterlimit:10;}
	.st14{fill:url(#kolko_8_);}
	.st15{fill:none;stroke:url(#SVGID_9_);stroke-miterlimit:10;}
	.st16{fill:none;stroke:url(#SVGID_10_);stroke-miterlimit:10;}
	.st17{fill:none;stroke:url(#SVGID_11_);stroke-miterlimit:10;}
	.st18{fill:none;stroke:url(#SVGID_12_);stroke-miterlimit:10;}
	.st19{fill:#2B2933;}
	.st20{fill:#1E1C24;}
	.st21{fill:#2C2935;}
	.st22{fill:#302533;}
	.st23{fill:#FFAEAA;}
	.st24{fill:#D7D9DA;}
	.st25{fill:#E8EAEA;}
	.st26{fill:#558DFD;}
	.st27{fill:#FFFFFF;}
	.st28{fill:#3A95F6;}
	.st29{fill:#3CD387;}
	.st30{fill:#2ADB7E;}
</style>
<g id="Warstwa_1" class="st0">
	
		<image style="display:inline;overflow:visible;" width="535" height="510" xlink:href="C:\Users\micha\Desktop\w2.0 use idea 3.JPG"  transform="matrix(1.298 0 0 1.298 37 -54)">
	</image>
</g>
<g id="Warstwa_5">
	<g id="Warstwa_3_1_">
		<g id="zasieg_2_">
			<polyline class="st1" points="644.5,148.2 642.7,154.8 618.2,148.4 625.5,143.2 			"/>
			<polyline class="st1" points="641.2,161 639.4,167.7 602.7,158.1 610,152.9 			"/>
			<polyline class="st1" points="638.1,173.3 636.3,179.9 585.6,166.8 592.9,161.7 			"/>
			<polyline class="st1" points="634.9,186.1 633,192.8 570.7,176.7 577.9,171.5 			"/>
			<polyline class="st1" points="631.9,197.8 630.1,204.5 555.5,185.6 562.8,180.4 			"/>
			<polyline class="st1" points="647.9,134.7 646.2,141.3 634.5,138.4 642.3,133.2 			"/>
		</g>
		
			<linearGradient id="kolko_5_" gradientUnits="userSpaceOnUse" x1="527" y1="280.4827" x2="645.9655" y2="280.4827" gradientTransform="matrix(1 0 0 -1 0 390)">
			<stop  offset="0" style="stop-color:#5CD89F"/>
			<stop  offset="1" style="stop-color:#2ADB7E"/>
		</linearGradient>
		<circle id="kolko_2_" class="st2" cx="586.5" cy="109.5" r="59.5"/>
		<g id="strzalki_1_">
			
				<linearGradient id="SVGID_1_" gradientUnits="userSpaceOnUse" x1="-54.3536" y1="65.4655" x2="-43.7929" y2="65.4655" gradientTransform="matrix(1 0 0 -1 164 390)">
				<stop  offset="0" style="stop-color:#5CD89F"/>
				<stop  offset="1" style="stop-color:#2ADB7E"/>
			</linearGradient>
			<polyline class="st3" points="110,334 119.5,324.5 110,315 			"/>
			
				<linearGradient id="SVGID_2_" gradientUnits="userSpaceOnUse" x1="-44.3536" y1="65.4655" x2="-33.7929" y2="65.4655" gradientTransform="matrix(1 0 0 -1 164 390)">
				<stop  offset="0" style="stop-color:#5CD89F"/>
				<stop  offset="1" style="stop-color:#2ADB7E"/>
			</linearGradient>
			<polyline class="st4" points="120,334 129.5,324.5 120,315 			"/>
		</g>
		<g transform="translate(0.000000,1280.000000) scale(0.100000,-0.100000)">
			<path class="st5" d="M1045.1,12228.4c-10.5-3.5-20-14.1-22.2-24.8c-4.3-20.6,16.3-41.3,37-37c15.5,3.2,27.5,19,26,34
				c-1.1,10.5-9,21.3-19,26.2C1060.7,12229.7,1051.3,12230.4,1045.1,12228.4z"/>
			<path class="st5" d="M1173.3,12228.4c-15.1-5-25.3-21.6-22.2-36.3c2.5-11.9,13.6-23,25.4-25.5c19.4-4.1,39.6,14.2,37.6,34
				c-1.1,10.5-9,21.3-19,26.2C1188.9,12229.7,1179.5,12230.4,1173.3,12228.4z"/>
			<path class="st5" d="M1301.5,12228.4c-10.5-3.5-20-14.1-22.2-24.8c-4.3-20.6,16.3-41.3,37-37c15.5,3.2,27.5,19,26,34
				c-1.1,10.5-9,21.3-19,26.2C1317.2,12229.7,1307.7,12230.4,1301.5,12228.4z"/>
			<path class="st5" d="M1429.7,12228.4c-10.5-3.5-20-14.1-22.2-24.8c-4.3-20.6,16.3-41.3,37-37c15.5,3.2,27.5,19,26,34
				c-1.1,10.5-9,21.3-19,26.2C1445.4,12229.7,1436,12230.4,1429.7,12228.4z"/>
			<path class="st5" d="M1558,12228.4c-10.5-3.5-20-14.1-22.2-24.8c-4.3-20.6,16.3-41.3,37-37c15.5,3.2,27.5,19,26,34
				c-1.1,10.5-9,21.3-19,26.2C1573.6,12229.7,1564.2,12230.4,1558,12228.4z"/>
			<path class="st5" d="M1686.2,12228.4c-10.5-3.5-20-14.1-22.2-24.8c-4.3-20.6,16.3-41.3,37-37c15.5,3.2,27.5,19,26,34
				c-1.1,10.5-9,21.3-19,26.2C1701.8,12229.7,1692.4,12230.4,1686.2,12228.4z"/>
			<path class="st5" d="M1814.4,12228.4c-10.5-3.5-20-14.1-22.2-24.8c-4.3-20.6,16.3-41.3,37-37c15.5,3.2,27.5,19,26,34
				c-1.1,10.5-9,21.3-19,26.2C1830.1,12229.7,1820.6,12230.4,1814.4,12228.4z"/>
			<path class="st5" d="M1942.7,12228.4c-10.5-3.5-20-14.1-22.2-24.8c-4.3-20.6,16.3-41.3,37-37c15.5,3.2,27.5,19,26,34
				c-1.1,10.5-9,21.3-19,26.2C1958.3,12229.7,1948.9,12230.4,1942.7,12228.4z"/>
			<path class="st5" d="M2070.9,12228.4c-10.5-3.5-20-14.1-22.2-24.8c-2.5-11.7,3.2-24.4,14.2-32c10.7-7.4,22.9-7.5,33.8-0.3
				c17.7,11.8,20.1,33.9,5.3,48.6C2093.4,12228.5,2081.2,12231.8,2070.9,12228.4z"/>
			<path class="st5" d="M2199.1,12228.4c-10.5-3.5-20-14.1-22.2-24.8c-2.5-11.7,3.2-24.4,14.2-32c10.7-7.4,22.9-7.5,33.8-0.3
				c17.7,11.8,20.1,33.9,5.3,48.6C2221.6,12228.5,2209.4,12231.8,2199.1,12228.4z"/>
			<path class="st5" d="M1045.1,12100.1c-10.5-3.5-20-14.1-22.2-24.8c-4.3-20.6,16.3-41.3,37-37c15.5,3.2,27.5,19,26,34
				c-1.1,10.5-9,21.3-19,26.2C1060.7,12101.4,1051.3,12102.1,1045.1,12100.1z"/>
			<path class="st5" d="M1173.3,12100.1c-15.1-5-25.3-21.6-22.2-36.3c2.5-11.9,13.6-23,25.4-25.5c19.4-4.1,39.6,14.2,37.6,34
				c-1.1,10.5-9,21.3-19,26.2C1188.9,12101.4,1179.5,12102.1,1173.3,12100.1z"/>
			<path class="st5" d="M1301.5,12100.1c-10.5-3.5-20-14.1-22.2-24.8c-4.3-20.6,16.3-41.3,37-37c15.5,3.2,27.5,19,26,34
				c-1.1,10.5-9,21.3-19,26.2C1317.2,12101.4,1307.7,12102.1,1301.5,12100.1z"/>
			<path class="st5" d="M1429.7,12100.1c-10.5-3.5-20-14.1-22.2-24.8c-4.3-20.6,16.3-41.3,37-37c15.5,3.2,27.5,19,26,34
				c-1.1,10.5-9,21.3-19,26.2C1445.4,12101.4,1436,12102.1,1429.7,12100.1z"/>
			<path class="st5" d="M1558,12100.1c-10.5-3.5-20-14.1-22.2-24.8c-4.3-20.6,16.3-41.3,37-37c15.5,3.2,27.5,19,26,34
				c-1.1,10.5-9,21.3-19,26.2C1573.6,12101.4,1564.2,12102.1,1558,12100.1z"/>
			<path class="st5" d="M1686.2,12100.1c-10.5-3.5-20-14.1-22.2-24.8c-4.3-20.6,16.3-41.3,37-37c15.5,3.2,27.5,19,26,34
				c-1.1,10.5-9,21.3-19,26.2C1701.8,12101.4,1692.4,12102.1,1686.2,12100.1z"/>
			<path class="st5" d="M1814.4,12100.1c-10.5-3.5-20-14.1-22.2-24.8c-4.3-20.6,16.3-41.3,37-37c15.5,3.2,27.5,19,26,34
				c-1.1,10.5-9,21.3-19,26.2C1830.1,12101.4,1820.6,12102.1,1814.4,12100.1z"/>
			<path class="st5" d="M1942.7,12100.1c-10.5-3.5-20-14.1-22.2-24.8c-4.3-20.6,16.3-41.3,37-37c15.5,3.2,27.5,19,26,34
				c-1.1,10.5-9,21.3-19,26.2C1958.3,12101.4,1948.9,12102.1,1942.7,12100.1z"/>
			<path class="st5" d="M2070.9,12100.1c-10.5-3.5-20-14.1-22.2-24.8c-2.5-11.7,3.2-24.4,14.2-32c10.7-7.4,22.9-7.5,33.8-0.3
				c17.7,11.8,20.1,33.9,5.3,48.6C2093.4,12100.2,2081.2,12103.5,2070.9,12100.1z"/>
			<path class="st5" d="M2199.1,12100.1c-10.5-3.5-20-14.1-22.2-24.8c-2.5-11.7,3.2-24.4,14.2-32c10.7-7.4,22.9-7.5,33.8-0.3
				c17.7,11.8,20.1,33.9,5.3,48.6C2221.6,12100.2,2209.4,12103.5,2199.1,12100.1z"/>
			<path class="st5" d="M1045.1,11971.9c-10.5-3.5-20-14.1-22.2-24.8c-4.3-20.6,16.3-41.3,37-37c15.5,3.2,27.5,19,26,34
				c-1.1,10.5-9,21.3-19,26.2C1060.7,11973.2,1051.3,11973.9,1045.1,11971.9z"/>
			<path class="st5" d="M1173.3,11971.9c-10.5-3.5-20-14.1-22.2-24.8c-4.3-20.6,16.3-41.3,37-37c15.5,3.2,27.5,19,26,34
				c-1.1,10.5-9,21.3-19,26.2C1188.9,11973.2,1179.5,11973.9,1173.3,11971.9z"/>
			<path class="st5" d="M1301.5,11971.9c-10.5-3.5-20-14.1-22.2-24.8c-4.3-20.6,16.3-41.3,37-37c15.5,3.2,27.5,19,26,34
				c-1.1,10.5-9,21.3-19,26.2C1317.2,11973.2,1307.7,11973.9,1301.5,11971.9z"/>
			<path class="st5" d="M1429.7,11971.9c-10.5-3.5-20-14.1-22.2-24.8c-4.3-20.6,16.3-41.3,37-37c15.5,3.2,27.5,19,26,34
				c-1.1,10.5-9,21.3-19,26.2C1445.4,11973.2,1436,11973.9,1429.7,11971.9z"/>
			<path class="st5" d="M1558,11971.9c-10.5-3.5-20-14.1-22.2-24.8c-4.3-20.6,16.3-41.3,37-37c15.5,3.2,27.5,19,26,34
				c-1.1,10.5-9,21.3-19,26.2C1573.6,11973.2,1564.2,11973.9,1558,11971.9z"/>
			<path class="st5" d="M1686.2,11971.9c-10.5-3.5-20-14.1-22.2-24.8c-4.3-20.6,16.3-41.3,37-37c15.5,3.2,27.5,19,26,34
				c-1.1,10.5-9,21.3-19,26.2C1701.8,11973.2,1692.4,11973.9,1686.2,11971.9z"/>
			<path class="st5" d="M1814.4,11971.9c-10.5-3.5-20-14.1-22.2-24.8c-4.3-20.6,16.3-41.3,37-37c15.5,3.2,27.5,19,26,34
				c-1.1,10.5-9,21.3-19,26.2C1830.1,11973.2,1820.6,11973.9,1814.4,11971.9z"/>
			<path class="st5" d="M1942.7,11971.9c-10.5-3.5-20-14.1-22.2-24.8c-4.3-20.6,16.3-41.3,37-37c15.5,3.2,27.5,19,26,34
				c-1.1,10.5-9,21.3-19,26.2C1958.3,11973.2,1948.9,11973.9,1942.7,11971.9z"/>
			<path class="st5" d="M2070.9,11971.9c-10.5-3.5-20-14.1-22.2-24.8c-4.3-20.6,16.3-41.3,37-37c15.5,3.2,27.5,19,26,34
				c-1.1,10.5-9,21.3-19,26.2C2086.5,11973.2,2077.1,11973.9,2070.9,11971.9z"/>
			<path class="st5" d="M2199.1,11971.9c-10.5-3.5-20-14.1-22.2-24.8c-4.3-20.6,16.3-41.3,37-37c15.5,3.2,27.5,19,26,34
				c-1.1,10.5-9,21.3-19,26.2C2214.7,11973.2,2205.3,11973.9,2199.1,11971.9z"/>
			<path class="st5" d="M1045.1,11843.7c-10.5-3.5-20-14.1-22.2-24.8c-4.3-20.6,16.3-41.3,37-37c15.5,3.2,27.5,19,26,34
				c-1.1,10.5-9,21.3-19,26.2C1060.7,11845,1051.3,11845.7,1045.1,11843.7z"/>
			<path class="st5" d="M1173.3,11843.7c-10.5-3.5-20-14.1-22.2-24.8c-4.3-20.6,16.3-41.3,37-37c15.5,3.2,27.5,19,26,34
				c-1.1,10.5-9,21.3-19,26.2C1188.9,11845,1179.5,11845.7,1173.3,11843.7z"/>
			<path class="st5" d="M1301.5,11843.7c-10.5-3.5-20-14.1-22.2-24.8c-4.3-20.6,16.3-41.3,37-37c15.5,3.2,27.5,19,26,34
				c-1.1,10.5-9,21.3-19,26.2C1317.2,11845,1307.7,11845.7,1301.5,11843.7z"/>
			<path class="st5" d="M1429.7,11843.7c-10.5-3.5-20-14.1-22.2-24.8c-4.3-20.6,16.3-41.3,37-37c15.5,3.2,27.5,19,26,34
				c-1.1,10.5-9,21.3-19,26.2C1445.4,11845,1436,11845.7,1429.7,11843.7z"/>
			<path class="st5" d="M1558,11843.7c-10.5-3.5-20-14.1-22.2-24.8c-4.3-20.6,16.3-41.3,37-37c15.5,3.2,27.5,19,26,34
				c-1.1,10.5-9,21.3-19,26.2C1573.6,11845,1564.2,11845.7,1558,11843.7z"/>
			<path class="st5" d="M1686.2,11843.7c-10.5-3.5-20-14.1-22.2-24.8c-4.3-20.6,16.3-41.3,37-37c15.5,3.2,27.5,19,26,34
				c-1.1,10.5-9,21.3-19,26.2C1701.8,11845,1692.4,11845.7,1686.2,11843.7z"/>
			<path class="st5" d="M1814.4,11843.7c-10.5-3.5-20-14.1-22.2-24.8c-4.3-20.6,16.3-41.3,37-37c15.5,3.2,27.5,19,26,34
				c-1.1,10.5-9,21.3-19,26.2C1830.1,11845,1820.6,11845.7,1814.4,11843.7z"/>
			<path class="st5" d="M1942.7,11843.7c-10.5-3.5-20-14.1-22.2-24.8c-4.3-20.6,16.3-41.3,37-37c15.5,3.2,27.5,19,26,34
				c-1.1,10.5-9,21.3-19,26.2C1958.3,11845,1948.9,11845.7,1942.7,11843.7z"/>
			<path class="st5" d="M2070.9,11843.7c-10.5-3.5-20-14.1-22.2-24.8c-4.3-20.6,16.3-41.3,37-37c15.5,3.2,27.5,19,26,34
				c-1.1,10.5-9,21.3-19,26.2C2086.5,11845,2077.1,11845.7,2070.9,11843.7z"/>
			<path class="st5" d="M2199.1,11843.7c-10.5-3.5-20-14.1-22.2-24.8c-4.3-20.6,16.3-41.3,37-37c15.5,3.2,27.5,19,26,34
				c-1.1,10.5-9,21.3-19,26.2C2214.7,11845,2205.3,11845.7,2199.1,11843.7z"/>
			<path class="st5" d="M1045.1,11715.4c-10.5-3.5-20-14.1-22.2-24.8c-4.3-20.6,16.3-41.3,37-37c15.5,3.2,27.5,19,26,34
				c-1.1,10.5-9,21.3-19,26.2C1060.7,11716.8,1051.3,11717.5,1045.1,11715.4z"/>
			<path class="st5" d="M1173.3,11715.4c-10.5-3.5-20-14.1-22.2-24.8c-4.3-20.6,16.3-41.3,37-37c15.5,3.2,27.5,19,26,34
				c-1.1,10.5-9,21.3-19,26.2C1188.9,11716.8,1179.5,11717.5,1173.3,11715.4z"/>
			<path class="st5" d="M1301.5,11715.4c-10.5-3.5-20-14.1-22.2-24.8c-4.3-20.6,16.3-41.3,37-37c15.5,3.2,27.5,19,26,34
				c-1.1,10.5-9,21.3-19,26.2C1317.2,11716.8,1307.7,11717.5,1301.5,11715.4z"/>
			<path class="st5" d="M1429.7,11715.4c-10.5-3.5-20-14.1-22.2-24.8c-4.3-20.6,16.3-41.3,37-37c15.5,3.2,27.5,19,26,34
				c-1.1,10.5-9,21.3-19,26.2C1445.4,11716.8,1436,11717.5,1429.7,11715.4z"/>
			<path class="st5" d="M1558,11715.4c-10.5-3.5-20-14.1-22.2-24.8c-4.3-20.6,16.3-41.3,37-37c15.5,3.2,27.5,19,26,34
				c-1.1,10.5-9,21.3-19,26.2C1573.6,11716.8,1564.2,11717.5,1558,11715.4z"/>
			<path class="st5" d="M1686.2,11715.4c-10.5-3.5-20-14.1-22.2-24.8c-4.3-20.6,16.3-41.3,37-37c15.5,3.2,27.5,19,26,34
				c-1.1,10.5-9,21.3-19,26.2C1701.8,11716.8,1692.4,11717.5,1686.2,11715.4z"/>
			<path class="st5" d="M1814.4,11715.4c-10.5-3.5-20-14.1-22.2-24.8c-4.3-20.6,16.3-41.3,37-37c15.5,3.2,27.5,19,26,34
				c-1.1,10.5-9,21.3-19,26.2C1830.1,11716.8,1820.6,11717.5,1814.4,11715.4z"/>
			<path class="st5" d="M1942.7,11715.4c-10.5-3.5-20-14.1-22.2-24.8c-4.3-20.6,16.3-41.3,37-37c15.5,3.2,27.5,19,26,34
				c-1.1,10.5-9,21.3-19,26.2C1958.3,11716.8,1948.9,11717.5,1942.7,11715.4z"/>
			<path class="st5" d="M2070.9,11715.4c-10.5-3.5-20-14.1-22.2-24.8c-4.3-20.6,16.3-41.3,37-37c15.5,3.2,27.5,19,26,34
				c-1.1,10.5-9,21.3-19,26.2C2086.5,11716.8,2077.1,11717.5,2070.9,11715.4z"/>
			<path class="st5" d="M2199.1,11715.4c-10.5-3.5-20-14.1-22.2-24.8c-4.3-20.6,16.3-41.3,37-37c15.5,3.2,27.5,19,26,34
				c-1.1,10.5-9,21.3-19,26.2C2214.7,11716.8,2205.3,11717.5,2199.1,11715.4z"/>
			<path class="st5" d="M1045.1,11587.2c-10.5-3.5-20-14.1-22.2-24.8c-4.3-20.6,16.3-41.3,37-37c15.5,3.2,27.5,19,26,34
				c-1.1,10.5-9,21.3-19,26.2C1060.7,11588.5,1051.3,11589.2,1045.1,11587.2z"/>
			<path class="st5" d="M1173.3,11587.2c-10.5-3.5-20-14.1-22.2-24.8c-4.3-20.6,16.3-41.3,37-37c15.5,3.2,27.5,19,26,34
				c-1.1,10.5-9,21.3-19,26.2C1188.9,11588.5,1179.5,11589.2,1173.3,11587.2z"/>
			<path class="st5" d="M1301.5,11587.2c-10.5-3.5-20-14.1-22.2-24.8c-4.3-20.6,16.3-41.3,37-37c15.5,3.2,27.5,19,26,34
				c-1.1,10.5-9,21.3-19,26.2C1317.2,11588.5,1307.7,11589.2,1301.5,11587.2z"/>
			<path class="st5" d="M1429.7,11587.2c-10.5-3.5-20-14.1-22.2-24.8c-4.3-20.6,16.3-41.3,37-37c15.5,3.2,27.5,19,26,34
				c-1.1,10.5-9,21.3-19,26.2C1445.4,11588.5,1436,11589.2,1429.7,11587.2z"/>
			<path class="st5" d="M1558,11587.2c-10.5-3.5-20-14.1-22.2-24.8c-4.3-20.6,16.3-41.3,37-37c15.5,3.2,27.5,19,26,34
				c-1.1,10.5-9,21.3-19,26.2C1573.6,11588.5,1564.2,11589.2,1558,11587.2z"/>
			<path class="st5" d="M1686.2,11587.2c-10.5-3.5-20-14.1-22.2-24.8c-4.3-20.6,16.3-41.3,37-37c15.5,3.2,27.5,19,26,34
				c-1.1,10.5-9,21.3-19,26.2C1701.8,11588.5,1692.4,11589.2,1686.2,11587.2z"/>
			<path class="st5" d="M1814.4,11587.2c-10.5-3.5-20-14.1-22.2-24.8c-4.3-20.6,16.3-41.3,37-37c15.5,3.2,27.5,19,26,34
				c-1.1,10.5-9,21.3-19,26.2C1830.1,11588.5,1820.6,11589.2,1814.4,11587.2z"/>
			<path class="st5" d="M1942.7,11587.2c-10.5-3.5-20-14.1-22.2-24.8c-4.3-20.6,16.3-41.3,37-37c15.5,3.2,27.5,19,26,34
				c-1.1,10.5-9,21.3-19,26.2C1958.3,11588.5,1948.9,11589.2,1942.7,11587.2z"/>
			<path class="st5" d="M2070.9,11587.2c-10.5-3.5-20-14.1-22.2-24.8c-4.3-20.6,16.3-41.3,37-37c15.5,3.2,27.5,19,26,34
				c-1.1,10.5-9,21.3-19,26.2C2086.5,11588.5,2077.1,11589.2,2070.9,11587.2z"/>
			<path class="st5" d="M2199.1,11587.2c-10.5-3.5-20-14.1-22.2-24.8c-4.3-20.6,16.3-41.3,37-37c15.5,3.2,27.5,19,26,34
				c-1.1,10.5-9,21.3-19,26.2C2214.7,11588.5,2205.3,11589.2,2199.1,11587.2z"/>
			<path class="st5" d="M1045.1,11459c-10.5-3.5-20-14.1-22.2-24.8c-4.3-20.6,16.3-41.3,37-37c15.5,3.2,27.5,19,26,34
				c-1.1,10.5-9,21.3-19,26.2C1060.7,11460.3,1051.3,11461,1045.1,11459z"/>
			<path class="st5" d="M1173.3,11459c-10.5-3.5-20-14.1-22.2-24.8c-4.3-20.6,16.3-41.3,37-37c15.5,3.2,27.5,19,26,34
				c-1.1,10.5-9,21.3-19,26.2C1188.9,11460.3,1179.5,11461,1173.3,11459z"/>
			<path class="st5" d="M1301.5,11459c-10.5-3.5-20-14.1-22.2-24.8c-2.5-11.7,3.2-24.4,14.2-32c10.7-7.4,22.9-7.5,33.8-0.3
				c17.7,11.8,20.1,33.9,5.3,48.6C1324.1,11459.1,1311.8,11462.4,1301.5,11459z"/>
			<path class="st5" d="M1429.7,11459c-10.5-3.5-20-14.1-22.2-24.8c-2.5-11.7,3.2-24.4,14.2-32c10.7-7.4,22.9-7.5,33.8-0.3
				c17.7,11.8,20.1,33.9,5.3,48.6C1452.3,11459.1,1440.1,11462.4,1429.7,11459z"/>
			<path class="st5" d="M1558,11459c-15.1-5-25.3-21.6-22.2-36.3c2.5-11.9,13.6-23,25.5-25.5c19.3-4.1,39.5,14.2,37.5,34
				c-1.1,10.5-9,21.3-19,26.2C1573.6,11460.3,1564.2,11461,1558,11459z"/>
			<path class="st5" d="M1686.2,11459c-15.1-5-25.3-21.6-22.2-36.3c2.5-11.9,13.6-23,25.5-25.5c19.3-4.1,39.5,14.2,37.5,34
				c-1.1,10.5-9,21.3-19,26.2C1701.8,11460.3,1692.4,11461,1686.2,11459z"/>
			<path class="st5" d="M1814.4,11459c-15.1-5-25.3-21.6-22.2-36.3c2.5-11.9,13.6-23,25.5-25.5c19.3-4.1,39.5,14.2,37.5,34
				c-1.1,10.5-9,21.3-19,26.2C1830.1,11460.3,1820.6,11461,1814.4,11459z"/>
			<path class="st5" d="M1942.7,11459c-15.1-5-25.3-21.6-22.2-36.3c2.5-11.9,13.6-23,25.5-25.5c19.3-4.1,39.5,14.2,37.5,34
				c-1.1,10.5-9,21.3-19,26.2C1958.3,11460.3,1948.9,11461,1942.7,11459z"/>
			<path class="st5" d="M2070.9,11459c-10.5-3.5-20-14.1-22.2-24.8c-4.3-20.6,16.3-41.3,37-37c15.5,3.2,27.5,19,26,34
				c-1.1,10.5-9,21.3-19,26.2C2086.5,11460.3,2077.1,11461,2070.9,11459z"/>
			<path class="st5" d="M2199.1,11459c-10.5-3.5-20-14.1-22.2-24.8c-4.3-20.6,16.3-41.3,37-37c15.5,3.2,27.5,19,26,34
				c-1.1,10.5-9,21.3-19,26.2C2214.7,11460.3,2205.3,11461,2199.1,11459z"/>
			<path class="st5" d="M1045.1,11330.8c-10.5-3.5-20-14.1-22.2-24.8c-4.3-20.6,16.3-41.3,37-37c15.5,3.2,27.5,19,26,34
				c-1.1,10.5-9,21.3-19,26.2C1060.7,11332.1,1051.3,11332.8,1045.1,11330.8z"/>
			<path class="st5" d="M1173.3,11330.8c-10.5-3.5-20-14.1-22.2-24.8c-4.3-20.6,16.3-41.3,37-37c15.5,3.2,27.5,19,26,34
				c-1.1,10.5-9,21.3-19,26.2C1188.9,11332.1,1179.5,11332.8,1173.3,11330.8z"/>
			<path class="st5" d="M1301.5,11330.8c-10.5-3.5-20-14.1-22.2-24.8c-2.5-11.7,3.2-24.4,14.2-32c10.7-7.4,22.9-7.5,33.8-0.3
				c17.7,11.8,20.1,33.9,5.3,48.6C1324.1,11330.9,1311.8,11334.2,1301.5,11330.8z"/>
			<path class="st5" d="M1429.7,11330.8c-10.5-3.5-20-14.1-22.2-24.8c-2.5-11.7,3.2-24.4,14.2-32c10.7-7.4,22.9-7.5,33.8-0.3
				c17.7,11.8,20.1,33.9,5.3,48.6C1452.3,11330.9,1440.1,11334.2,1429.7,11330.8z"/>
			<path class="st5" d="M1558,11330.8c-15.1-5-25.3-21.6-22.2-36.3c2.5-11.9,13.6-23,25.5-25.5c19.3-4.1,39.5,14.2,37.5,34
				c-1.1,10.5-9,21.3-19,26.2C1573.6,11332.1,1564.2,11332.8,1558,11330.8z"/>
			<path class="st5" d="M1686.2,11330.8c-15.1-5-25.3-21.6-22.2-36.3c2.5-11.9,13.6-23,25.5-25.5c19.3-4.1,39.5,14.2,37.5,34
				c-1.1,10.5-9,21.3-19,26.2C1701.8,11332.1,1692.4,11332.8,1686.2,11330.8z"/>
			<path class="st5" d="M1814.4,11330.8c-15.1-5-25.3-21.6-22.2-36.3c2.5-11.9,13.6-23,25.5-25.5c19.3-4.1,39.5,14.2,37.5,34
				c-1.1,10.5-9,21.3-19,26.2C1830.1,11332.1,1820.6,11332.8,1814.4,11330.8z"/>
			<path class="st5" d="M1942.7,11330.8c-15.1-5-25.3-21.6-22.2-36.3c2.5-11.9,13.6-23,25.5-25.5c19.3-4.1,39.5,14.2,37.5,34
				c-1.1,10.5-9,21.3-19,26.2C1958.3,11332.1,1948.9,11332.8,1942.7,11330.8z"/>
			<path class="st5" d="M2070.9,11330.8c-10.5-3.5-20-14.1-22.2-24.8c-4.3-20.6,16.3-41.3,37-37c15.5,3.2,27.5,19,26,34
				c-1.1,10.5-9,21.3-19,26.2C2086.5,11332.1,2077.1,11332.8,2070.9,11330.8z"/>
			<path class="st5" d="M2199.1,11330.8c-10.5-3.5-20-14.1-22.2-24.8c-4.3-20.6,16.3-41.3,37-37c15.5,3.2,27.5,19,26,34
				c-1.1,10.5-9,21.3-19,26.2C2214.7,11332.1,2205.3,11332.8,2199.1,11330.8z"/>
			<path class="st5" d="M1045.1,11202.5c-10.5-3.5-20-14.1-22.2-24.8c-4.3-20.6,16.3-41.3,37-37c15.5,3.2,27.5,19,26,34
				c-1.1,10.5-9,21.3-19,26.2C1060.7,11203.8,1051.3,11204.6,1045.1,11202.5z"/>
			<path class="st5" d="M1173.3,11202.5c-10.5-3.5-20-14.1-22.2-24.8c-4.3-20.6,16.3-41.3,37-37c15.5,3.2,27.5,19,26,34
				c-1.1,10.5-9,21.3-19,26.2C1188.9,11203.8,1179.5,11204.6,1173.3,11202.5z"/>
			<path class="st5" d="M1301.5,11202.5c-10.5-3.5-20-14.1-22.2-24.8c-2.5-11.7,3.2-24.4,14.2-32c10.7-7.4,22.9-7.5,33.8-0.3
				c17.7,11.8,20.1,33.9,5.3,48.6C1324.1,11202.6,1311.8,11206,1301.5,11202.5z"/>
			<path class="st5" d="M1429.7,11202.5c-10.5-3.5-20-14.1-22.2-24.8c-2.5-11.7,3.2-24.4,14.2-32c10.7-7.4,22.9-7.5,33.8-0.3
				c17.7,11.8,20.1,33.9,5.3,48.6C1452.3,11202.6,1440.1,11206,1429.7,11202.5z"/>
			<path class="st5" d="M1558,11202.5c-10.5-3.5-20-14.1-22.2-24.8c-4.3-20.6,16.3-41.3,37-37c15.5,3.2,27.5,19,26,34
				c-1.1,10.5-9,21.3-19,26.2C1573.6,11203.8,1564.2,11204.6,1558,11202.5z"/>
			<path class="st5" d="M1686.2,11202.5c-10.5-3.5-20-14.1-22.2-24.8c-4.3-20.6,16.3-41.3,37-37c15.5,3.2,27.5,19,26,34
				c-1.1,10.5-9,21.3-19,26.2C1701.8,11203.8,1692.4,11204.6,1686.2,11202.5z"/>
			<path class="st5" d="M1814.4,11202.5c-10.5-3.5-20-14.1-22.2-24.8c-4.3-20.6,16.3-41.3,37-37c15.5,3.2,27.5,19,26,34
				c-1.1,10.5-9,21.3-19,26.2C1830.1,11203.8,1820.6,11204.6,1814.4,11202.5z"/>
			<path class="st5" d="M1942.7,11202.5c-10.5-3.5-20-14.1-22.2-24.8c-4.3-20.6,16.3-41.3,37-37c15.5,3.2,27.5,19,26,34
				c-1.1,10.5-9,21.3-19,26.2C1958.3,11203.8,1948.9,11204.6,1942.7,11202.5z"/>
			<path class="st5" d="M2070.9,11202.5c-10.5-3.5-20-14.1-22.2-24.8c-4.3-20.6,16.3-41.3,37-37c15.5,3.2,27.5,19,26,34
				c-1.1,10.5-9,21.3-19,26.2C2086.5,11203.8,2077.1,11204.6,2070.9,11202.5z"/>
			<path class="st5" d="M2199.1,11202.5c-10.5-3.5-20-14.1-22.2-24.8c-4.3-20.6,16.3-41.3,37-37c15.5,3.2,27.5,19,26,34
				c-1.1,10.5-9,21.3-19,26.2C2214.7,11203.8,2205.3,11204.6,2199.1,11202.5z"/>
			<path class="st5" d="M1045.1,11074.3c-10.5-3.5-20-14.1-22.2-24.8c-4.3-20.6,16.3-41.3,37-37c15.5,3.2,27.5,19,26,34
				c-1.1,10.5-9,21.3-19,26.2C1060.7,11075.6,1051.3,11076.3,1045.1,11074.3z"/>
			<path class="st5" d="M1173.3,11074.3c-10.5-3.5-20-14.1-22.2-24.8c-4.3-20.6,16.3-41.3,37-37c15.5,3.2,27.5,19,26,34
				c-1.1,10.5-9,21.3-19,26.2C1188.9,11075.6,1179.5,11076.3,1173.3,11074.3z"/>
			<path class="st5" d="M1301.5,11074.3c-10.5-3.5-20-14.1-22.2-24.8c-4.3-20.6,16.3-41.3,37-37c15.5,3.2,27.5,19,26,34
				c-1.1,10.5-9,21.3-19,26.2C1317.2,11075.6,1307.7,11076.3,1301.5,11074.3z"/>
			<path class="st5" d="M1429.7,11074.3c-10.5-3.5-20-14.1-22.2-24.8c-4.3-20.6,16.3-41.3,37-37c15.5,3.2,27.5,19,26,34
				c-1.1,10.5-9,21.3-19,26.2C1445.4,11075.6,1436,11076.3,1429.7,11074.3z"/>
			<path class="st5" d="M1558,11074.3c-10.5-3.5-20-14.1-22.2-24.8c-4.3-20.6,16.3-41.3,37-37c15.5,3.2,27.5,19,26,34
				c-1.1,10.5-9,21.3-19,26.2C1573.6,11075.6,1564.2,11076.3,1558,11074.3z"/>
			<path class="st5" d="M1686.2,11074.3c-10.5-3.5-20-14.1-22.2-24.8c-4.3-20.6,16.3-41.3,37-37c15.5,3.2,27.5,19,26,34
				c-1.1,10.5-9,21.3-19,26.2C1701.8,11075.6,1692.4,11076.3,1686.2,11074.3z"/>
			<path class="st5" d="M1814.4,11074.3c-10.5-3.5-20-14.1-22.2-24.8c-4.3-20.6,16.3-41.3,37-37c15.5,3.2,27.5,19,26,34
				c-1.1,10.5-9,21.3-19,26.2C1830.1,11075.6,1820.6,11076.3,1814.4,11074.3z"/>
			<path class="st5" d="M1942.7,11074.3c-10.5-3.5-20-14.1-22.2-24.8c-4.3-20.6,16.3-41.3,37-37c15.5,3.2,27.5,19,26,34
				c-1.1,10.5-9,21.3-19,26.2C1958.3,11075.6,1948.9,11076.3,1942.7,11074.3z"/>
			<path class="st5" d="M2070.9,11074.3c-10.5-3.5-20-14.1-22.2-24.8c-4.3-20.6,16.3-41.3,37-37c15.5,3.2,27.5,19,26,34
				c-1.1,10.5-9,21.3-19,26.2C2086.5,11075.6,2077.1,11076.3,2070.9,11074.3z"/>
			<path class="st5" d="M2199.1,11074.3c-10.5-3.5-20-14.1-22.2-24.8c-4.3-20.6,16.3-41.3,37-37c15.5,3.2,27.5,19,26,34
				c-1.1,10.5-9,21.3-19,26.2C2214.7,11075.6,2205.3,11076.3,2199.1,11074.3z"/>
		</g>
		<g transform="translate(0.000000,1280.000000) scale(0.100000,-0.100000)">
			<path class="st5" d="M2768.2,8755.4c-4.2-10.2-2.4-24.3,4.2-33c12.8-16.7,41.9-14.7,52.2,3.8c7.7,13.8,3.6,33.2-8.7,41.9
				c-8.7,6-22,7.1-32.2,2.8C2777.4,8768,2770.8,8761.4,2768.2,8755.4z"/>
			<path class="st5" d="M2852.1,8852.3c-6.1-14.7-0.2-33.3,12.9-40.5c10.6-5.9,26.3-4.8,35.9,2.5c15.8,12,15.2,39.2-1.1,50.7
				c-8.7,6-22,7.1-32.2,2.8C2861.4,8864.9,2854.7,8858.3,2852.1,8852.3z"/>
			<path class="st5" d="M2936,8949.2c-4.2-10.2-2.4-24.3,4.2-33c12.8-16.7,41.9-14.7,52.2,3.8c7.7,13.8,3.6,33.2-8.7,41.9
				c-8.7,6-22,7.1-32.2,2.8C2945.3,8961.9,2938.6,8955.2,2936,8949.2z"/>
			<path class="st5" d="M3020,9046.1c-4.2-10.2-2.4-24.3,4.2-33c12.8-16.7,41.9-14.7,52.2,3.8c7.7,13.8,3.6,33.2-8.7,41.9
				c-8.7,6-22,7.1-32.2,2.8C3029.2,9058.9,3022.6,9052.2,3020,9046.1z"/>
			<path class="st5" d="M3103.9,9143.1c-4.2-10.2-2.4-24.3,4.2-33c12.8-16.7,41.9-14.7,52.2,3.8c7.7,13.8,3.6,33.2-8.7,41.9
				c-8.7,6-22,7.1-32.2,2.8C3113.2,9155.8,3106.5,9149.1,3103.9,9143.1z"/>
			<path class="st5" d="M3187.8,9240.1c-4.2-10.2-2.4-24.3,4.2-33c12.8-16.7,41.9-14.7,52.2,3.8c7.7,13.8,3.6,33.2-8.7,41.9
				c-8.7,6-22,7.1-32.2,2.8C3197.1,9252.7,3190.4,9246.1,3187.8,9240.1z"/>
			<path class="st5" d="M3271.8,9337c-4.2-10.2-2.4-24.3,4.2-33c12.8-16.7,41.9-14.7,52.2,3.8c7.7,13.8,3.6,33.2-8.7,41.9
				c-8.7,6-22,7.1-32.2,2.8C3281,9349.7,3274.3,9343,3271.8,9337z"/>
			<path class="st5" d="M3355.7,9434c-4.2-10.2-2.4-24.3,4.2-33c12.8-16.7,41.9-14.7,52.2,3.8c7.7,13.8,3.6,33.2-8.7,41.9
				c-8.7,6-22,7.1-32.2,2.8C3365,9446.6,3358.3,9440,3355.7,9434z"/>
			<path class="st5" d="M3439.6,9530.9c-4.2-10.2-2.4-24.3,4.2-33c7.2-9.5,20.5-13.6,33.5-10.2c12.6,3.2,20.7,12.4,22.3,25.4
				c2.7,21.1-12.5,37.4-33.3,35.8C3454.3,9548,3443.8,9540.9,3439.6,9530.9z"/>
			<path class="st5" d="M3523.6,9627.8c-4.2-10.2-2.4-24.3,4.2-33c7.2-9.5,20.5-13.6,33.5-10.2c12.6,3.2,20.7,12.4,22.3,25.4
				c2.7,21.1-12.5,37.4-33.3,35.8C3538.2,9644.9,3527.7,9637.8,3523.6,9627.8z"/>
			<path class="st5" d="M2865.2,8671.4c-4.2-10.2-2.4-24.3,4.2-33c12.8-16.7,41.9-14.7,52.2,3.8c7.7,13.8,3.6,33.2-8.7,41.9
				c-8.7,6-22,7.1-32.2,2.8C2874.4,8684,2867.8,8677.4,2865.2,8671.4z"/>
			<path class="st5" d="M2949.1,8768.3c-6.1-14.7-0.2-33.3,12.9-40.5c10.6-5.9,26.3-4.8,35.9,2.5c15.8,12,15.2,39.2-1.1,50.7
				c-8.7,6-22,7.1-32.2,2.8C2958.4,8781,2951.7,8774.3,2949.1,8768.3z"/>
			<path class="st5" d="M3033,8865.2c-4.2-10.2-2.4-24.3,4.2-33c12.8-16.7,41.9-14.7,52.2,3.8c7.7,13.8,3.6,33.2-8.7,41.9
				c-8.7,6-22,7.1-32.2,2.8C3042.3,8878,3035.6,8871.2,3033,8865.2z"/>
			<path class="st5" d="M3117,8962.2c-4.2-10.2-2.4-24.3,4.2-33c12.8-16.7,41.9-14.7,52.2,3.8c7.7,13.8,3.6,33.2-8.7,41.9
				c-8.7,6-22,7.1-32.2,2.8C3126.2,8974.9,3119.6,8968.2,3117,8962.2z"/>
			<path class="st5" d="M3200.9,9059.2c-4.2-10.2-2.4-24.3,4.2-33c12.8-16.7,41.9-14.7,52.2,3.8c7.7,13.8,3.6,33.2-8.7,41.9
				c-8.7,6-22,7.1-32.2,2.8C3210.2,9071.8,3203.5,9065.2,3200.9,9059.2z"/>
			<path class="st5" d="M3284.8,9156.1c-4.2-10.2-2.4-24.3,4.2-33c12.8-16.7,41.9-14.7,52.2,3.8c7.7,13.8,3.6,33.2-8.7,41.9
				c-8.7,6-22,7.1-32.2,2.8C3294.1,9168.7,3287.4,9162.1,3284.8,9156.1z"/>
			<path class="st5" d="M3368.8,9253c-4.2-10.2-2.4-24.3,4.2-33c12.8-16.7,41.9-14.7,52.2,3.8c7.7,13.8,3.6,33.2-8.7,41.9
				c-8.7,6-22,7.1-32.2,2.8C3378,9265.7,3371.3,9259,3368.8,9253z"/>
			<path class="st5" d="M3452.7,9350c-4.2-10.2-2.4-24.3,4.2-33c12.8-16.7,41.9-14.7,52.2,3.8c7.7,13.8,3.6,33.2-8.7,41.9
				c-8.7,6-22,7.1-32.2,2.8C3462,9362.6,3455.3,9356,3452.7,9350z"/>
			<path class="st5" d="M3536.6,9446.9c-4.2-10.2-2.4-24.3,4.2-33c7.2-9.5,20.5-13.6,33.5-10.2c12.6,3.2,20.7,12.4,22.3,25.4
				c2.7,21.1-12.5,37.4-33.3,35.8C3551.3,9464,3540.8,9456.9,3536.6,9446.9z"/>
			<path class="st5" d="M3620.5,9543.8c-4.2-10.2-2.4-24.3,4.2-33c7.2-9.5,20.5-13.6,33.5-10.2c12.6,3.2,20.7,12.4,22.3,25.4
				c2.7,21.1-12.5,37.4-33.3,35.8C3635.2,9560.9,3624.7,9553.9,3620.5,9543.8z"/>
			<path class="st5" d="M2962.1,8587.5c-4.2-10.2-2.4-24.3,4.2-33c12.8-16.7,41.9-14.7,52.2,3.8c7.7,13.8,3.6,33.2-8.7,41.9
				c-8.7,6-22,7.1-32.2,2.8C2971.4,8600.1,2964.7,8593.5,2962.1,8587.5z"/>
			<path class="st5" d="M3046.1,8684.4c-4.2-10.2-2.4-24.3,4.2-33c12.8-16.7,41.9-14.7,52.2,3.8c7.7,13.8,3.6,33.2-8.7,41.9
				c-8.7,6-22,7.1-32.2,2.8C3055.3,8697,3048.6,8690.4,3046.1,8684.4z"/>
			<path class="st5" d="M3130,8781.3c-4.2-10.2-2.4-24.3,4.2-33c12.8-16.7,41.9-14.7,52.2,3.8c7.7,13.8,3.6,33.2-8.7,41.9
				c-8.7,6-22,7.1-32.2,2.8C3139.3,8794,3132.5,8787.3,3130,8781.3z"/>
			<path class="st5" d="M3213.9,8878.2c-4.2-10.2-2.4-24.3,4.2-33c12.8-16.7,41.9-14.7,52.2,3.8c7.7,13.8,3.6,33.2-8.7,41.9
				c-8.7,6-22,7.1-32.2,2.8C3223.2,8891,3216.5,8884.3,3213.9,8878.2z"/>
			<path class="st5" d="M3297.9,8975.2c-4.2-10.2-2.4-24.3,4.2-33c12.8-16.7,41.9-14.7,52.2,3.8c7.7,13.8,3.6,33.2-8.7,41.9
				c-8.7,6-22,7.1-32.2,2.8C3307.1,8987.9,3300.4,8981.2,3297.9,8975.2z"/>
			<path class="st5" d="M3381.8,9072.2c-4.2-10.2-2.4-24.3,4.2-33c12.8-16.7,41.9-14.7,52.2,3.8c7.7,13.8,3.6,33.2-8.7,41.9
				c-8.7,6-22,7.1-32.2,2.8C3391,9084.8,3384.3,9078.2,3381.8,9072.2z"/>
			<path class="st5" d="M3465.7,9169.1c-4.2-10.2-2.4-24.3,4.2-33c12.8-16.7,41.9-14.7,52.2,3.8c7.7,13.8,3.6,33.2-8.7,41.9
				c-8.7,6-22,7.1-32.2,2.8C3475,9181.8,3468.2,9175.1,3465.7,9169.1z"/>
			<path class="st5" d="M3549.7,9266.1c-4.2-10.2-2.4-24.3,4.2-33c12.8-16.7,41.9-14.7,52.2,3.8c7.7,13.8,3.6,33.2-8.7,41.9
				c-8.7,6-22,7.1-32.2,2.8C3558.9,9278.7,3552.2,9272.1,3549.7,9266.1z"/>
			<path class="st5" d="M3633.6,9363c-4.2-10.2-2.4-24.3,4.2-33c12.8-16.7,41.9-14.7,52.2,3.8c7.7,13.8,3.6,33.2-8.7,41.9
				c-8.7,6-22,7.1-32.2,2.8C3642.8,9375.7,3636.1,9369,3633.6,9363z"/>
			<path class="st5" d="M3717.5,9459.9c-4.2-10.2-2.4-24.3,4.2-33c12.8-16.7,41.9-14.7,52.2,3.8c7.7,13.8,3.6,33.2-8.7,41.9
				c-8.7,6-22,7.1-32.2,2.8C3726.7,9472.6,3720,9465.9,3717.5,9459.9z"/>
			<path class="st5" d="M3059.1,8503.6c-4.2-10.2-2.4-24.3,4.2-33c12.8-16.7,41.9-14.7,52.2,3.8c7.7,13.8,3.6,33.2-8.7,41.9
				c-8.7,6-22,7.1-32.2,2.8C3068.3,8516.2,3061.6,8509.6,3059.1,8503.6z"/>
			<path class="st5" d="M3143,8600.5c-4.2-10.2-2.4-24.3,4.2-33c12.8-16.7,41.9-14.7,52.2,3.8c7.7,13.8,3.6,33.2-8.7,41.9
				c-8.7,6-22,7.1-32.2,2.8C3152.2,8613.1,3145.5,8606.5,3143,8600.5z"/>
			<path class="st5" d="M3226.9,8697.4c-4.2-10.2-2.4-24.3,4.2-33c12.8-16.7,41.9-14.7,52.2,3.8c7.7,13.8,3.6,33.2-8.7,41.9
				c-8.7,6-22,7.1-32.2,2.8C3236.2,8710.1,3229.4,8703.4,3226.9,8697.4z"/>
			<path class="st5" d="M3310.8,8794.3c-4.2-10.2-2.4-24.3,4.2-33c12.8-16.7,41.9-14.7,52.2,3.8c7.7,13.8,3.6,33.2-8.7,41.9
				c-8.7,6-22,7.1-32.2,2.8C3320.1,8807.1,3313.4,8800.4,3310.8,8794.3z"/>
			<path class="st5" d="M3394.8,8891.3c-4.2-10.2-2.4-24.3,4.2-33c12.8-16.7,41.9-14.7,52.2,3.8c7.7,13.8,3.6,33.2-8.7,41.9
				c-8.7,6-22,7.1-32.2,2.8C3404,8904,3397.3,8897.3,3394.8,8891.3z"/>
			<path class="st5" d="M3478.7,8988.3c-4.2-10.2-2.4-24.3,4.2-33c12.8-16.7,41.9-14.7,52.2,3.8c7.7,13.8,3.6,33.2-8.7,41.9
				c-8.7,6-22,7.1-32.2,2.8C3487.9,9000.9,3481.2,8994.3,3478.7,8988.3z"/>
			<path class="st5" d="M3562.6,9085.2c-4.2-10.2-2.4-24.3,4.2-33c12.8-16.7,41.9-14.7,52.2,3.8c7.7,13.8,3.6,33.2-8.7,41.9
				c-8.7,6-22,7.1-32.2,2.8C3571.9,9097.9,3565.1,9091.2,3562.6,9085.2z"/>
			<path class="st5" d="M3646.6,9182.2c-4.2-10.2-2.4-24.3,4.2-33c12.8-16.7,41.9-14.7,52.2,3.8c7.7,13.8,3.6,33.2-8.7,41.9
				c-8.7,6-22,7.1-32.2,2.8C3655.8,9194.8,3649.1,9188.2,3646.6,9182.2z"/>
			<path class="st5" d="M3730.5,9279.1c-4.2-10.2-2.4-24.3,4.2-33c12.8-16.7,41.9-14.7,52.2,3.8c7.7,13.8,3.6,33.2-8.7,41.9
				c-8.7,6-22,7.1-32.2,2.8C3739.7,9291.7,3733,9285.1,3730.5,9279.1z"/>
			<path class="st5" d="M3814.4,9376c-4.2-10.2-2.4-24.3,4.2-33c12.8-16.7,41.9-14.7,52.2,3.8c7.7,13.8,3.6,33.2-8.7,41.9
				c-8.7,6-22,7.1-32.2,2.8C3823.6,9388.7,3816.9,9382,3814.4,9376z"/>
			<path class="st5" d="M3156.1,8419.6c-4.2-10.2-2.4-24.3,4.2-33c12.8-16.7,41.9-14.7,52.2,3.8c7.7,13.8,3.6,33.2-8.7,41.9
				c-8.7,6-22,7.1-32.2,2.8C3165.2,8432.3,3158.5,8425.6,3156.1,8419.6z"/>
			<path class="st5" d="M3240,8516.5c-4.2-10.2-2.4-24.3,4.2-33c12.8-16.7,41.9-14.7,52.2,3.8c7.7,13.8,3.6,33.2-8.7,41.9
				c-8.7,6-22,7.1-32.2,2.8C3249.1,8529.2,3242.4,8522.6,3240,8516.5z"/>
			<path class="st5" d="M3323.9,8613.4c-4.2-10.2-2.4-24.3,4.2-33c12.8-16.7,41.9-14.7,52.2,3.8c7.7,13.8,3.6,33.2-8.7,41.9
				c-8.7,6-22,7.1-32.2,2.8C3333.1,8626.2,3326.4,8619.5,3323.9,8613.4z"/>
			<path class="st5" d="M3407.8,8710.4c-4.2-10.2-2.4-24.3,4.2-33c12.8-16.7,41.9-14.7,52.2,3.8c7.7,13.8,3.6,33.2-8.7,41.9
				c-8.7,6-22,7.1-32.2,2.8C3417,8723.1,3410.3,8716.5,3407.8,8710.4z"/>
			<path class="st5" d="M3491.8,8807.4c-4.2-10.2-2.4-24.3,4.2-33c12.8-16.7,41.9-14.7,52.2,3.8c7.7,13.8,3.6,33.2-8.7,41.9
				c-8.7,6-22,7.1-32.2,2.8C3500.9,8820.1,3494.2,8813.4,3491.8,8807.4z"/>
			<path class="st5" d="M3575.7,8904.3c-4.2-10.2-2.4-24.3,4.2-33c12.8-16.7,41.9-14.7,52.2,3.8c7.7,13.8,3.6,33.2-8.7,41.9
				c-8.7,6-22,7.1-32.2,2.8C3584.8,8917,3578.2,8910.3,3575.7,8904.3z"/>
			<path class="st5" d="M3659.6,9001.2c-4.2-10.2-2.4-24.3,4.2-33c12.8-16.7,41.9-14.7,52.2,3.8c7.7,13.8,3.6,33.2-8.7,41.9
				c-8.7,6-22,7.1-32.2,2.8C3668.8,9014,3662.1,9007.3,3659.6,9001.2z"/>
			<path class="st5" d="M3743.6,9098.2c-4.2-10.2-2.4-24.3,4.2-33c12.8-16.7,41.9-14.7,52.2,3.8c7.7,13.8,3.6,33.2-8.7,41.9
				c-8.7,6-22,7.1-32.2,2.8C3752.7,9110.9,3746,9104.3,3743.6,9098.2z"/>
			<path class="st5" d="M3827.5,9195.1c-4.2-10.2-2.4-24.3,4.2-33c12.8-16.7,41.9-14.7,52.2,3.8c7.7,13.8,3.6,33.2-8.7,41.9
				c-8.7,6-22,7.1-32.2,2.8C3836.6,9207.8,3830,9201.2,3827.5,9195.1z"/>
			<path class="st5" d="M3911.4,9292.1c-4.2-10.2-2.4-24.3,4.2-33c12.8-16.7,41.9-14.7,52.2,3.8c7.7,13.8,3.6,33.2-8.7,41.9
				c-8.7,6-22,7.1-32.2,2.8C3920.5,9304.8,3913.9,9298.1,3911.4,9292.1z"/>
			<path class="st5" d="M3253,8335.7c-4.2-10.2-2.4-24.3,4.2-33c12.8-16.7,41.9-14.7,52.2,3.8c7.7,13.8,3.6,33.2-8.7,41.9
				c-8.7,6-22,7.1-32.2,2.8C3262.2,8348.3,3255.5,8341.7,3253,8335.7z"/>
			<path class="st5" d="M3336.9,8432.6c-4.2-10.2-2.4-24.3,4.2-33c12.8-16.7,41.9-14.7,52.2,3.8c7.7,13.8,3.6,33.2-8.7,41.9
				c-8.7,6-22,7.1-32.2,2.8C3346.1,8445.2,3339.4,8438.6,3336.9,8432.6z"/>
			<path class="st5" d="M3420.8,8529.5c-4.2-10.2-2.4-24.3,4.2-33c12.8-16.7,41.9-14.7,52.2,3.8c7.7,13.8,3.6,33.2-8.7,41.9
				c-8.7,6-22,7.1-32.2,2.8C3430.1,8542.2,3423.4,8535.5,3420.8,8529.5z"/>
			<path class="st5" d="M3504.7,8626.4c-4.2-10.2-2.4-24.3,4.2-33c12.8-16.7,41.9-14.7,52.2,3.8c7.7,13.8,3.6,33.2-8.7,41.9
				c-8.7,6-22,7.1-32.2,2.8C3514,8639.2,3507.3,8632.5,3504.7,8626.4z"/>
			<path class="st5" d="M3588.7,8723.4c-4.2-10.2-2.4-24.3,4.2-33c12.8-16.7,41.9-14.7,52.2,3.8c7.7,13.8,3.6,33.2-8.7,41.9
				c-8.7,6-22,7.1-32.2,2.8C3597.9,8736.1,3591.2,8729.4,3588.7,8723.4z"/>
			<path class="st5" d="M3672.6,8820.4c-4.2-10.2-2.4-24.3,4.2-33c12.8-16.7,41.9-14.7,52.2,3.8c7.7,13.8,3.6,33.2-8.7,41.9
				c-8.7,6-22,7.1-32.2,2.8C3681.8,8833,3675.2,8826.4,3672.6,8820.4z"/>
			<path class="st5" d="M3756.5,8917.3c-4.2-10.2-2.4-24.3,4.2-33c12.8-16.7,41.9-14.7,52.2,3.8c7.7,13.8,3.6,33.2-8.7,41.9
				c-8.7,6-22,7.1-32.2,2.8C3765.8,8930,3759.1,8923.3,3756.5,8917.3z"/>
			<path class="st5" d="M3840.5,9014.3c-4.2-10.2-2.4-24.3,4.2-33c12.8-16.7,41.9-14.7,52.2,3.8c7.7,13.8,3.6,33.2-8.7,41.9
				c-8.7,6-22,7.1-32.2,2.8C3849.7,9026.9,3843,9020.3,3840.5,9014.3z"/>
			<path class="st5" d="M3924.4,9111.2c-4.2-10.2-2.4-24.3,4.2-33c12.8-16.7,41.9-14.7,52.2,3.8c7.7,13.8,3.6,33.2-8.7,41.9
				c-8.7,6-22,7.1-32.2,2.8C3933.6,9123.9,3927,9117.2,3924.4,9111.2z"/>
			<path class="st5" d="M4008.3,9208.1c-4.2-10.2-2.4-24.3,4.2-33c12.8-16.7,41.9-14.7,52.2,3.8c7.7,13.8,3.6,33.2-8.7,41.9
				c-8.7,6-22,7.1-32.2,2.8C4017.5,9220.8,4010.9,9214.1,4008.3,9208.1z"/>
			<path class="st5" d="M3349.9,8251.8c-4.2-10.2-2.4-24.3,4.2-33c12.8-16.7,41.9-14.7,52.2,3.8c7.7,13.8,3.6,33.2-8.7,41.9
				c-8.7,6-22,7.1-32.2,2.8C3359.1,8264.4,3352.5,8257.8,3349.9,8251.8z"/>
			<path class="st5" d="M3433.8,8348.7c-4.2-10.2-2.4-24.3,4.2-33c12.8-16.7,41.9-14.7,52.2,3.8c7.7,13.8,3.6,33.2-8.7,41.9
				c-8.7,6-22,7.1-32.2,2.8C3443.1,8361.3,3436.4,8354.7,3433.8,8348.7z"/>
			<path class="st5" d="M3517.7,8445.6c-4.2-10.2-2.4-24.3,4.2-33c7.2-9.5,20.5-13.6,33.5-10.2c12.6,3.2,20.7,12.4,22.3,25.4
				c2.7,21.1-12.5,37.4-33.3,35.8C3532.5,8462.8,3521.9,8455.6,3517.7,8445.6z"/>
			<path class="st5" d="M3601.6,8542.5c-4.2-10.2-2.4-24.3,4.2-33c7.2-9.5,20.5-13.6,33.5-10.2c12.6,3.2,20.7,12.4,22.3,25.4
				c2.7,21.1-12.5,37.4-33.3,35.8C3616.4,8559.7,3605.9,8552.6,3601.6,8542.5z"/>
			<path class="st5" d="M3685.6,8639.5c-6.1-14.7-0.2-33.3,12.9-40.5c10.6-5.9,26.3-4.8,36,2.6c15.7,11.9,15.1,39.2-1.2,50.6
				c-8.7,6-22,7.1-32.2,2.8C3694.9,8652.2,3688.2,8645.5,3685.6,8639.5z"/>
			<path class="st5" d="M3769.5,8736.5c-6.1-14.7-0.2-33.3,12.9-40.5c10.6-5.9,26.3-4.8,36,2.6c15.7,11.9,15.1,39.2-1.2,50.6
				c-8.7,6-22,7.1-32.2,2.8C3778.8,8749.1,3772.1,8742.5,3769.5,8736.5z"/>
			<path class="st5" d="M3853.4,8833.4c-6.1-14.7-0.2-33.3,12.9-40.5c10.6-5.9,26.3-4.8,36,2.6c15.7,11.9,15.1,39.2-1.2,50.6
				c-8.7,6-22,7.1-32.2,2.8C3862.7,8846.1,3856,8839.4,3853.4,8833.4z"/>
			<path class="st5" d="M3937.4,8930.4c-6.1-14.7-0.2-33.3,12.9-40.5c10.6-5.9,26.3-4.8,36,2.6c15.7,11.9,15.1,39.2-1.2,50.6
				c-8.7,6-22,7.1-32.2,2.8C3946.7,8943,3940,8936.4,3937.4,8930.4z"/>
			<path class="st5" d="M4021.3,9027.3c-4.2-10.2-2.4-24.3,4.2-33c12.8-16.7,41.9-14.7,52.2,3.8c7.7,13.8,3.6,33.2-8.7,41.9
				c-8.7,6-22,7.1-32.2,2.8C4030.6,9040,4023.9,9033.3,4021.3,9027.3z"/>
			<path class="st5" d="M4105.2,9124.2c-4.2-10.2-2.4-24.3,4.2-33c12.8-16.7,41.9-14.7,52.2,3.8c7.7,13.8,3.6,33.2-8.7,41.9
				c-8.7,6-22,7.1-32.2,2.8C4114.5,9136.9,4107.8,9130.2,4105.2,9124.2z"/>
			<path class="st5" d="M3446.8,8167.9c-4.2-10.2-2.4-24.3,4.2-33c12.8-16.7,41.9-14.7,52.2,3.8c7.7,13.8,3.6,33.2-8.7,41.9
				c-8.7,6-22,7.1-32.2,2.8C3456.1,8180.5,3449.4,8173.9,3446.8,8167.9z"/>
			<path class="st5" d="M3530.7,8264.8c-4.2-10.2-2.4-24.3,4.2-33c12.8-16.7,41.9-14.7,52.2,3.8c7.7,13.8,3.6,33.2-8.7,41.9
				c-8.7,6-22,7.1-32.2,2.8C3540,8277.4,3533.3,8270.8,3530.7,8264.8z"/>
			<path class="st5" d="M3614.7,8361.7c-4.2-10.2-2.4-24.3,4.2-33c7.2-9.5,20.5-13.6,33.5-10.2c12.6,3.2,20.7,12.4,22.3,25.4
				c2.7,21.1-12.5,37.4-33.3,35.8C3629.4,8378.9,3618.8,8371.7,3614.7,8361.7z"/>
			<path class="st5" d="M3698.6,8458.6c-4.2-10.2-2.4-24.3,4.2-33c7.2-9.5,20.5-13.6,33.5-10.2c12.6,3.2,20.7,12.4,22.3,25.4
				c2.7,21.1-12.5,37.4-33.3,35.8C3713.3,8475.8,3702.8,8468.7,3698.6,8458.6z"/>
			<path class="st5" d="M3782.5,8555.6c-6.1-14.7-0.2-33.3,12.9-40.5c10.6-5.9,26.3-4.8,36,2.6c15.7,11.9,15.1,39.2-1.2,50.6
				c-8.7,6-22,7.1-32.2,2.8C3791.8,8568.3,3785.1,8561.6,3782.5,8555.6z"/>
			<path class="st5" d="M3866.5,8652.5c-6.1-14.7-0.2-33.3,12.9-40.5c10.6-5.9,26.3-4.8,36,2.6c15.7,11.9,15.1,39.2-1.2,50.6
				c-8.7,6-22,7.1-32.2,2.8C3875.7,8665.2,3869,8658.5,3866.5,8652.5z"/>
			<path class="st5" d="M3950.4,8749.5c-6.1-14.7-0.2-33.3,12.9-40.5c10.6-5.9,26.3-4.8,36,2.6c15.7,11.9,15.1,39.2-1.2,50.6
				c-8.7,6-22,7.1-32.2,2.8C3959.7,8762.2,3952.9,8755.5,3950.4,8749.5z"/>
			<path class="st5" d="M4034.3,8846.5c-6.1-14.7-0.2-33.3,12.9-40.5c10.6-5.9,26.3-4.8,36,2.6c15.7,11.9,15.1,39.2-1.2,50.6
				c-8.7,6-22,7.1-32.2,2.8C4043.6,8859.1,4036.9,8852.5,4034.3,8846.5z"/>
			<path class="st5" d="M4118.3,8943.4c-4.2-10.2-2.4-24.3,4.2-33c12.8-16.7,41.9-14.7,52.2,3.8c7.7,13.8,3.6,33.2-8.7,41.9
				c-8.7,6-22,7.1-32.2,2.8C4127.5,8956,4120.8,8949.4,4118.3,8943.4z"/>
			<path class="st5" d="M4202.2,9040.3c-4.2-10.2-2.4-24.3,4.2-33c12.8-16.7,41.9-14.7,52.2,3.8c7.7,13.8,3.6,33.2-8.7,41.9
				c-8.7,6-22,7.1-32.2,2.8C4211.4,9053,4204.7,9046.3,4202.2,9040.3z"/>
			<path class="st5" d="M3543.8,8083.9c-4.2-10.2-2.4-24.3,4.2-33c12.8-16.7,41.9-14.7,52.2,3.8c7.7,13.8,3.6,33.2-8.7,41.9
				c-8.7,6-22,7.1-32.2,2.8C3553.1,8096.5,3546.3,8089.9,3543.8,8083.9z"/>
			<path class="st5" d="M3627.7,8180.8c-4.2-10.2-2.4-24.3,4.2-33c12.8-16.7,41.9-14.7,52.2,3.8c7.7,13.8,3.6,33.2-8.7,41.9
				c-8.7,6-22,7.1-32.2,2.8C3637,8193.4,3630.2,8186.9,3627.7,8180.8z"/>
			<path class="st5" d="M3711.7,8277.7c-4.2-10.2-2.4-24.3,4.2-33c7.2-9.5,20.5-13.6,33.5-10.2c12.6,3.2,20.7,12.4,22.3,25.4
				c2.7,21.1-12.5,37.4-33.3,35.8C3726.4,8294.9,3715.8,8287.8,3711.7,8277.7z"/>
			<path class="st5" d="M3795.6,8374.6c-4.2-10.2-2.4-24.3,4.2-33c7.2-9.5,20.5-13.6,33.5-10.2c12.6,3.2,20.7,12.4,22.3,25.4
				c2.7,21.1-12.5,37.4-33.3,35.8C3810.3,8391.8,3799.7,8384.8,3795.6,8374.6z"/>
			<path class="st5" d="M3879.5,8471.6c-4.2-10.2-2.4-24.3,4.2-33c12.8-16.7,41.9-14.7,52.2,3.8c7.7,13.8,3.6,33.2-8.7,41.9
				c-8.7,6-22,7.1-32.2,2.8C3888.8,8484.3,3882,8477.7,3879.5,8471.6z"/>
			<path class="st5" d="M3963.5,8568.6c-4.2-10.2-2.4-24.3,4.2-33c12.8-16.7,41.9-14.7,52.2,3.8c7.7,13.8,3.6,33.2-8.7,41.9
				c-8.7,6-22,7.1-32.2,2.8C3972.7,8581.2,3965.9,8574.6,3963.5,8568.6z"/>
			<path class="st5" d="M4047.4,8665.5c-4.2-10.2-2.4-24.3,4.2-33c12.8-16.7,41.9-14.7,52.2,3.8c7.7,13.8,3.6,33.2-8.7,41.9
				c-8.7,6-22,7.1-32.2,2.8C4056.7,8678.2,4049.8,8671.6,4047.4,8665.5z"/>
			<path class="st5" d="M4131.3,8762.5c-4.2-10.2-2.4-24.3,4.2-33c12.8-16.7,41.9-14.7,52.2,3.8c7.7,13.8,3.6,33.2-8.7,41.9
				c-8.7,6-22,7.1-32.2,2.8C4140.6,8775.1,4133.8,8768.6,4131.3,8762.5z"/>
			<path class="st5" d="M4215.3,8859.4c-4.2-10.2-2.4-24.3,4.2-33c12.8-16.7,41.9-14.7,52.2,3.8c7.7,13.8,3.6,33.2-8.7,41.9
				c-8.7,6-22,7.1-32.2,2.8C4224.5,8872.1,4217.7,8865.5,4215.3,8859.4z"/>
			<path class="st5" d="M4299.2,8956.3c-4.2-10.2-2.4-24.3,4.2-33c12.8-16.7,41.9-14.7,52.2,3.8c7.7,13.8,3.6,33.2-8.7,41.9
				c-8.7,6-22,7.1-32.2,2.8C4308.4,8969,4301.6,8962.4,4299.2,8956.3z"/>
			<path class="st5" d="M3640.8,8000c-4.2-10.2-2.4-24.3,4.2-33c12.8-16.7,41.9-14.7,52.2,3.8c7.7,13.8,3.6,33.2-8.7,41.9
				c-8.7,6-22,7.1-32.2,2.8C3650,8012.6,3643.3,8006,3640.8,8000z"/>
			<path class="st5" d="M3724.7,8096.9c-4.2-10.2-2.4-24.3,4.2-33c12.8-16.7,41.9-14.7,52.2,3.8c7.7,13.8,3.6,33.2-8.7,41.9
				c-8.7,6-22,7.1-32.2,2.8C3733.9,8109.5,3727.2,8102.9,3724.7,8096.9z"/>
			<path class="st5" d="M3808.6,8193.8c-4.2-10.2-2.4-24.3,4.2-33c12.8-16.7,41.9-14.7,52.2,3.8c7.7,13.8,3.6,33.2-8.7,41.9
				c-8.7,6-22,7.1-32.2,2.8C3817.9,8206.5,3811.1,8199.8,3808.6,8193.8z"/>
			<path class="st5" d="M3892.5,8290.7c-4.2-10.2-2.4-24.3,4.2-33c12.8-16.7,41.9-14.7,52.2,3.8c7.7,13.8,3.6,33.2-8.7,41.9
				c-8.7,6-22,7.1-32.2,2.8C3901.8,8303.5,3895.1,8296.8,3892.5,8290.7z"/>
			<path class="st5" d="M3976.5,8387.7c-4.2-10.2-2.4-24.3,4.2-33c12.8-16.7,41.9-14.7,52.2,3.8c7.7,13.8,3.6,33.2-8.7,41.9
				c-8.7,6-22,7.1-32.2,2.8C3985.7,8400.4,3979,8393.7,3976.5,8387.7z"/>
			<path class="st5" d="M4060.4,8484.7c-4.2-10.2-2.4-24.3,4.2-33c12.8-16.7,41.9-14.7,52.2,3.8c7.7,13.8,3.6,33.2-8.7,41.9
				c-8.7,6-22,7.1-32.2,2.8C4069.6,8497.3,4062.9,8490.7,4060.4,8484.7z"/>
			<path class="st5" d="M4144.3,8581.6c-4.2-10.2-2.4-24.3,4.2-33c12.8-16.7,41.9-14.7,52.2,3.8c7.7,13.8,3.6,33.2-8.7,41.9
				c-8.7,6-22,7.1-32.2,2.8C4153.6,8594.3,4146.8,8587.6,4144.3,8581.6z"/>
			<path class="st5" d="M4228.3,8678.6c-4.2-10.2-2.4-24.3,4.2-33c12.8-16.7,41.9-14.7,52.2,3.8c7.7,13.8,3.6,33.2-8.7,41.9
				c-8.7,6-22,7.1-32.2,2.8C4237.5,8691.2,4230.8,8684.6,4228.3,8678.6z"/>
			<path class="st5" d="M4312.2,8775.5c-4.2-10.2-2.4-24.3,4.2-33c12.8-16.7,41.9-14.7,52.2,3.8c7.7,13.8,3.6,33.2-8.7,41.9
				c-8.7,6-22,7.1-32.2,2.8C4321.4,8788.2,4314.7,8781.5,4312.2,8775.5z"/>
			<path class="st5" d="M4396.1,8872.4c-4.2-10.2-2.4-24.3,4.2-33c12.8-16.7,41.9-14.7,52.2,3.8c7.7,13.8,3.6,33.2-8.7,41.9
				c-8.7,6-22,7.1-32.2,2.8C4405.3,8885.1,4398.6,8878.4,4396.1,8872.4z"/>
		</g>
		<g id="zasieg_1_">
			<polyline class="st1" points="149.1,183.8 150.1,178.6 169,182.2 163.8,186.5 			"/>
			<polyline class="st1" points="150.9,173.9 151.9,168.7 180.2,174 175,178.3 			"/>
			<polyline class="st1" points="152.6,164.4 153.6,159.3 192.7,166.5 187.5,170.8 			"/>
			<polyline class="st1" points="154.4,154.5 155.4,149.4 203.5,158.3 198.3,162.6 			"/>
			<polyline class="st1" points="156,145.5 157,140.3 214.5,150.7 209.3,155 			"/>
			<polyline class="st1" points="147.3,194.2 148.2,189 157.2,190.7 151.6,195 			"/>
		</g>
		
			<linearGradient id="kolko_6_" gradientUnits="userSpaceOnUse" x1="158" y1="64.4655" x2="335" y2="64.4655" gradientTransform="matrix(1 0 0 -1 0 390)">
			<stop  offset="0" style="stop-color:#5CD89F"/>
			<stop  offset="1" style="stop-color:#2ADB7E"/>
		</linearGradient>
		<circle id="kolko_3_" class="st6" cx="246.5" cy="325.5" r="88.5"/>
		<g id="strzalki_4_">
			
				<linearGradient id="SVGID_3_" gradientUnits="userSpaceOnUse" x1="434.747" y1="364.4008" x2="445.3076" y2="364.4008" gradientTransform="matrix(-3.314045e-02 0.9995 0.9995 3.314045e-02 258.2919 -436.148)">
				<stop  offset="0" style="stop-color:#5CD89F"/>
				<stop  offset="1" style="stop-color:#2ADB7E"/>
			</linearGradient>
			<polyline class="st7" points="598.6,10.5 607.8,20.3 617.6,11.1 			"/>
			
				<linearGradient id="SVGID_4_" gradientUnits="userSpaceOnUse" x1="444.747" y1="364.4008" x2="455.3076" y2="364.4008" gradientTransform="matrix(-3.314045e-02 0.9995 0.9995 3.314045e-02 258.2919 -436.148)">
				<stop  offset="0" style="stop-color:#5CD89F"/>
				<stop  offset="1" style="stop-color:#2ADB7E"/>
			</linearGradient>
			<polyline class="st8" points="598.2,20.5 607.4,30.3 617.2,21.1 			"/>
		</g>
		<g id="strzalki_5_">
			
				<linearGradient id="SVGID_5_" gradientUnits="userSpaceOnUse" x1="468.9199" y1="-82.7081" x2="473.8637" y2="-82.7081" gradientTransform="matrix(0.6732 0.7395 0.7395 -0.6732 -97.4868 -371.5295)">
				<stop  offset="0" style="stop-color:#5CD89F"/>
				<stop  offset="1" style="stop-color:#2ADB7E"/>
			</linearGradient>
			<polyline class="st9" points="154.4,33.8 159.9,34 160.1,28.5 			"/>
			
				<linearGradient id="SVGID_6_" gradientUnits="userSpaceOnUse" x1="473.0074" y1="-82.7081" x2="477.9513" y2="-82.7081" gradientTransform="matrix(0.6732 0.7395 0.7395 -0.6732 -97.4868 -371.5295)">
				<stop  offset="0" style="stop-color:#5CD89F"/>
				<stop  offset="1" style="stop-color:#2ADB7E"/>
			</linearGradient>
			<polyline class="st10" points="157.1,36.8 162.6,37.1 162.9,31.6 			"/>
		</g>
	</g>
	<path class="st1" d="M171.5,25.2c30.8-21.4,73.2-13.7,94.6,17.1c21.4,30.8,13.7,73.2-17.1,94.6L171.5,25.2z"/>
	<path class="st1" d="M600.6,231.8c54.8,68.3,43.8,168-24.5,222.8s-168,43.8-222.8-24.5L600.6,231.8z"/>
</g>
<g id="Warstwa_2">
	<g>
		<rect x="356" y="336" class="st19" width="99" height="37"/>
		<rect x="181" y="51" class="st20" width="440" height="285"/>
		<rect x="189" y="59" class="st21" width="424" height="234"/>
		<rect x="293" y="372" class="st20" width="224" height="9"/>
	</g>
</g>
<g id="czlowiek">
	<path class="st22" d="M67,217v-7c0,0-33,0-34-9c0,0,0-2,4-3s9-5,10-12s10-19,16-12s8,7,8,7l3,31l-1,5H67"/>
	<path class="st23" d="M71,221v-11l-9-8c0,0-8-6,4-9h4c0,0-10-13-1-13c0,0,4,3,9,3c0,0,6-5,6,0s-2,7-2,7s1,8,3,8s2,4-2,9s-5,14-5,14
		H71z"/>
	<path class="st20" d="M66.6,213L53,222l37,20c0,0,11.4,7,4.9-7s-15.2-20-15.2-20L66.6,213z"/>
	<path class="st23" d="M89,201c0,0-7,0-1,3s13,5,13,5s4,3,0,3s-12,3,0,5s16,1,17,8s0,13,0,13h10c0,0-4-25-12-26c0,0-8-8-14-8
		s-7-1-9-2S91,201,89,201z"/>
	<path class="st5" d="M40,554c0,0-4-20,17-51c0,0-2-38,14-55c0,0,17-74,12-101s2-39,2-39s-28-34-30-49l-20,24l33,18c0,0,1,15-4,15
		L9,296c0,0-5-1,3-14l40-59c0,0,5-8,14,1l23,16c0,0,12,5,2-7c0,0-2-8,3-2s17,20,19,26s9,11,9,11l-5-32h12c0,0,9,16,10,31s5,24-3,34
		h-7v32c0,0-2,34-6,46s-6,45-10,54s-7,46-10,55s-9,37-12,47s-4,18-4,18L40,554z"/>
	<path class="st20" d="M117,236h12v-5c0,0-12,1-12,3S117,236,117,236z"/>
	<path id="buty" class="st20" d="M126,575H40v-22l56-1c0,0,28,11,31,23"/>
	<path class="st23" d="M70,304l-2,11c0,0,7-2,10-2s3,6,1,11s-7,12-7,12c-2,10,3,3,3,3l4-7v7c4,7,4,0,4,0l-1-13c0,0,0-3,3-5
		s-1-10-1-10s0,4,9-1s0-4,0-4s-4,1-10,2s-8-3-9-3C74,305,72,304,70,304z"/>
	<path class="st20" d="M68,301l-4.5,14.4l4.7,1.7c0,0,4.3-14.5,2.4-15.2C68.7,301.3,68,301,68,301z"/>
</g>
<g id="web">
	<polygon class="st24" points="252,211 446,211 446,112 251,112 	"/>
	<g>
		<path class="st25" d="M259,135h22c2.8,0,5-2.3,5-5l0,0c0-2.8-2.3-5-5-5h-22c-2.8,0-5,2.3-5,5l0,0C254,132.8,256.3,135,259,135z"/>
		<path class="st25" d="M322,135h22c2.8,0,5-2.3,5-5l0,0c0-2.8-2.3-5-5-5h-22c-2.8,0-5,2.3-5,5l0,0C317,132.8,319.3,135,322,135z"/>
		<path class="st25" d="M381,135h22c2.8,0,5-2.3,5-5l0,0c0-2.8-2.3-5-5-5h-22c-2.8,0-5,2.3-5,5l0,0C376,132.8,378.3,135,381,135z"/>
	</g>
	<path class="st26" d="M436,94H261c-5.5,0-10,4.5-10,10v10h195v-10C446,98.5,441.5,94,436,94z"/>
	<g>
		<path class="st27" d="M289,122h135c2.8,0,5-2.3,5-5v0c0-2.7-2.3-5-5-5H289c-2.8,0-5,2.3-5,5v0C284,119.8,286.3,122,289,122z"/>
		<g>
			<path d="M290.6,115.4h0.3v1h0c0-0.1,0.1-0.2,0.2-0.2c0.1,0,0.2-0.1,0.3-0.1c0.2,0,0.6,0.1,0.6,0.7v0.9h-0.3v-0.9
				c0-0.3-0.1-0.5-0.4-0.5c-0.2,0-0.3,0.1-0.4,0.3c0,0,0,0.1,0,0.1v1h-0.3V115.4z"/>
			<path d="M292.7,115.7v0.5h0.4v0.2h-0.4v0.9c0,0.2,0.1,0.3,0.2,0.3c0.1,0,0.1,0,0.2,0l0,0.2c-0.1,0-0.1,0-0.3,0
				c-0.1,0-0.2,0-0.3-0.1c-0.1-0.1-0.1-0.2-0.1-0.4v-0.9h-0.2v-0.2h0.2v-0.4L292.7,115.7z"/>
			<path d="M293.8,115.7v0.5h0.4v0.2h-0.4v0.9c0,0.2,0.1,0.3,0.2,0.3c0.1,0,0.1,0,0.2,0l0,0.2c-0.1,0-0.1,0-0.3,0
				c-0.1,0-0.2,0-0.3-0.1c-0.1-0.1-0.1-0.2-0.1-0.4v-0.9h-0.2v-0.2h0.2v-0.4L293.8,115.7z"/>
			<path d="M294.5,116.7c0-0.2,0-0.4,0-0.5h0.3l0,0.3h0c0.1-0.2,0.3-0.3,0.6-0.3c0.4,0,0.7,0.3,0.7,0.8c0,0.6-0.3,0.8-0.7,0.8
				c-0.2,0-0.4-0.1-0.5-0.2h0v0.9h-0.3V116.7z M294.8,117.1c0,0,0,0.1,0,0.1c0.1,0.2,0.2,0.3,0.4,0.3c0.3,0,0.5-0.2,0.5-0.6
				c0-0.3-0.2-0.6-0.5-0.6c-0.2,0-0.4,0.1-0.4,0.4c0,0,0,0.1,0,0.1V117.1z"/>
			<path d="M296.4,117.4c0.1,0.1,0.2,0.1,0.4,0.1c0.2,0,0.3-0.1,0.3-0.2c0-0.1-0.1-0.2-0.3-0.3c-0.3-0.1-0.4-0.3-0.4-0.4
				c0-0.3,0.2-0.5,0.5-0.5c0.2,0,0.3,0,0.4,0.1l-0.1,0.2c-0.1,0-0.2-0.1-0.3-0.1c-0.2,0-0.3,0.1-0.3,0.2c0,0.1,0.1,0.2,0.3,0.3
				c0.3,0.1,0.4,0.2,0.4,0.5c0,0.3-0.2,0.5-0.6,0.5c-0.2,0-0.3,0-0.4-0.1L296.4,117.4z"/>
			<path d="M297.6,116.4c0-0.1,0.1-0.2,0.2-0.2s0.2,0.1,0.2,0.2c0,0.1-0.1,0.2-0.2,0.2C297.7,116.6,297.6,116.5,297.6,116.4z
				 M297.6,117.6c0-0.1,0.1-0.2,0.2-0.2s0.2,0.1,0.2,0.2c0,0.1-0.1,0.2-0.2,0.2C297.7,117.8,297.6,117.7,297.6,117.6z"/>
			<path d="M298.1,117.9l0.9-2.4h0.2l-0.9,2.4H298.1z"/>
			<path d="M299.3,117.9l0.9-2.4h0.2l-0.9,2.4H299.3z"/>
			<path d="M300.6,117.4c0.1,0.1,0.2,0.1,0.4,0.1c0.2,0,0.3-0.1,0.3-0.2c0-0.1-0.1-0.2-0.3-0.3c-0.3-0.1-0.4-0.3-0.4-0.4
				c0-0.3,0.2-0.5,0.5-0.5c0.2,0,0.3,0,0.4,0.1l-0.1,0.2c-0.1,0-0.2-0.1-0.3-0.1c-0.2,0-0.3,0.1-0.3,0.2c0,0.1,0.1,0.2,0.3,0.3
				c0.3,0.1,0.4,0.2,0.4,0.5c0,0.3-0.2,0.5-0.6,0.5c-0.2,0-0.3,0-0.4-0.1L300.6,117.4z"/>
			<path d="M303.3,115.4v1.9c0,0.1,0,0.3,0,0.4H303l0-0.3h0c-0.1,0.2-0.3,0.3-0.5,0.3c-0.4,0-0.7-0.3-0.7-0.8c0-0.5,0.3-0.8,0.7-0.8
				c0.2,0,0.4,0.1,0.5,0.2h0v-0.9H303.3z M303,116.8c0,0,0-0.1,0-0.1c0-0.2-0.2-0.3-0.4-0.3c-0.3,0-0.5,0.3-0.5,0.6
				c0,0.3,0.2,0.6,0.5,0.6c0.2,0,0.4-0.1,0.4-0.3c0,0,0-0.1,0-0.1V116.8z"/>
			<path d="M303.8,115.4h0.3v2.3h-0.3V115.4z"/>
			<path d="M304.6,116.2l0.3,0.9c0,0.1,0.1,0.2,0.1,0.3h0c0-0.1,0.1-0.2,0.1-0.3l0.3-0.9h0.3l-0.4,1.1c-0.2,0.5-0.3,0.8-0.5,1
				c-0.1,0.1-0.3,0.2-0.4,0.2l-0.1-0.2c0.1,0,0.2-0.1,0.3-0.1c0.1-0.1,0.2-0.2,0.2-0.3c0,0,0-0.1,0-0.1c0,0,0,0,0-0.1l-0.6-1.5
				H304.6z"/>
			<path d="M305.9,117.6c0-0.1,0.1-0.2,0.2-0.2s0.2,0.1,0.2,0.2c0,0.1-0.1,0.2-0.2,0.2C306,117.8,305.9,117.7,305.9,117.6z"/>
			<path d="M306.6,116.7c0-0.2,0-0.4,0-0.5h0.3l0,0.3h0c0.1-0.2,0.3-0.3,0.6-0.3c0.4,0,0.7,0.3,0.7,0.8c0,0.6-0.3,0.8-0.7,0.8
				c-0.2,0-0.4-0.1-0.5-0.2h0v0.9h-0.3V116.7z M306.9,117.1c0,0,0,0.1,0,0.1c0.1,0.2,0.2,0.3,0.4,0.3c0.3,0,0.5-0.2,0.5-0.6
				c0-0.3-0.2-0.6-0.5-0.6c-0.2,0-0.4,0.1-0.4,0.4c0,0,0,0.1,0,0.1V117.1z"/>
			<path d="M308.5,115.4h0.3v2.3h-0.3V115.4z"/>
		</g>
	</g>
	<path class="st28" d="M272,109h-17v-5c0-2.7,2.3-5,5-5h12V109z"/>
</g>
</svg>
