<svg id="Warstwa_1" data-name="Warstwa 1" xmlns="http://www.w3.org/2000/svg" viewBox="0 0 318.4 225.7"><defs><style>.cls-1{fill:#f3f4f6;}.cls-2{fill:#e8e9ec;}.cls-3{fill:#fcfcfd;}.cls-4{fill:#eff0f2;}.cls-5{fill:#bbbdc7;}.cls-6{fill:#dddee3;}.cls-7,.cls-9{fill:#a5a7b5;}.cls-8{fill:#d2d3da;}.cls-9{opacity:0.13;isolation:isolate;}.cls-10{fill:#ed956e;}.cls-11{fill:#2adb7e;}.cls-12{fill:#5cd89f;}.cls-13{fill:#1e1c24;}.cls-14{fill:#302533;}.cls-15{fill:#8d5e4c;}.cls-16{fill:#99644c;}.cls-17{fill:#332b3b;}.cls-18{fill:#3cd387;}.cls-19{fill:#22b573;}.cls-20{fill:#fff;}.cls-21{fill:#64cb9d;}</style></defs><title>contact</title><g id="panes"><rect id="glass_pane" data-name="glass pane" class="cls-1" x="2.7" width="98" height="184.7"/><rect id="glass_pane-2" data-name="glass pane" class="cls-1" x="111.2" width="98" height="184.7"/><polygon class="cls-2" points="70.4 98 85.5 98 85.5 184 38.6 184 38.6 87.5 70.5 87.5 70.4 98"/><polygon class="cls-2" points="133.3 38.3 138.7 76.9 145.8 76.9 145.8 97.1 150.4 97.1 150.4 123.6 158.4 123.6 158.4 167.7 166 167.7 166 184.7 133.3 184.7 133.3 38.3"/><polygon class="cls-2" points="133.3 184.7 133.3 38.3 128 76.9 120.9 76.9 120.9 97.1 116.2 97.1 116.2 123.6 116.2 184.7 133.3 184.7"/><polygon class="cls-2" points="221.9 92.3 242.8 92.9 254.7 97.5 254.7 121.1 261.9 121.1 261.9 184 220.4 184 221.9 92.3"/><polygon class="cls-3" points="2.7 92.8 2.7 102.6 82.7 156 96.7 156 2.7 92.8"/><polygon class="cls-3" points="2.7 108.1 98.4 171.4 85.9 171.4 2.7 116.5 2.7 108.1"/><polygon class="cls-1" points="318.4 0 220.4 0 220.4 15.6 318.4 80.8 318.4 0"/><polygon class="cls-1" points="318.4 110.2 220.4 44.8 220.4 55.9 318.4 121 318.4 110.2"/><polygon class="cls-1" points="220.4 184.7 318.4 184.7 318.4 133.8 220.4 69.2 220.4 184.7"/></g><g id="ppl"><g id="chair"><path class="cls-4" d="M282.9,162.9l-49.3-2.4s-2.7.5-2.8,2.7v2s.4-2.3,4.4-2.1,46.4,2.1,46.4,2.1Z"/><path class="cls-5" d="M279.7,160.9l-1.2,1.9-38.7-1.9h0v-.2a3,3,0,0,1,2.4-1.5l36.6,1.8Z"/><path class="cls-6" d="M303.1,139s-12-1.5-16.8,7.1-9,16.6-9,16.6l7,.4Z"/><path class="cls-7" d="M299,195.6l1.9,9.9s2.1,5.4-10.8,5.2-45.7,0-45.7,0-7.1.1-7.1-7.1v-1.9l3.9-.3v5.7h56.2l-2.2-10.3A4.82,4.82,0,0,0,299,195.6Z"/><path class="cls-6" d="M279.8,159.1l-1,1.8h0l-36.1-1.8a3,3,0,0,0-2.8,1.7h0v-.2a3.7,3.7,0,0,1,.7-2.5c.9-.8-.1-.8,7.6-.8S279.8,159.1,279.8,159.1Z"/><path class="cls-8" d="M281.7,165.2l-47.9-2.3s-2.8-.3-2.8,2.4,1.8,31.8,1.8,31.8-1.5,6.2,5.4,4.6,60.6-4.2,60.6-4.2l7.6-54.7a3.52,3.52,0,0,0-3.9-3.9c-4.3,0-7.6.9-11.7,9.1s-9.1,17.2-9.1,17.2"/><path class="cls-9" d="M25.7,195.8l-1.9,9.9s-2.1,5.4,10.8,5.2,45.7,0,45.7,0,7.1.1,7.1-7.1v-1.9l-3.9-.3v5.7H27.1L29.3,197A4.73,4.73,0,0,1,25.7,195.8Z"/></g><g id="chair-2" data-name="chair"><path class="cls-4" d="M42.2,163l49.3-2.4s2.7.5,2.8,2.7v2s-.4-2.3-4.4-2.1-46.4,2.1-46.4,2.1Z"/><path class="cls-5" d="M45.4,161l1.2,1.9L85.3,161h0v-.2a3,3,0,0,0-2.4-1.5L46.3,161Z"/><path class="cls-6" d="M22,139.1s12-1.5,16.8,7.1,9,16.6,9,16.6l-7,.4Z"/><path class="cls-7" d="M26.1,195.7l-1.9,9.9S22.1,211,35,210.8s45.7,0,45.7,0,7.1.1,7.1-7.1v-1.9l-3.9-.3v5.7H27.6l2.2-10.3A5.37,5.37,0,0,1,26.1,195.7Z"/><path class="cls-6" d="M45.3,159.2l1,1.8h0l36.1-1.8a3,3,0,0,1,2.8,1.7h0v-.2a3.7,3.7,0,0,0-.7-2.5c-.9-.8.1-.8-7.6-.8S45.3,159.2,45.3,159.2Z"/><path class="cls-8" d="M43.5,165.3,91.4,163s2.8-.3,2.8,2.4-1.8,31.8-1.8,31.8,1.5,6.2-5.4,4.6-60.6-4.2-60.6-4.2L18.8,143a3.52,3.52,0,0,1,3.9-3.9c4.3,0,7.6.9,11.7,9.1,4.1,8,9.1,17.1,9.1,17.1"/></g><g id="man"><g id="trausers"><g id="legs"><polygon class="cls-10" points="72 203.5 66.8 212.2 58.6 209.9 63.9 199.9 72 203.5"/><path class="cls-10" d="M97.8,200.3l-1.1,9.3,9.8.7s1.5-10.8,2.5-11.5Z"/></g><g id="shoes"><g id="shoe"><path class="cls-11" d="M55,217.2v-3.7s2.2-5.3,4.4-5.3c0,0-.1-2.7,1.1-2.7h5.6a2,2,0,0,1,0,2.1s-.7.8,0,1.1a2.4,2.4,0,0,1,1.6,2.6,14.4,14.4,0,0,1-1.3,5.6C65.7,218.3,55,217.2,55,217.2Z"/><path class="cls-12" d="M55,217.2h3.8s1.6-2.6,4.2,0h3.4L65,219.7H56.6Z"/></g><g id="shoe-2" data-name="shoe"><path class="cls-12" d="M95.1,214.7s-.7-.1-.6.4-.8,3.4,3.5,3.2,16.1-.2,16.1-.2,1.4,0,4.2-2.2l-13.6-.1v-1.6l-8.8-.2Z"/><path class="cls-11" d="M96.8,206.8l-1.7,7.9h8.2s1.3.2,1.3,1.2l13.5.1a1.71,1.71,0,0,0,1.6-1.9c0-1.9-1.8-1.9-3.1-1.9,0,0-7.5-.7-8.3-6,0,0,0-.9-.8-.9l-2.3,1.6s.9,1.3.7,1.6c0,0-.3,1.2-4.1,1.2a4.29,4.29,0,0,1-4.5-2.8C97.3,206.8,97.1,206.7,96.8,206.8Z"/></g></g><path class="cls-13" d="M62.5,202.3l9.2,2.2,15.8-25.2s2.1-1.4,2.8-6.6,16.2-31.2,16.2-31.2v22.9s-6.2,10.3-7.2,22.2l-1.8,15.9,10.6-.2s8.5-23.9,9.2-23.9c0,0,2.2-6.1,1.8-9.9l8.3-40.3s1.1-8.4-.3-10.2l-34.7,8.4L76.9,166.1s-7.1,10.1-8.3,18.2S62.5,202.3,62.5,202.3Z"/></g><path id="head_skin" data-name="head skin" class="cls-10" d="M110.2,82V68.7l6.1-.9V63.7s3.2.3,1.6-1.4a6.42,6.42,0,0,1-1.6-4s.7-4.8-2.1-5.8-15.9,4.7-15.9,4.7l2.1,8.3v7.7l8.1,8.4Z"/><path id="tshirt" class="cls-14" d="M110.2,74.5v7.3L100.6,72l-7.4-1.8s-6.4-2.5-6.4,8.7,5.1,22.2,5.1,22.2l.1,25.3,35-8.5v-1.6l1,.4,3-9.7-3.7-.9v-4s-5-14.2-5.4-17.7c0,0-.6-6.7-5.3-7.9A65.45,65.45,0,0,1,110.2,74.5Z"/><path id="hand_down" data-name="hand down" class="cls-10" d="M127,117.9v4.6l-4.6-1.4s-.9,2.6-2.9,3.2-1-1.1-.3-1.9a4.68,4.68,0,0,0,1.4-2.9C120.6,118.1,127,117.9,127,117.9Z"/><path id="hand_up" data-name="hand up" class="cls-10" d="M131,107.2a5.35,5.35,0,0,0,2.9.7c1.9,0,8.9-1.8,8.9-1.8s1.7-.2-.8,1.9a26.55,26.55,0,0,1-2.7.8s.8,1.3,4.6,2a42.89,42.89,0,0,1,6.9,1.9s1.1.8-1.4,1.4c0,0,.5.9-1.4,1,0,0,.4.8-1.8.8h-1.5s1,1.3-4.8,1.3-8.3-2.2-8.3-3.1h-2.8Z"/><path id="hair" class="cls-13" d="M117.3,53.6c-1.4-3.8-8.2-4.1-8.2-4.1h-4.4c-6.4,0-7,4.4-7,4.4V64.8c2.4,1.3,10.7,2.4,10.7,2.4s.1-.4,0,1.3,4,1.8,4,1.8c2.2,2.2,3.8,0,3.8,0V67.5h-.9c-.6,0-1.3,0-1.3-1a.81.81,0,0,1,.9-.9h1.3v-1h-.9c-2.8,0-2.8.9-2.8.9l-.1,1.3c-1.4.1-2.5-2.5-2.5-2.5a5.34,5.34,0,0,1-.2-2.5c0-2-.7-1.9-.7-1.9-1.8-.7.7-1.6.7-1.6h2.6a1.63,1.63,0,0,0,1.8-1.2l.1-4.9c1,.5,2.2,3.4,2.2,3.4l-.1,4.8c.7,2.8,2,.3,2,.3l.9-1.8C119.1,59.1,118.7,57.4,117.3,53.6Zm-9.8,10.8s-3.3-1.1-3.3-3.5V58.1s.8-1.4,2.5.3c0,0,.8.7.8,1.3Z"/></g><g id="female"><polygon class="cls-15" points="217.9 208.5 210.8 208.5 203 177.7 202.5 163.7 200.7 156.8 215.9 156.8 217.9 208.5"/><path class="cls-16" d="M209.3,156.8a97.47,97.47,0,0,0,3.5,9.2c1.3,2.9,2.5,14.7,2.5,14.7l11.2,30.4,6.7-1.2s-5.4-24.8-5.1-32.9L220,160.4l-.4-3.7H209.3Z"/><g id="shoe-3" data-name="shoe"><path class="cls-17" d="M208.7,204.9h.9s1.6.2,1.7,3.2l-1.6,2C209.8,210.1,208.3,207,208.7,204.9Z"/><path class="cls-14" d="M218.2,207.5a35.33,35.33,0,0,0,1.4,5.3v3.6l-21.8-.2s-.9-2.9,6.4-3.3c0,0,3.3.4,7.5-5.1Z"/><rect class="cls-17" x="197.8" y="216.3" width="21.8" height="1.6"/></g><g id="shoe-4" data-name="shoe"><path class="cls-17" d="M226.6,215.9v1.5l3.3,4.6s.1.9,5.2.9,3.3-4.3,3.3-4.3Z"/><path class="cls-17" d="M231,206.9s-.4-4.4-3.6-2.5-.1,4.6-.1,4.8a21,21,0,0,0,1.6,2.2l3.2-1.2Z"/><path class="cls-14" d="M226.6,215.9l3.3,4.7s.9,1.4,5.1,1.1,3.6-2.9,3.6-2.9-6.5-11-6.5-12.5-2.3,1.1-2.3,1.1.2,2,.4,2.8a3.48,3.48,0,0,0-3.3-2.4l-1.8.7a10.94,10.94,0,0,1,1.1,4A33.9,33.9,0,0,1,226.6,215.9Z"/></g><path id="skirt" class="cls-12" d="M195.3,117.2l24.7,9.9v29.6H200.3s-8.4-31.9-5.9-35.2Z"/><g id="shirt"><g id="shirt-2" data-name="shirt"><path id="shirt-3" data-name="shirt" class="cls-18" d="M220,127.3l-24.7-9.9,2.1-8.1-2.6,4.7-5.3-5.6s7.6-15.4,8.7-21.8c0,0-.5-3.4,5.6-4.6l21.9-4.3s3.6-.9,6.7,3.9,3.9,6.9,7.1,9.1l8.7,8.7s4.5,5.2-2.4,8.5L230,92.7l-8.4,19.9A89.23,89.23,0,0,0,220,127.3Z"/><polygon class="cls-17" points="210.1 99.8 210.1 85.9 209.7 85.7 209.7 99.8 210.1 99.8"/><polygon class="cls-14" points="211.2 80.5 211.2 87 205 81.8 211.2 80.5"/><polygon class="cls-14" points="225.4 77.7 213 86.4 211.6 87.2 219.3 78.9 225.4 77.7"/><polygon class="cls-17" points="212.9 99.9 212.9 86.4 213.3 86.1 213.3 99.9 212.9 99.9"/></g><path class="cls-14" d="M209.9,100.6a.5.5,0,0,0,0-1,.5.5,0,0,0,0,1Z"/><path class="cls-14" d="M213.1,100.6a.5.5,0,0,0,0-1,.5.5,0,0,0,0,1Z"/></g><g id="rece"><path class="cls-16" d="M239.9,102.2l-18.2,10s-1.8,11.3-1.6,12.2l.3-.3a8.33,8.33,0,0,1-.3,3.6c-.6,1.4-.7,4.2.6,1.4s1.4-3.3,1.4-4.5,1-1.5,1.1-4.7-.6-3.9,1.4-4.3,13.4-3.7,15.3-4.7,5.9-2.9,5.9-2.9Z"/><path class="cls-16" d="M189.6,108.3l5.3,5.6s-9.6,6.4-14.1,7.5c0,0-8,2.8-10.9,8.4,0,0-3.9,3.8-.9-1.2l-4,2.4s-2,1.1,0-1.4l-1.8.9s-2.3,1.6-1-.4c0,0-2.9,1.2-.8-1.4a47.45,47.45,0,0,1,6-5.7s1.7-1.6-1.7-2.1-2.6-1.8-.1-1.4a18.93,18.93,0,0,0,3.9.3,9.69,9.69,0,0,0,8-2.9"/></g><path id="twarz" class="cls-16" d="M211.6,87.2l7.7-7.9V58.2l-12.1.4s-.3-.3-.9,1.6a13.65,13.65,0,0,0-.2,4.6s1.9,1.2-.3,2.3c0,0-2.3,1.6.2,2.2,0,0,.3.4.2,2.6s.8,2.2,1.9,2.1,3.1-.1,3.1-.1V87Z"/><path id="oksy" class="cls-12" d="M205.1,63.4v3.5h2.8V64.7h4.2V63.4Zm2.1,2.9h-1.6V63.8h1.6Z"/><path class="cls-17" d="M216.1,73s4.4-2.8,6.2-2.5,2.9,3.8,7.4,3.2,6.4-2.6,6.6-7.6-5.8-5.8-6.5-5.9-2.1-3.9-8.6-3.6c0,0-1.4-2.4-7.2-2s-7.4,3-7.4,5.3,1,3.5,2.5,3.6a23.84,23.84,0,0,0,2.9,0l.1,2.4h.8s1.8-2.3,2.5-2.4,2.9-.2,2.8,2.3-1.9,2.1-1.9,2.1Z"/><path class="cls-12" d="M221.3,70.6h0a.22.22,0,0,1-.2-.2V56.6a.22.22,0,0,1,.2-.2h0a.22.22,0,0,1,.2.2V70.4A.22.22,0,0,1,221.3,70.6Z"/><path class="cls-12" d="M222.7,70.6h0c.1.1.2,0,.3-.1l6.7-10.4c.1-.1,0-.2-.1-.3h0c-.1-.1-.2,0-.3.1l-6.7,10.4C222.6,70.5,222.6,70.6,222.7,70.6Z"/></g><g id="suitcase"><path class="cls-19" d="M298.4,190.8h4.4s3.4-.4,3.5,4.7,0,26,0,26,.6,2.7-3.6,2.8h-3.9Z"/><polygon class="cls-19" points="279.9 184.6 279.9 187.2 279.9 187.2 279.9 191.2 282.4 191.2 282.4 187.2 292.6 187.2 292.6 191.2 295 191.2 295 187.2 295 187.2 295 184.6 279.9 184.6"/><path class="cls-18" d="M300,224.3H272.1a2.8,2.8,0,0,1-2.8-2.8V193.6a2.8,2.8,0,0,1,2.8-2.8H300a2.8,2.8,0,0,1,2.8,2.8v27.9A2.86,2.86,0,0,1,300,224.3Z"/><polyline class="cls-12" points="271.3 222.1 271.3 193 300.8 193 300.8 222.1"/><g id="belts"><path class="cls-20" d="M297.2,205.3H275.3a1.11,1.11,0,0,1-1.1-1.1h0a1.11,1.11,0,0,1,1.1-1.1h21.9a1.11,1.11,0,0,1,1.1,1.1h0A1.11,1.11,0,0,1,297.2,205.3Z"/><path class="cls-20" d="M297.2,211.9H275.3a1.11,1.11,0,0,1-1.1-1.1h0a1.11,1.11,0,0,1,1.1-1.1h21.9a1.11,1.11,0,0,1,1.1,1.1h0A1.11,1.11,0,0,1,297.2,211.9Z"/></g><rect class="cls-21" x="279.2" y="189.1" width="3.8" height="1.7"/><rect class="cls-21" x="291.6" y="189.1" width="3.8" height="1.7"/></g></g></svg>
