<?xml version="1.0" encoding="utf-8"?>
<!-- Generator: Adobe Illustrator 23.0.1, SVG Export Plug-In . SVG Version: 6.00 Build 0)  -->
<svg version="1.1" xmlns="http://www.w3.org/2000/svg" xmlns:xlink="http://www.w3.org/1999/xlink" x="0px" y="0px"
	 viewBox="0 0 623 384" style="enable-background:new 0 0 623 384;" xml:space="preserve">
<style type="text/css">
	.st0{display:none;}
	.st1{fill:#332B3B;}
	.st2{fill:url(#kolko_1_);}
	.st3{fill:none;stroke:url(#SVGID_1_);stroke-miterlimit:10;}
	.st4{fill:none;stroke:url(#SVGID_2_);stroke-miterlimit:10;}
	.st5{fill:none;stroke:url(#SVGID_3_);stroke-miterlimit:10;}
	.st6{fill:none;stroke:url(#SVGID_4_);stroke-miterlimit:10;}
	.st7{fill:#5CD89F;}
	.st8{fill:#2ADB7E;}
	.st9{fill:#302533;}
	.st10{fill:#E6E6E6;}
	.st11{opacity:0.25;fill:#999999;}
	.st12{fill:none;stroke:#1E1C24;stroke-miterlimit:10;}
	.st13{fill:#3CD387;}
</style>
<g id="Warstwa_1" class="st0">
	
		<image style="display:inline;overflow:visible;" width="798" height="504" xlink:href="545A280.jpg"  transform="matrix(1 0 0 1 -93 -67)">
	</image>
</g>
<g id="Warstwa_2">
	<g id="Warstwa_3">
		<path class="st1" d="M556.2,58.6c49.9,63.9,36.4,157.8-30.2,209.8S364.9,310.9,315,247L556.2,58.6z"/>
		<linearGradient id="kolko_1_" gradientUnits="userSpaceOnUse" x1="111" y1="133.5" x2="288" y2="133.5">
			<stop  offset="0" style="stop-color:#5CD89F"/>
			<stop  offset="1" style="stop-color:#2ADB7E"/>
		</linearGradient>
		<circle id="kolko" class="st2" cx="199.5" cy="133.5" r="88.5"/>
		<g id="zasieg">
			<polyline class="st1" points="190.2,43.9 202.2,44.1 201.8,88 190,78 			"/>
			<polyline class="st1" points="213.2,43.9 225.2,44.1 224.8,110 213,100 			"/>
			<polyline class="st1" points="235.2,43.9 247.2,44.1 246.8,135 235,125 			"/>
			<polyline class="st1" points="258.2,43.9 270.2,44.1 269.8,156 258,146 			"/>
			<polyline class="st1" points="279.2,43.9 291.2,44.1 291.3,177.7 279.5,167.7 			"/>
			<polyline class="st1" points="166,44 178,44 178,65 166,54 			"/>
		</g>
		<g id="strzalki">
			
				<linearGradient id="SVGID_1_" gradientUnits="userSpaceOnUse" x1="514.6464" y1="42.5" x2="525.2071" y2="42.5" gradientTransform="matrix(-1 0 0 1 1047.5 0)">
				<stop  offset="0" style="stop-color:#5CD89F"/>
				<stop  offset="1" style="stop-color:#2ADB7E"/>
			</linearGradient>
			<polyline class="st3" points="532.5,33 523,42.5 532.5,52 			"/>
			
				<linearGradient id="SVGID_2_" gradientUnits="userSpaceOnUse" x1="524.6464" y1="42.5" x2="535.2071" y2="42.5" gradientTransform="matrix(-1 0 0 1 1047.5 0)">
				<stop  offset="0" style="stop-color:#5CD89F"/>
				<stop  offset="1" style="stop-color:#2ADB7E"/>
			</linearGradient>
			<polyline class="st4" points="522.5,33 513,42.5 522.5,52 			"/>
		</g>
		<g id="strzalki_1_">
			
				<linearGradient id="SVGID_3_" gradientUnits="userSpaceOnUse" x1="1043.6465" y1="140.5" x2="1054.2072" y2="140.5" gradientTransform="matrix(1 0 0 1 -984 0)">
				<stop  offset="0" style="stop-color:#5CD89F"/>
				<stop  offset="1" style="stop-color:#2ADB7E"/>
			</linearGradient>
			<polyline class="st5" points="60,131 69.5,140.5 60,150 			"/>
			
				<linearGradient id="SVGID_4_" gradientUnits="userSpaceOnUse" x1="1053.6465" y1="140.5" x2="1064.2072" y2="140.5" gradientTransform="matrix(1 0 0 1 -984 0)">
				<stop  offset="0" style="stop-color:#5CD89F"/>
				<stop  offset="1" style="stop-color:#2ADB7E"/>
			</linearGradient>
			<polyline class="st6" points="70,131 79.5,140.5 70,150 			"/>
		</g>
		<g transform="translate(0.000000,1280.000000) scale(0.100000,-0.100000)">
			<path class="st7" d="M3135.1,12798.7c-10.5-3.5-20-14.1-22.2-24.8c-4.3-20.6,16.3-41.3,37-37c15.5,3.2,27.5,19,26,34
				c-1.1,10.5-9,21.3-19,26.2C3150.7,12800,3141.3,12800.7,3135.1,12798.7z"/>
			<path class="st7" d="M3263.3,12798.7c-15.1-5-25.3-21.6-22.2-36.3c2.5-11.9,13.6-23,25.4-25.5c19.4-4.1,39.6,14.2,37.6,34
				c-1.1,10.5-9,21.3-19,26.2C3278.9,12800,3269.5,12800.7,3263.3,12798.7z"/>
			<path class="st7" d="M3391.5,12798.7c-10.5-3.5-20-14.1-22.2-24.8c-4.3-20.6,16.3-41.3,37-37c15.5,3.2,27.5,19,26,34
				c-1.1,10.5-9,21.3-19,26.2C3407.2,12800,3397.7,12800.7,3391.5,12798.7z"/>
			<path class="st7" d="M3519.7,12798.7c-10.5-3.5-20-14.1-22.2-24.8c-4.3-20.6,16.3-41.3,37-37c15.5,3.2,27.5,19,26,34
				c-1.1,10.5-9,21.3-19,26.2C3535.4,12800,3526,12800.7,3519.7,12798.7z"/>
			<path class="st7" d="M3648,12798.7c-10.5-3.5-20-14.1-22.2-24.8c-4.3-20.6,16.3-41.3,37-37c15.5,3.2,27.5,19,26,34
				c-1.1,10.5-9,21.3-19,26.2C3663.6,12800,3654.2,12800.7,3648,12798.7z"/>
			<path class="st7" d="M3776.2,12798.7c-10.5-3.5-20-14.1-22.2-24.8c-4.3-20.6,16.3-41.3,37-37c15.5,3.2,27.5,19,26,34
				c-1.1,10.5-9,21.3-19,26.2C3791.8,12800,3782.4,12800.7,3776.2,12798.7z"/>
			<path class="st7" d="M3904.4,12798.7c-10.5-3.5-20-14.1-22.2-24.8c-4.3-20.6,16.3-41.3,37-37c15.5,3.2,27.5,19,26,34
				c-1.1,10.5-9,21.3-19,26.2C3920.1,12800,3910.6,12800.7,3904.4,12798.7z"/>
			<path class="st7" d="M4032.7,12798.7c-10.5-3.5-20-14.1-22.2-24.8c-4.3-20.6,16.3-41.3,37-37c15.5,3.2,27.5,19,26,34
				c-1.1,10.5-9,21.3-19,26.2C4048.3,12800,4038.9,12800.7,4032.7,12798.7z"/>
			<path class="st7" d="M4160.9,12798.7c-10.5-3.5-20-14.1-22.2-24.8c-2.5-11.7,3.2-24.4,14.2-32c10.7-7.4,22.9-7.5,33.8-0.3
				c17.7,11.8,20.1,33.9,5.3,48.6C4183.4,12798.8,4171.2,12802.1,4160.9,12798.7z"/>
			<path class="st7" d="M4289.1,12798.7c-10.5-3.5-20-14.1-22.2-24.8c-2.5-11.7,3.2-24.4,14.2-32c10.7-7.4,22.9-7.5,33.8-0.3
				c17.7,11.8,20.1,33.9,5.3,48.6C4311.6,12798.8,4299.4,12802.1,4289.1,12798.7z"/>
			<path class="st7" d="M3135.1,12670.4c-10.5-3.5-20-14.1-22.2-24.8c-4.3-20.6,16.3-41.3,37-37c15.5,3.2,27.5,19,26,34
				c-1.1,10.5-9,21.3-19,26.2C3150.7,12671.7,3141.3,12672.4,3135.1,12670.4z"/>
			<path class="st7" d="M3263.3,12670.4c-15.1-5-25.3-21.6-22.2-36.3c2.5-11.9,13.6-23,25.4-25.5c19.4-4.1,39.6,14.2,37.6,34
				c-1.1,10.5-9,21.3-19,26.2C3278.9,12671.7,3269.5,12672.4,3263.3,12670.4z"/>
			<path class="st7" d="M3391.5,12670.4c-10.5-3.5-20-14.1-22.2-24.8c-4.3-20.6,16.3-41.3,37-37c15.5,3.2,27.5,19,26,34
				c-1.1,10.5-9,21.3-19,26.2C3407.2,12671.7,3397.7,12672.4,3391.5,12670.4z"/>
			<path class="st7" d="M3519.7,12670.4c-10.5-3.5-20-14.1-22.2-24.8c-4.3-20.6,16.3-41.3,37-37c15.5,3.2,27.5,19,26,34
				c-1.1,10.5-9,21.3-19,26.2C3535.4,12671.7,3526,12672.4,3519.7,12670.4z"/>
			<path class="st7" d="M3648,12670.4c-10.5-3.5-20-14.1-22.2-24.8c-4.3-20.6,16.3-41.3,37-37c15.5,3.2,27.5,19,26,34
				c-1.1,10.5-9,21.3-19,26.2C3663.6,12671.7,3654.2,12672.4,3648,12670.4z"/>
			<path class="st7" d="M3776.2,12670.4c-10.5-3.5-20-14.1-22.2-24.8c-4.3-20.6,16.3-41.3,37-37c15.5,3.2,27.5,19,26,34
				c-1.1,10.5-9,21.3-19,26.2C3791.8,12671.7,3782.4,12672.4,3776.2,12670.4z"/>
			<path class="st7" d="M3904.4,12670.4c-10.5-3.5-20-14.1-22.2-24.8c-4.3-20.6,16.3-41.3,37-37c15.5,3.2,27.5,19,26,34
				c-1.1,10.5-9,21.3-19,26.2C3920.1,12671.7,3910.6,12672.4,3904.4,12670.4z"/>
			<path class="st7" d="M4032.7,12670.4c-10.5-3.5-20-14.1-22.2-24.8c-4.3-20.6,16.3-41.3,37-37c15.5,3.2,27.5,19,26,34
				c-1.1,10.5-9,21.3-19,26.2C4048.3,12671.7,4038.9,12672.4,4032.7,12670.4z"/>
			<path class="st7" d="M4160.9,12670.4c-10.5-3.5-20-14.1-22.2-24.8c-2.5-11.7,3.2-24.4,14.2-32c10.7-7.4,22.9-7.5,33.8-0.3
				c17.7,11.8,20.1,33.9,5.3,48.6C4183.4,12670.5,4171.2,12673.8,4160.9,12670.4z"/>
			<path class="st7" d="M4289.1,12670.4c-10.5-3.5-20-14.1-22.2-24.8c-2.5-11.7,3.2-24.4,14.2-32c10.7-7.4,22.9-7.5,33.8-0.3
				c17.7,11.8,20.1,33.9,5.3,48.6C4311.6,12670.5,4299.4,12673.8,4289.1,12670.4z"/>
			<path class="st7" d="M3135.1,12542.2c-10.5-3.5-20-14.1-22.2-24.8c-4.3-20.6,16.3-41.3,37-37c15.5,3.2,27.5,19,26,34
				c-1.1,10.5-9,21.3-19,26.2C3150.7,12543.5,3141.3,12544.2,3135.1,12542.2z"/>
			<path class="st7" d="M3263.3,12542.2c-10.5-3.5-20-14.1-22.2-24.8c-4.3-20.6,16.3-41.3,37-37c15.5,3.2,27.5,19,26,34
				c-1.1,10.5-9,21.3-19,26.2C3278.9,12543.5,3269.5,12544.2,3263.3,12542.2z"/>
			<path class="st7" d="M3391.5,12542.2c-10.5-3.5-20-14.1-22.2-24.8c-4.3-20.6,16.3-41.3,37-37c15.5,3.2,27.5,19,26,34
				c-1.1,10.5-9,21.3-19,26.2C3407.2,12543.5,3397.7,12544.2,3391.5,12542.2z"/>
			<path class="st7" d="M3519.7,12542.2c-10.5-3.5-20-14.1-22.2-24.8c-4.3-20.6,16.3-41.3,37-37c15.5,3.2,27.5,19,26,34
				c-1.1,10.5-9,21.3-19,26.2C3535.4,12543.5,3526,12544.2,3519.7,12542.2z"/>
			<path class="st7" d="M3648,12542.2c-10.5-3.5-20-14.1-22.2-24.8c-4.3-20.6,16.3-41.3,37-37c15.5,3.2,27.5,19,26,34
				c-1.1,10.5-9,21.3-19,26.2C3663.6,12543.5,3654.2,12544.2,3648,12542.2z"/>
			<path class="st7" d="M3776.2,12542.2c-10.5-3.5-20-14.1-22.2-24.8c-4.3-20.6,16.3-41.3,37-37c15.5,3.2,27.5,19,26,34
				c-1.1,10.5-9,21.3-19,26.2C3791.8,12543.5,3782.4,12544.2,3776.2,12542.2z"/>
			<path class="st7" d="M3904.4,12542.2c-10.5-3.5-20-14.1-22.2-24.8c-4.3-20.6,16.3-41.3,37-37c15.5,3.2,27.5,19,26,34
				c-1.1,10.5-9,21.3-19,26.2C3920.1,12543.5,3910.6,12544.2,3904.4,12542.2z"/>
			<path class="st7" d="M4032.7,12542.2c-10.5-3.5-20-14.1-22.2-24.8c-4.3-20.6,16.3-41.3,37-37c15.5,3.2,27.5,19,26,34
				c-1.1,10.5-9,21.3-19,26.2C4048.3,12543.5,4038.9,12544.2,4032.7,12542.2z"/>
			<path class="st7" d="M4160.9,12542.2c-10.5-3.5-20-14.1-22.2-24.8c-4.3-20.6,16.3-41.3,37-37c15.5,3.2,27.5,19,26,34
				c-1.1,10.5-9,21.3-19,26.2C4176.5,12543.5,4167.1,12544.2,4160.9,12542.2z"/>
			<path class="st7" d="M4289.1,12542.2c-10.5-3.5-20-14.1-22.2-24.8c-4.3-20.6,16.3-41.3,37-37c15.5,3.2,27.5,19,26,34
				c-1.1,10.5-9,21.3-19,26.2C4304.7,12543.5,4295.3,12544.2,4289.1,12542.2z"/>
			<path class="st7" d="M3135.1,12414c-10.5-3.5-20-14.1-22.2-24.8c-4.3-20.6,16.3-41.3,37-37c15.5,3.2,27.5,19,26,34
				c-1.1,10.5-9,21.3-19,26.2C3150.7,12415.3,3141.3,12416,3135.1,12414z"/>
			<path class="st7" d="M3263.3,12414c-10.5-3.5-20-14.1-22.2-24.8c-4.3-20.6,16.3-41.3,37-37c15.5,3.2,27.5,19,26,34
				c-1.1,10.5-9,21.3-19,26.2C3278.9,12415.3,3269.5,12416,3263.3,12414z"/>
			<path class="st7" d="M3391.5,12414c-10.5-3.5-20-14.1-22.2-24.8c-4.3-20.6,16.3-41.3,37-37c15.5,3.2,27.5,19,26,34
				c-1.1,10.5-9,21.3-19,26.2C3407.2,12415.3,3397.7,12416,3391.5,12414z"/>
			<path class="st7" d="M3519.7,12414c-10.5-3.5-20-14.1-22.2-24.8c-4.3-20.6,16.3-41.3,37-37c15.5,3.2,27.5,19,26,34
				c-1.1,10.5-9,21.3-19,26.2C3535.4,12415.3,3526,12416,3519.7,12414z"/>
			<path class="st7" d="M3648,12414c-10.5-3.5-20-14.1-22.2-24.8c-4.3-20.6,16.3-41.3,37-37c15.5,3.2,27.5,19,26,34
				c-1.1,10.5-9,21.3-19,26.2C3663.6,12415.3,3654.2,12416,3648,12414z"/>
			<path class="st7" d="M3776.2,12414c-10.5-3.5-20-14.1-22.2-24.8c-4.3-20.6,16.3-41.3,37-37c15.5,3.2,27.5,19,26,34
				c-1.1,10.5-9,21.3-19,26.2C3791.8,12415.3,3782.4,12416,3776.2,12414z"/>
			<path class="st7" d="M3904.4,12414c-10.5-3.5-20-14.1-22.2-24.8c-4.3-20.6,16.3-41.3,37-37c15.5,3.2,27.5,19,26,34
				c-1.1,10.5-9,21.3-19,26.2C3920.1,12415.3,3910.6,12416,3904.4,12414z"/>
			<path class="st7" d="M4032.7,12414c-10.5-3.5-20-14.1-22.2-24.8c-4.3-20.6,16.3-41.3,37-37c15.5,3.2,27.5,19,26,34
				c-1.1,10.5-9,21.3-19,26.2C4048.3,12415.3,4038.9,12416,4032.7,12414z"/>
			<path class="st7" d="M4160.9,12414c-10.5-3.5-20-14.1-22.2-24.8c-4.3-20.6,16.3-41.3,37-37c15.5,3.2,27.5,19,26,34
				c-1.1,10.5-9,21.3-19,26.2C4176.5,12415.3,4167.1,12416,4160.9,12414z"/>
			<path class="st7" d="M4289.1,12414c-10.5-3.5-20-14.1-22.2-24.8c-4.3-20.6,16.3-41.3,37-37c15.5,3.2,27.5,19,26,34
				c-1.1,10.5-9,21.3-19,26.2C4304.7,12415.3,4295.3,12416,4289.1,12414z"/>
			<path class="st7" d="M3135.1,12285.7c-10.5-3.5-20-14.1-22.2-24.8c-4.3-20.6,16.3-41.3,37-37c15.5,3.2,27.5,19,26,34
				c-1.1,10.5-9,21.3-19,26.2C3150.7,12287.1,3141.3,12287.8,3135.1,12285.7z"/>
			<path class="st7" d="M3263.3,12285.7c-10.5-3.5-20-14.1-22.2-24.8c-4.3-20.6,16.3-41.3,37-37c15.5,3.2,27.5,19,26,34
				c-1.1,10.5-9,21.3-19,26.2C3278.9,12287.1,3269.5,12287.8,3263.3,12285.7z"/>
			<path class="st7" d="M3391.5,12285.7c-10.5-3.5-20-14.1-22.2-24.8c-4.3-20.6,16.3-41.3,37-37c15.5,3.2,27.5,19,26,34
				c-1.1,10.5-9,21.3-19,26.2C3407.2,12287.1,3397.7,12287.8,3391.5,12285.7z"/>
			<path class="st7" d="M3519.7,12285.7c-10.5-3.5-20-14.1-22.2-24.8c-4.3-20.6,16.3-41.3,37-37c15.5,3.2,27.5,19,26,34
				c-1.1,10.5-9,21.3-19,26.2C3535.4,12287.1,3526,12287.8,3519.7,12285.7z"/>
			<path class="st7" d="M3648,12285.7c-10.5-3.5-20-14.1-22.2-24.8c-4.3-20.6,16.3-41.3,37-37c15.5,3.2,27.5,19,26,34
				c-1.1,10.5-9,21.3-19,26.2C3663.6,12287.1,3654.2,12287.8,3648,12285.7z"/>
			<path class="st7" d="M3776.2,12285.7c-10.5-3.5-20-14.1-22.2-24.8c-4.3-20.6,16.3-41.3,37-37c15.5,3.2,27.5,19,26,34
				c-1.1,10.5-9,21.3-19,26.2C3791.8,12287.1,3782.4,12287.8,3776.2,12285.7z"/>
			<path class="st7" d="M3904.4,12285.7c-10.5-3.5-20-14.1-22.2-24.8c-4.3-20.6,16.3-41.3,37-37c15.5,3.2,27.5,19,26,34
				c-1.1,10.5-9,21.3-19,26.2C3920.1,12287.1,3910.6,12287.8,3904.4,12285.7z"/>
			<path class="st7" d="M4032.7,12285.7c-10.5-3.5-20-14.1-22.2-24.8c-4.3-20.6,16.3-41.3,37-37c15.5,3.2,27.5,19,26,34
				c-1.1,10.5-9,21.3-19,26.2C4048.3,12287.1,4038.9,12287.8,4032.7,12285.7z"/>
			<path class="st7" d="M4160.9,12285.7c-10.5-3.5-20-14.1-22.2-24.8c-4.3-20.6,16.3-41.3,37-37c15.5,3.2,27.5,19,26,34
				c-1.1,10.5-9,21.3-19,26.2C4176.5,12287.1,4167.1,12287.8,4160.9,12285.7z"/>
			<path class="st7" d="M4289.1,12285.7c-10.5-3.5-20-14.1-22.2-24.8c-4.3-20.6,16.3-41.3,37-37c15.5,3.2,27.5,19,26,34
				c-1.1,10.5-9,21.3-19,26.2C4304.7,12287.1,4295.3,12287.8,4289.1,12285.7z"/>
			<path class="st7" d="M3135.1,12157.5c-10.5-3.5-20-14.1-22.2-24.8c-4.3-20.6,16.3-41.3,37-37c15.5,3.2,27.5,19,26,34
				c-1.1,10.5-9,21.3-19,26.2C3150.7,12158.8,3141.3,12159.5,3135.1,12157.5z"/>
			<path class="st7" d="M3263.3,12157.5c-10.5-3.5-20-14.1-22.2-24.8c-4.3-20.6,16.3-41.3,37-37c15.5,3.2,27.5,19,26,34
				c-1.1,10.5-9,21.3-19,26.2C3278.9,12158.8,3269.5,12159.5,3263.3,12157.5z"/>
			<path class="st7" d="M3391.5,12157.5c-10.5-3.5-20-14.1-22.2-24.8c-4.3-20.6,16.3-41.3,37-37c15.5,3.2,27.5,19,26,34
				c-1.1,10.5-9,21.3-19,26.2C3407.2,12158.8,3397.7,12159.5,3391.5,12157.5z"/>
			<path class="st7" d="M3519.7,12157.5c-10.5-3.5-20-14.1-22.2-24.8c-4.3-20.6,16.3-41.3,37-37c15.5,3.2,27.5,19,26,34
				c-1.1,10.5-9,21.3-19,26.2C3535.4,12158.8,3526,12159.5,3519.7,12157.5z"/>
			<path class="st7" d="M3648,12157.5c-10.5-3.5-20-14.1-22.2-24.8c-4.3-20.6,16.3-41.3,37-37c15.5,3.2,27.5,19,26,34
				c-1.1,10.5-9,21.3-19,26.2C3663.6,12158.8,3654.2,12159.5,3648,12157.5z"/>
			<path class="st7" d="M3776.2,12157.5c-10.5-3.5-20-14.1-22.2-24.8c-4.3-20.6,16.3-41.3,37-37c15.5,3.2,27.5,19,26,34
				c-1.1,10.5-9,21.3-19,26.2C3791.8,12158.8,3782.4,12159.5,3776.2,12157.5z"/>
			<path class="st7" d="M3904.4,12157.5c-10.5-3.5-20-14.1-22.2-24.8c-4.3-20.6,16.3-41.3,37-37c15.5,3.2,27.5,19,26,34
				c-1.1,10.5-9,21.3-19,26.2C3920.1,12158.8,3910.6,12159.5,3904.4,12157.5z"/>
			<path class="st7" d="M4032.7,12157.5c-10.5-3.5-20-14.1-22.2-24.8c-4.3-20.6,16.3-41.3,37-37c15.5,3.2,27.5,19,26,34
				c-1.1,10.5-9,21.3-19,26.2C4048.3,12158.8,4038.9,12159.5,4032.7,12157.5z"/>
			<path class="st7" d="M4160.9,12157.5c-10.5-3.5-20-14.1-22.2-24.8c-4.3-20.6,16.3-41.3,37-37c15.5,3.2,27.5,19,26,34
				c-1.1,10.5-9,21.3-19,26.2C4176.5,12158.8,4167.1,12159.5,4160.9,12157.5z"/>
			<path class="st7" d="M4289.1,12157.5c-10.5-3.5-20-14.1-22.2-24.8c-4.3-20.6,16.3-41.3,37-37c15.5,3.2,27.5,19,26,34
				c-1.1,10.5-9,21.3-19,26.2C4304.7,12158.8,4295.3,12159.5,4289.1,12157.5z"/>
			<path class="st7" d="M3135.1,12029.3c-10.5-3.5-20-14.1-22.2-24.8c-4.3-20.6,16.3-41.3,37-37c15.5,3.2,27.5,19,26,34
				c-1.1,10.5-9,21.3-19,26.2C3150.7,12030.6,3141.3,12031.3,3135.1,12029.3z"/>
			<path class="st7" d="M3263.3,12029.3c-10.5-3.5-20-14.1-22.2-24.8c-4.3-20.6,16.3-41.3,37-37c15.5,3.2,27.5,19,26,34
				c-1.1,10.5-9,21.3-19,26.2C3278.9,12030.6,3269.5,12031.3,3263.3,12029.3z"/>
			<path class="st7" d="M3391.5,12029.3c-10.5-3.5-20-14.1-22.2-24.8c-2.5-11.7,3.2-24.4,14.2-32c10.7-7.4,22.9-7.5,33.8-0.3
				c17.7,11.8,20.1,33.9,5.3,48.6C3414.1,12029.4,3401.8,12032.7,3391.5,12029.3z"/>
			<path class="st7" d="M3519.7,12029.3c-10.5-3.5-20-14.1-22.2-24.8c-2.5-11.7,3.2-24.4,14.2-32c10.7-7.4,22.9-7.5,33.8-0.3
				c17.7,11.8,20.1,33.9,5.3,48.6C3542.3,12029.4,3530.1,12032.7,3519.7,12029.3z"/>
			<path class="st7" d="M3648,12029.3c-15.1-5-25.3-21.6-22.2-36.3c2.5-11.9,13.6-23,25.5-25.5c19.3-4.1,39.5,14.2,37.5,34
				c-1.1,10.5-9,21.3-19,26.2C3663.6,12030.6,3654.2,12031.3,3648,12029.3z"/>
			<path class="st7" d="M3776.2,12029.3c-15.1-5-25.3-21.6-22.2-36.3c2.5-11.9,13.6-23,25.5-25.5c19.3-4.1,39.5,14.2,37.5,34
				c-1.1,10.5-9,21.3-19,26.2C3791.8,12030.6,3782.4,12031.3,3776.2,12029.3z"/>
			<path class="st7" d="M3904.4,12029.3c-15.1-5-25.3-21.6-22.2-36.3c2.5-11.9,13.6-23,25.5-25.5c19.3-4.1,39.5,14.2,37.5,34
				c-1.1,10.5-9,21.3-19,26.2C3920.1,12030.6,3910.6,12031.3,3904.4,12029.3z"/>
			<path class="st7" d="M4032.7,12029.3c-15.1-5-25.3-21.6-22.2-36.3c2.5-11.9,13.6-23,25.5-25.5c19.3-4.1,39.5,14.2,37.5,34
				c-1.1,10.5-9,21.3-19,26.2C4048.3,12030.6,4038.9,12031.3,4032.7,12029.3z"/>
			<path class="st7" d="M4160.9,12029.3c-10.5-3.5-20-14.1-22.2-24.8c-4.3-20.6,16.3-41.3,37-37c15.5,3.2,27.5,19,26,34
				c-1.1,10.5-9,21.3-19,26.2C4176.5,12030.6,4167.1,12031.3,4160.9,12029.3z"/>
			<path class="st7" d="M4289.1,12029.3c-10.5-3.5-20-14.1-22.2-24.8c-4.3-20.6,16.3-41.3,37-37c15.5,3.2,27.5,19,26,34
				c-1.1,10.5-9,21.3-19,26.2C4304.7,12030.6,4295.3,12031.3,4289.1,12029.3z"/>
			<path class="st7" d="M3135.1,11901.1c-10.5-3.5-20-14.1-22.2-24.8c-4.3-20.6,16.3-41.3,37-37c15.5,3.2,27.5,19,26,34
				c-1.1,10.5-9,21.3-19,26.2C3150.7,11902.4,3141.3,11903.1,3135.1,11901.1z"/>
			<path class="st7" d="M3263.3,11901.1c-10.5-3.5-20-14.1-22.2-24.8c-4.3-20.6,16.3-41.3,37-37c15.5,3.2,27.5,19,26,34
				c-1.1,10.5-9,21.3-19,26.2C3278.9,11902.4,3269.5,11903.1,3263.3,11901.1z"/>
			<path class="st7" d="M3391.5,11901.1c-10.5-3.5-20-14.1-22.2-24.8c-2.5-11.7,3.2-24.4,14.2-32c10.7-7.4,22.9-7.5,33.8-0.3
				c17.7,11.8,20.1,33.9,5.3,48.6C3414.1,11901.2,3401.8,11904.5,3391.5,11901.1z"/>
			<path class="st7" d="M3519.7,11901.1c-10.5-3.5-20-14.1-22.2-24.8c-2.5-11.7,3.2-24.4,14.2-32c10.7-7.4,22.9-7.5,33.8-0.3
				c17.7,11.8,20.1,33.9,5.3,48.6C3542.3,11901.2,3530.1,11904.5,3519.7,11901.1z"/>
			<path class="st7" d="M3648,11901.1c-15.1-5-25.3-21.6-22.2-36.3c2.5-11.9,13.6-23,25.5-25.5c19.3-4.1,39.5,14.2,37.5,34
				c-1.1,10.5-9,21.3-19,26.2C3663.6,11902.4,3654.2,11903.1,3648,11901.1z"/>
			<path class="st7" d="M3776.2,11901.1c-15.1-5-25.3-21.6-22.2-36.3c2.5-11.9,13.6-23,25.5-25.5c19.3-4.1,39.5,14.2,37.5,34
				c-1.1,10.5-9,21.3-19,26.2C3791.8,11902.4,3782.4,11903.1,3776.2,11901.1z"/>
			<path class="st7" d="M3904.4,11901.1c-15.1-5-25.3-21.6-22.2-36.3c2.5-11.9,13.6-23,25.5-25.5c19.3-4.1,39.5,14.2,37.5,34
				c-1.1,10.5-9,21.3-19,26.2C3920.1,11902.4,3910.6,11903.1,3904.4,11901.1z"/>
			<path class="st7" d="M4032.7,11901.1c-15.1-5-25.3-21.6-22.2-36.3c2.5-11.9,13.6-23,25.5-25.5c19.3-4.1,39.5,14.2,37.5,34
				c-1.1,10.5-9,21.3-19,26.2C4048.3,11902.4,4038.9,11903.1,4032.7,11901.1z"/>
			<path class="st7" d="M4160.9,11901.1c-10.5-3.5-20-14.1-22.2-24.8c-4.3-20.6,16.3-41.3,37-37c15.5,3.2,27.5,19,26,34
				c-1.1,10.5-9,21.3-19,26.2C4176.5,11902.4,4167.1,11903.1,4160.9,11901.1z"/>
			<path class="st7" d="M4289.1,11901.1c-10.5-3.5-20-14.1-22.2-24.8c-4.3-20.6,16.3-41.3,37-37c15.5,3.2,27.5,19,26,34
				c-1.1,10.5-9,21.3-19,26.2C4304.7,11902.4,4295.3,11903.1,4289.1,11901.1z"/>
			<path class="st7" d="M3135.1,11772.8c-10.5-3.5-20-14.1-22.2-24.8c-4.3-20.6,16.3-41.3,37-37c15.5,3.2,27.5,19,26,34
				c-1.1,10.5-9,21.3-19,26.2C3150.7,11774.1,3141.3,11774.9,3135.1,11772.8z"/>
			<path class="st7" d="M3263.3,11772.8c-10.5-3.5-20-14.1-22.2-24.8c-4.3-20.6,16.3-41.3,37-37c15.5,3.2,27.5,19,26,34
				c-1.1,10.5-9,21.3-19,26.2C3278.9,11774.1,3269.5,11774.9,3263.3,11772.8z"/>
			<path class="st7" d="M3391.5,11772.8c-10.5-3.5-20-14.1-22.2-24.8c-2.5-11.7,3.2-24.4,14.2-32c10.7-7.4,22.9-7.5,33.8-0.3
				c17.7,11.8,20.1,33.9,5.3,48.6C3414.1,11772.9,3401.8,11776.3,3391.5,11772.8z"/>
			<path class="st7" d="M3519.7,11772.8c-10.5-3.5-20-14.1-22.2-24.8c-2.5-11.7,3.2-24.4,14.2-32c10.7-7.4,22.9-7.5,33.8-0.3
				c17.7,11.8,20.1,33.9,5.3,48.6C3542.3,11772.9,3530.1,11776.3,3519.7,11772.8z"/>
			<path class="st7" d="M3648,11772.8c-10.5-3.5-20-14.1-22.2-24.8c-4.3-20.6,16.3-41.3,37-37c15.5,3.2,27.5,19,26,34
				c-1.1,10.5-9,21.3-19,26.2C3663.6,11774.1,3654.2,11774.9,3648,11772.8z"/>
			<path class="st7" d="M3776.2,11772.8c-10.5-3.5-20-14.1-22.2-24.8c-4.3-20.6,16.3-41.3,37-37c15.5,3.2,27.5,19,26,34
				c-1.1,10.5-9,21.3-19,26.2C3791.8,11774.1,3782.4,11774.9,3776.2,11772.8z"/>
			<path class="st7" d="M3904.4,11772.8c-10.5-3.5-20-14.1-22.2-24.8c-4.3-20.6,16.3-41.3,37-37c15.5,3.2,27.5,19,26,34
				c-1.1,10.5-9,21.3-19,26.2C3920.1,11774.1,3910.6,11774.9,3904.4,11772.8z"/>
			<path class="st7" d="M4032.7,11772.8c-10.5-3.5-20-14.1-22.2-24.8c-4.3-20.6,16.3-41.3,37-37c15.5,3.2,27.5,19,26,34
				c-1.1,10.5-9,21.3-19,26.2C4048.3,11774.1,4038.9,11774.9,4032.7,11772.8z"/>
			<path class="st7" d="M4160.9,11772.8c-10.5-3.5-20-14.1-22.2-24.8c-4.3-20.6,16.3-41.3,37-37c15.5,3.2,27.5,19,26,34
				c-1.1,10.5-9,21.3-19,26.2C4176.5,11774.1,4167.1,11774.9,4160.9,11772.8z"/>
			<path class="st7" d="M4289.1,11772.8c-10.5-3.5-20-14.1-22.2-24.8c-4.3-20.6,16.3-41.3,37-37c15.5,3.2,27.5,19,26,34
				c-1.1,10.5-9,21.3-19,26.2C4304.7,11774.1,4295.3,11774.9,4289.1,11772.8z"/>
			<path class="st7" d="M3135.1,11644.6c-10.5-3.5-20-14.1-22.2-24.8c-4.3-20.6,16.3-41.3,37-37c15.5,3.2,27.5,19,26,34
				c-1.1,10.5-9,21.3-19,26.2C3150.7,11645.9,3141.3,11646.6,3135.1,11644.6z"/>
			<path class="st7" d="M3263.3,11644.6c-10.5-3.5-20-14.1-22.2-24.8c-4.3-20.6,16.3-41.3,37-37c15.5,3.2,27.5,19,26,34
				c-1.1,10.5-9,21.3-19,26.2C3278.9,11645.9,3269.5,11646.6,3263.3,11644.6z"/>
			<path class="st7" d="M3391.5,11644.6c-10.5-3.5-20-14.1-22.2-24.8c-4.3-20.6,16.3-41.3,37-37c15.5,3.2,27.5,19,26,34
				c-1.1,10.5-9,21.3-19,26.2C3407.2,11645.9,3397.7,11646.6,3391.5,11644.6z"/>
			<path class="st7" d="M3519.7,11644.6c-10.5-3.5-20-14.1-22.2-24.8c-4.3-20.6,16.3-41.3,37-37c15.5,3.2,27.5,19,26,34
				c-1.1,10.5-9,21.3-19,26.2C3535.4,11645.9,3526,11646.6,3519.7,11644.6z"/>
			<path class="st7" d="M3648,11644.6c-10.5-3.5-20-14.1-22.2-24.8c-4.3-20.6,16.3-41.3,37-37c15.5,3.2,27.5,19,26,34
				c-1.1,10.5-9,21.3-19,26.2C3663.6,11645.9,3654.2,11646.6,3648,11644.6z"/>
			<path class="st7" d="M3776.2,11644.6c-10.5-3.5-20-14.1-22.2-24.8c-4.3-20.6,16.3-41.3,37-37c15.5,3.2,27.5,19,26,34
				c-1.1,10.5-9,21.3-19,26.2C3791.8,11645.9,3782.4,11646.6,3776.2,11644.6z"/>
			<path class="st7" d="M3904.4,11644.6c-10.5-3.5-20-14.1-22.2-24.8c-4.3-20.6,16.3-41.3,37-37c15.5,3.2,27.5,19,26,34
				c-1.1,10.5-9,21.3-19,26.2C3920.1,11645.9,3910.6,11646.6,3904.4,11644.6z"/>
			<path class="st7" d="M4032.7,11644.6c-10.5-3.5-20-14.1-22.2-24.8c-4.3-20.6,16.3-41.3,37-37c15.5,3.2,27.5,19,26,34
				c-1.1,10.5-9,21.3-19,26.2C4048.3,11645.9,4038.9,11646.6,4032.7,11644.6z"/>
			<path class="st7" d="M4160.9,11644.6c-10.5-3.5-20-14.1-22.2-24.8c-4.3-20.6,16.3-41.3,37-37c15.5,3.2,27.5,19,26,34
				c-1.1,10.5-9,21.3-19,26.2C4176.5,11645.9,4167.1,11646.6,4160.9,11644.6z"/>
			<path class="st7" d="M4289.1,11644.6c-10.5-3.5-20-14.1-22.2-24.8c-4.3-20.6,16.3-41.3,37-37c15.5,3.2,27.5,19,26,34
				c-1.1,10.5-9,21.3-19,26.2C4304.7,11645.9,4295.3,11646.6,4289.1,11644.6z"/>
		</g>
		<g transform="translate(0.000000,1280.000000) scale(0.100000,-0.100000)">
			<path class="st7" d="M3135.1,11528.7c-10.5-3.5-20-14.1-22.2-24.8c-4.3-20.6,16.3-41.3,37-37c15.5,3.2,27.5,19,26,34
				c-1.1,10.5-9,21.3-19,26.2C3150.7,11530,3141.3,11530.7,3135.1,11528.7z"/>
			<path class="st7" d="M3263.3,11528.7c-15.1-5-25.3-21.6-22.2-36.3c2.5-11.9,13.6-23,25.4-25.5c19.4-4.1,39.6,14.2,37.6,34
				c-1.1,10.5-9,21.3-19,26.2C3278.9,11530,3269.5,11530.7,3263.3,11528.7z"/>
			<path class="st7" d="M3391.5,11528.7c-10.5-3.5-20-14.1-22.2-24.8c-4.3-20.6,16.3-41.3,37-37c15.5,3.2,27.5,19,26,34
				c-1.1,10.5-9,21.3-19,26.2C3407.2,11530,3397.7,11530.7,3391.5,11528.7z"/>
			<path class="st7" d="M3519.7,11528.7c-10.5-3.5-20-14.1-22.2-24.8c-4.3-20.6,16.3-41.3,37-37c15.5,3.2,27.5,19,26,34
				c-1.1,10.5-9,21.3-19,26.2C3535.4,11530,3526,11530.7,3519.7,11528.7z"/>
			<path class="st7" d="M3648,11528.7c-10.5-3.5-20-14.1-22.2-24.8c-4.3-20.6,16.3-41.3,37-37c15.5,3.2,27.5,19,26,34
				c-1.1,10.5-9,21.3-19,26.2C3663.6,11530,3654.2,11530.7,3648,11528.7z"/>
			<path class="st7" d="M3776.2,11528.7c-10.5-3.5-20-14.1-22.2-24.8c-4.3-20.6,16.3-41.3,37-37c15.5,3.2,27.5,19,26,34
				c-1.1,10.5-9,21.3-19,26.2C3791.8,11530,3782.4,11530.7,3776.2,11528.7z"/>
			<path class="st7" d="M3904.4,11528.7c-10.5-3.5-20-14.1-22.2-24.8c-4.3-20.6,16.3-41.3,37-37c15.5,3.2,27.5,19,26,34
				c-1.1,10.5-9,21.3-19,26.2C3920.1,11530,3910.6,11530.7,3904.4,11528.7z"/>
			<path class="st7" d="M4032.7,11528.7c-10.5-3.5-20-14.1-22.2-24.8c-4.3-20.6,16.3-41.3,37-37c15.5,3.2,27.5,19,26,34
				c-1.1,10.5-9,21.3-19,26.2C4048.3,11530,4038.9,11530.7,4032.7,11528.7z"/>
			<path class="st7" d="M4160.9,11528.7c-10.5-3.5-20-14.1-22.2-24.8c-2.5-11.7,3.2-24.4,14.2-32c10.7-7.4,22.9-7.5,33.8-0.3
				c17.7,11.8,20.1,33.9,5.3,48.6C4183.4,11528.8,4171.2,11532.1,4160.9,11528.7z"/>
			<path class="st7" d="M4289.1,11528.7c-10.5-3.5-20-14.1-22.2-24.8c-2.5-11.7,3.2-24.4,14.2-32c10.7-7.4,22.9-7.5,33.8-0.3
				c17.7,11.8,20.1,33.9,5.3,48.6C4311.6,11528.8,4299.4,11532.1,4289.1,11528.7z"/>
			<path class="st7" d="M3135.1,11400.4c-10.5-3.5-20-14.1-22.2-24.8c-4.3-20.6,16.3-41.3,37-37c15.5,3.2,27.5,19,26,34
				c-1.1,10.5-9,21.3-19,26.2C3150.7,11401.7,3141.3,11402.4,3135.1,11400.4z"/>
			<path class="st7" d="M3263.3,11400.4c-15.1-5-25.3-21.6-22.2-36.3c2.5-11.9,13.6-23,25.4-25.5c19.4-4.1,39.6,14.2,37.6,34
				c-1.1,10.5-9,21.3-19,26.2C3278.9,11401.7,3269.5,11402.4,3263.3,11400.4z"/>
			<path class="st7" d="M3391.5,11400.4c-10.5-3.5-20-14.1-22.2-24.8c-4.3-20.6,16.3-41.3,37-37c15.5,3.2,27.5,19,26,34
				c-1.1,10.5-9,21.3-19,26.2C3407.2,11401.7,3397.7,11402.4,3391.5,11400.4z"/>
			<path class="st7" d="M3519.7,11400.4c-10.5-3.5-20-14.1-22.2-24.8c-4.3-20.6,16.3-41.3,37-37c15.5,3.2,27.5,19,26,34
				c-1.1,10.5-9,21.3-19,26.2C3535.4,11401.7,3526,11402.4,3519.7,11400.4z"/>
			<path class="st7" d="M3648,11400.4c-10.5-3.5-20-14.1-22.2-24.8c-4.3-20.6,16.3-41.3,37-37c15.5,3.2,27.5,19,26,34
				c-1.1,10.5-9,21.3-19,26.2C3663.6,11401.7,3654.2,11402.4,3648,11400.4z"/>
			<path class="st7" d="M3776.2,11400.4c-10.5-3.5-20-14.1-22.2-24.8c-4.3-20.6,16.3-41.3,37-37c15.5,3.2,27.5,19,26,34
				c-1.1,10.5-9,21.3-19,26.2C3791.8,11401.7,3782.4,11402.4,3776.2,11400.4z"/>
			<path class="st7" d="M3904.4,11400.4c-10.5-3.5-20-14.1-22.2-24.8c-4.3-20.6,16.3-41.3,37-37c15.5,3.2,27.5,19,26,34
				c-1.1,10.5-9,21.3-19,26.2C3920.1,11401.7,3910.6,11402.4,3904.4,11400.4z"/>
			<path class="st7" d="M4032.7,11400.4c-10.5-3.5-20-14.1-22.2-24.8c-4.3-20.6,16.3-41.3,37-37c15.5,3.2,27.5,19,26,34
				c-1.1,10.5-9,21.3-19,26.2C4048.3,11401.7,4038.9,11402.4,4032.7,11400.4z"/>
			<path class="st7" d="M4160.9,11400.4c-10.5-3.5-20-14.1-22.2-24.8c-2.5-11.7,3.2-24.4,14.2-32c10.7-7.4,22.9-7.5,33.8-0.3
				c17.7,11.8,20.1,33.9,5.3,48.6C4183.4,11400.5,4171.2,11403.8,4160.9,11400.4z"/>
			<path class="st7" d="M4289.1,11400.4c-10.5-3.5-20-14.1-22.2-24.8c-2.5-11.7,3.2-24.4,14.2-32c10.7-7.4,22.9-7.5,33.8-0.3
				c17.7,11.8,20.1,33.9,5.3,48.6C4311.6,11400.5,4299.4,11403.8,4289.1,11400.4z"/>
			<path class="st7" d="M3135.1,11272.2c-10.5-3.5-20-14.1-22.2-24.8c-4.3-20.6,16.3-41.3,37-37c15.5,3.2,27.5,19,26,34
				c-1.1,10.5-9,21.3-19,26.2C3150.7,11273.5,3141.3,11274.2,3135.1,11272.2z"/>
			<path class="st7" d="M3263.3,11272.2c-10.5-3.5-20-14.1-22.2-24.8c-4.3-20.6,16.3-41.3,37-37c15.5,3.2,27.5,19,26,34
				c-1.1,10.5-9,21.3-19,26.2C3278.9,11273.5,3269.5,11274.2,3263.3,11272.2z"/>
			<path class="st7" d="M3391.5,11272.2c-10.5-3.5-20-14.1-22.2-24.8c-4.3-20.6,16.3-41.3,37-37c15.5,3.2,27.5,19,26,34
				c-1.1,10.5-9,21.3-19,26.2C3407.2,11273.5,3397.7,11274.2,3391.5,11272.2z"/>
			<path class="st7" d="M3519.7,11272.2c-10.5-3.5-20-14.1-22.2-24.8c-4.3-20.6,16.3-41.3,37-37c15.5,3.2,27.5,19,26,34
				c-1.1,10.5-9,21.3-19,26.2C3535.4,11273.5,3526,11274.2,3519.7,11272.2z"/>
			<path class="st7" d="M3648,11272.2c-10.5-3.5-20-14.1-22.2-24.8c-4.3-20.6,16.3-41.3,37-37c15.5,3.2,27.5,19,26,34
				c-1.1,10.5-9,21.3-19,26.2C3663.6,11273.5,3654.2,11274.2,3648,11272.2z"/>
			<path class="st7" d="M3776.2,11272.2c-10.5-3.5-20-14.1-22.2-24.8c-4.3-20.6,16.3-41.3,37-37c15.5,3.2,27.5,19,26,34
				c-1.1,10.5-9,21.3-19,26.2C3791.8,11273.5,3782.4,11274.2,3776.2,11272.2z"/>
			<path class="st7" d="M3904.4,11272.2c-10.5-3.5-20-14.1-22.2-24.8c-4.3-20.6,16.3-41.3,37-37c15.5,3.2,27.5,19,26,34
				c-1.1,10.5-9,21.3-19,26.2C3920.1,11273.5,3910.6,11274.2,3904.4,11272.2z"/>
			<path class="st7" d="M4032.7,11272.2c-10.5-3.5-20-14.1-22.2-24.8c-4.3-20.6,16.3-41.3,37-37c15.5,3.2,27.5,19,26,34
				c-1.1,10.5-9,21.3-19,26.2C4048.3,11273.5,4038.9,11274.2,4032.7,11272.2z"/>
			<path class="st7" d="M4160.9,11272.2c-10.5-3.5-20-14.1-22.2-24.8c-4.3-20.6,16.3-41.3,37-37c15.5,3.2,27.5,19,26,34
				c-1.1,10.5-9,21.3-19,26.2C4176.5,11273.5,4167.1,11274.2,4160.9,11272.2z"/>
			<path class="st7" d="M4289.1,11272.2c-10.5-3.5-20-14.1-22.2-24.8c-4.3-20.6,16.3-41.3,37-37c15.5,3.2,27.5,19,26,34
				c-1.1,10.5-9,21.3-19,26.2C4304.7,11273.5,4295.3,11274.2,4289.1,11272.2z"/>
			<path class="st7" d="M3135.1,11144c-10.5-3.5-20-14.1-22.2-24.8c-4.3-20.6,16.3-41.3,37-37c15.5,3.2,27.5,19,26,34
				c-1.1,10.5-9,21.3-19,26.2C3150.7,11145.3,3141.3,11146,3135.1,11144z"/>
			<path class="st7" d="M3263.3,11144c-10.5-3.5-20-14.1-22.2-24.8c-4.3-20.6,16.3-41.3,37-37c15.5,3.2,27.5,19,26,34
				c-1.1,10.5-9,21.3-19,26.2C3278.9,11145.3,3269.5,11146,3263.3,11144z"/>
			<path class="st7" d="M3391.5,11144c-10.5-3.5-20-14.1-22.2-24.8c-4.3-20.6,16.3-41.3,37-37c15.5,3.2,27.5,19,26,34
				c-1.1,10.5-9,21.3-19,26.2C3407.2,11145.3,3397.7,11146,3391.5,11144z"/>
			<path class="st7" d="M3519.7,11144c-10.5-3.5-20-14.1-22.2-24.8c-4.3-20.6,16.3-41.3,37-37c15.5,3.2,27.5,19,26,34
				c-1.1,10.5-9,21.3-19,26.2C3535.4,11145.3,3526,11146,3519.7,11144z"/>
			<path class="st7" d="M3648,11144c-10.5-3.5-20-14.1-22.2-24.8c-4.3-20.6,16.3-41.3,37-37c15.5,3.2,27.5,19,26,34
				c-1.1,10.5-9,21.3-19,26.2C3663.6,11145.3,3654.2,11146,3648,11144z"/>
			<path class="st7" d="M3776.2,11144c-10.5-3.5-20-14.1-22.2-24.8c-4.3-20.6,16.3-41.3,37-37c15.5,3.2,27.5,19,26,34
				c-1.1,10.5-9,21.3-19,26.2C3791.8,11145.3,3782.4,11146,3776.2,11144z"/>
			<path class="st7" d="M3904.4,11144c-10.5-3.5-20-14.1-22.2-24.8c-4.3-20.6,16.3-41.3,37-37c15.5,3.2,27.5,19,26,34
				c-1.1,10.5-9,21.3-19,26.2C3920.1,11145.3,3910.6,11146,3904.4,11144z"/>
			<path class="st7" d="M4032.7,11144c-10.5-3.5-20-14.1-22.2-24.8c-4.3-20.6,16.3-41.3,37-37c15.5,3.2,27.5,19,26,34
				c-1.1,10.5-9,21.3-19,26.2C4048.3,11145.3,4038.9,11146,4032.7,11144z"/>
			<path class="st7" d="M4160.9,11144c-10.5-3.5-20-14.1-22.2-24.8c-4.3-20.6,16.3-41.3,37-37c15.5,3.2,27.5,19,26,34
				c-1.1,10.5-9,21.3-19,26.2C4176.5,11145.3,4167.1,11146,4160.9,11144z"/>
			<path class="st7" d="M4289.1,11144c-10.5-3.5-20-14.1-22.2-24.8c-4.3-20.6,16.3-41.3,37-37c15.5,3.2,27.5,19,26,34
				c-1.1,10.5-9,21.3-19,26.2C4304.7,11145.3,4295.3,11146,4289.1,11144z"/>
			<path class="st7" d="M3135.1,11015.7c-10.5-3.5-20-14.1-22.2-24.8c-4.3-20.6,16.3-41.3,37-37c15.5,3.2,27.5,19,26,34
				c-1.1,10.5-9,21.3-19,26.2C3150.7,11017.1,3141.3,11017.8,3135.1,11015.7z"/>
			<path class="st7" d="M3263.3,11015.7c-10.5-3.5-20-14.1-22.2-24.8c-4.3-20.6,16.3-41.3,37-37c15.5,3.2,27.5,19,26,34
				c-1.1,10.5-9,21.3-19,26.2C3278.9,11017.1,3269.5,11017.8,3263.3,11015.7z"/>
			<path class="st7" d="M3391.5,11015.7c-10.5-3.5-20-14.1-22.2-24.8c-4.3-20.6,16.3-41.3,37-37c15.5,3.2,27.5,19,26,34
				c-1.1,10.5-9,21.3-19,26.2C3407.2,11017.1,3397.7,11017.8,3391.5,11015.7z"/>
			<path class="st7" d="M3519.7,11015.7c-10.5-3.5-20-14.1-22.2-24.8c-4.3-20.6,16.3-41.3,37-37c15.5,3.2,27.5,19,26,34
				c-1.1,10.5-9,21.3-19,26.2C3535.4,11017.1,3526,11017.8,3519.7,11015.7z"/>
			<path class="st7" d="M3648,11015.7c-10.5-3.5-20-14.1-22.2-24.8c-4.3-20.6,16.3-41.3,37-37c15.5,3.2,27.5,19,26,34
				c-1.1,10.5-9,21.3-19,26.2C3663.6,11017.1,3654.2,11017.8,3648,11015.7z"/>
			<path class="st7" d="M3776.2,11015.7c-10.5-3.5-20-14.1-22.2-24.8c-4.3-20.6,16.3-41.3,37-37c15.5,3.2,27.5,19,26,34
				c-1.1,10.5-9,21.3-19,26.2C3791.8,11017.1,3782.4,11017.8,3776.2,11015.7z"/>
			<path class="st7" d="M3904.4,11015.7c-10.5-3.5-20-14.1-22.2-24.8c-4.3-20.6,16.3-41.3,37-37c15.5,3.2,27.5,19,26,34
				c-1.1,10.5-9,21.3-19,26.2C3920.1,11017.1,3910.6,11017.8,3904.4,11015.7z"/>
			<path class="st7" d="M4032.7,11015.7c-10.5-3.5-20-14.1-22.2-24.8c-4.3-20.6,16.3-41.3,37-37c15.5,3.2,27.5,19,26,34
				c-1.1,10.5-9,21.3-19,26.2C4048.3,11017.1,4038.9,11017.8,4032.7,11015.7z"/>
			<path class="st7" d="M4160.9,11015.7c-10.5-3.5-20-14.1-22.2-24.8c-4.3-20.6,16.3-41.3,37-37c15.5,3.2,27.5,19,26,34
				c-1.1,10.5-9,21.3-19,26.2C4176.5,11017.1,4167.1,11017.8,4160.9,11015.7z"/>
			<path class="st7" d="M4289.1,11015.7c-10.5-3.5-20-14.1-22.2-24.8c-4.3-20.6,16.3-41.3,37-37c15.5,3.2,27.5,19,26,34
				c-1.1,10.5-9,21.3-19,26.2C4304.7,11017.1,4295.3,11017.8,4289.1,11015.7z"/>
			<path class="st7" d="M3135.1,10887.5c-10.5-3.5-20-14.1-22.2-24.8c-4.3-20.6,16.3-41.3,37-37c15.5,3.2,27.5,19,26,34
				c-1.1,10.5-9,21.3-19,26.2C3150.7,10888.8,3141.3,10889.5,3135.1,10887.5z"/>
			<path class="st7" d="M3263.3,10887.5c-10.5-3.5-20-14.1-22.2-24.8c-4.3-20.6,16.3-41.3,37-37c15.5,3.2,27.5,19,26,34
				c-1.1,10.5-9,21.3-19,26.2C3278.9,10888.8,3269.5,10889.5,3263.3,10887.5z"/>
			<path class="st7" d="M3391.5,10887.5c-10.5-3.5-20-14.1-22.2-24.8c-4.3-20.6,16.3-41.3,37-37c15.5,3.2,27.5,19,26,34
				c-1.1,10.5-9,21.3-19,26.2C3407.2,10888.8,3397.7,10889.5,3391.5,10887.5z"/>
			<path class="st7" d="M3519.7,10887.5c-10.5-3.5-20-14.1-22.2-24.8c-4.3-20.6,16.3-41.3,37-37c15.5,3.2,27.5,19,26,34
				c-1.1,10.5-9,21.3-19,26.2C3535.4,10888.8,3526,10889.5,3519.7,10887.5z"/>
			<path class="st7" d="M3648,10887.5c-10.5-3.5-20-14.1-22.2-24.8c-4.3-20.6,16.3-41.3,37-37c15.5,3.2,27.5,19,26,34
				c-1.1,10.5-9,21.3-19,26.2C3663.6,10888.8,3654.2,10889.5,3648,10887.5z"/>
			<path class="st7" d="M3776.2,10887.5c-10.5-3.5-20-14.1-22.2-24.8c-4.3-20.6,16.3-41.3,37-37c15.5,3.2,27.5,19,26,34
				c-1.1,10.5-9,21.3-19,26.2C3791.8,10888.8,3782.4,10889.5,3776.2,10887.5z"/>
			<path class="st7" d="M3904.4,10887.5c-10.5-3.5-20-14.1-22.2-24.8c-4.3-20.6,16.3-41.3,37-37c15.5,3.2,27.5,19,26,34
				c-1.1,10.5-9,21.3-19,26.2C3920.1,10888.8,3910.6,10889.5,3904.4,10887.5z"/>
			<path class="st7" d="M4032.7,10887.5c-10.5-3.5-20-14.1-22.2-24.8c-4.3-20.6,16.3-41.3,37-37c15.5,3.2,27.5,19,26,34
				c-1.1,10.5-9,21.3-19,26.2C4048.3,10888.8,4038.9,10889.5,4032.7,10887.5z"/>
			<path class="st7" d="M4160.9,10887.5c-10.5-3.5-20-14.1-22.2-24.8c-4.3-20.6,16.3-41.3,37-37c15.5,3.2,27.5,19,26,34
				c-1.1,10.5-9,21.3-19,26.2C4176.5,10888.8,4167.1,10889.5,4160.9,10887.5z"/>
			<path class="st7" d="M4289.1,10887.5c-10.5-3.5-20-14.1-22.2-24.8c-4.3-20.6,16.3-41.3,37-37c15.5,3.2,27.5,19,26,34
				c-1.1,10.5-9,21.3-19,26.2C4304.7,10888.8,4295.3,10889.5,4289.1,10887.5z"/>
			<path class="st7" d="M3135.1,10759.3c-10.5-3.5-20-14.1-22.2-24.8c-4.3-20.6,16.3-41.3,37-37c15.5,3.2,27.5,19,26,34
				c-1.1,10.5-9,21.3-19,26.2C3150.7,10760.6,3141.3,10761.3,3135.1,10759.3z"/>
			<path class="st7" d="M3263.3,10759.3c-10.5-3.5-20-14.1-22.2-24.8c-4.3-20.6,16.3-41.3,37-37c15.5,3.2,27.5,19,26,34
				c-1.1,10.5-9,21.3-19,26.2C3278.9,10760.6,3269.5,10761.3,3263.3,10759.3z"/>
			<path class="st7" d="M3391.5,10759.3c-10.5-3.5-20-14.1-22.2-24.8c-2.5-11.7,3.2-24.4,14.2-32c10.7-7.4,22.9-7.5,33.8-0.3
				c17.7,11.8,20.1,33.9,5.3,48.6C3414.1,10759.4,3401.8,10762.7,3391.5,10759.3z"/>
			<path class="st7" d="M3519.7,10759.3c-10.5-3.5-20-14.1-22.2-24.8c-2.5-11.7,3.2-24.4,14.2-32c10.7-7.4,22.9-7.5,33.8-0.3
				c17.7,11.8,20.1,33.9,5.3,48.6C3542.3,10759.4,3530.1,10762.7,3519.7,10759.3z"/>
			<path class="st7" d="M3648,10759.3c-15.1-5-25.3-21.6-22.2-36.3c2.5-11.9,13.6-23,25.5-25.5c19.3-4.1,39.5,14.2,37.5,34
				c-1.1,10.5-9,21.3-19,26.2C3663.6,10760.6,3654.2,10761.3,3648,10759.3z"/>
			<path class="st7" d="M3776.2,10759.3c-15.1-5-25.3-21.6-22.2-36.3c2.5-11.9,13.6-23,25.5-25.5c19.3-4.1,39.5,14.2,37.5,34
				c-1.1,10.5-9,21.3-19,26.2C3791.8,10760.6,3782.4,10761.3,3776.2,10759.3z"/>
			<path class="st7" d="M3904.4,10759.3c-15.1-5-25.3-21.6-22.2-36.3c2.5-11.9,13.6-23,25.5-25.5c19.3-4.1,39.5,14.2,37.5,34
				c-1.1,10.5-9,21.3-19,26.2C3920.1,10760.6,3910.6,10761.3,3904.4,10759.3z"/>
			<path class="st7" d="M4032.7,10759.3c-15.1-5-25.3-21.6-22.2-36.3c2.5-11.9,13.6-23,25.5-25.5c19.3-4.1,39.5,14.2,37.5,34
				c-1.1,10.5-9,21.3-19,26.2C4048.3,10760.6,4038.9,10761.3,4032.7,10759.3z"/>
			<path class="st7" d="M4160.9,10759.3c-10.5-3.5-20-14.1-22.2-24.8c-4.3-20.6,16.3-41.3,37-37c15.5,3.2,27.5,19,26,34
				c-1.1,10.5-9,21.3-19,26.2C4176.5,10760.6,4167.1,10761.3,4160.9,10759.3z"/>
			<path class="st7" d="M4289.1,10759.3c-10.5-3.5-20-14.1-22.2-24.8c-4.3-20.6,16.3-41.3,37-37c15.5,3.2,27.5,19,26,34
				c-1.1,10.5-9,21.3-19,26.2C4304.7,10760.6,4295.3,10761.3,4289.1,10759.3z"/>
			<path class="st7" d="M3135.1,10631.1c-10.5-3.5-20-14.1-22.2-24.8c-4.3-20.6,16.3-41.3,37-37c15.5,3.2,27.5,19,26,34
				c-1.1,10.5-9,21.3-19,26.2C3150.7,10632.4,3141.3,10633.1,3135.1,10631.1z"/>
			<path class="st7" d="M3263.3,10631.1c-10.5-3.5-20-14.1-22.2-24.8c-4.3-20.6,16.3-41.3,37-37c15.5,3.2,27.5,19,26,34
				c-1.1,10.5-9,21.3-19,26.2C3278.9,10632.4,3269.5,10633.1,3263.3,10631.1z"/>
			<path class="st7" d="M3391.5,10631.1c-10.5-3.5-20-14.1-22.2-24.8c-2.5-11.7,3.2-24.4,14.2-32c10.7-7.4,22.9-7.5,33.8-0.3
				c17.7,11.8,20.1,33.9,5.3,48.6C3414.1,10631.2,3401.8,10634.5,3391.5,10631.1z"/>
			<path class="st7" d="M3519.7,10631.1c-10.5-3.5-20-14.1-22.2-24.8c-2.5-11.7,3.2-24.4,14.2-32c10.7-7.4,22.9-7.5,33.8-0.3
				c17.7,11.8,20.1,33.9,5.3,48.6C3542.3,10631.2,3530.1,10634.5,3519.7,10631.1z"/>
			<path class="st7" d="M3648,10631.1c-15.1-5-25.3-21.6-22.2-36.3c2.5-11.9,13.6-23,25.5-25.5c19.3-4.1,39.5,14.2,37.5,34
				c-1.1,10.5-9,21.3-19,26.2C3663.6,10632.4,3654.2,10633.1,3648,10631.1z"/>
			<path class="st7" d="M3776.2,10631.1c-15.1-5-25.3-21.6-22.2-36.3c2.5-11.9,13.6-23,25.5-25.5c19.3-4.1,39.5,14.2,37.5,34
				c-1.1,10.5-9,21.3-19,26.2C3791.8,10632.4,3782.4,10633.1,3776.2,10631.1z"/>
			<path class="st7" d="M3904.4,10631.1c-15.1-5-25.3-21.6-22.2-36.3c2.5-11.9,13.6-23,25.5-25.5c19.3-4.1,39.5,14.2,37.5,34
				c-1.1,10.5-9,21.3-19,26.2C3920.1,10632.4,3910.6,10633.1,3904.4,10631.1z"/>
			<path class="st7" d="M4032.7,10631.1c-15.1-5-25.3-21.6-22.2-36.3c2.5-11.9,13.6-23,25.5-25.5c19.3-4.1,39.5,14.2,37.5,34
				c-1.1,10.5-9,21.3-19,26.2C4048.3,10632.4,4038.9,10633.1,4032.7,10631.1z"/>
			<path class="st7" d="M4160.9,10631.1c-10.5-3.5-20-14.1-22.2-24.8c-4.3-20.6,16.3-41.3,37-37c15.5,3.2,27.5,19,26,34
				c-1.1,10.5-9,21.3-19,26.2C4176.5,10632.4,4167.1,10633.1,4160.9,10631.1z"/>
			<path class="st7" d="M4289.1,10631.1c-10.5-3.5-20-14.1-22.2-24.8c-4.3-20.6,16.3-41.3,37-37c15.5,3.2,27.5,19,26,34
				c-1.1,10.5-9,21.3-19,26.2C4304.7,10632.4,4295.3,10633.1,4289.1,10631.1z"/>
			<path class="st7" d="M3135.1,10502.8c-10.5-3.5-20-14.1-22.2-24.8c-4.3-20.6,16.3-41.3,37-37c15.5,3.2,27.5,19,26,34
				c-1.1,10.5-9,21.3-19,26.2C3150.7,10504.1,3141.3,10504.9,3135.1,10502.8z"/>
			<path class="st7" d="M3263.3,10502.8c-10.5-3.5-20-14.1-22.2-24.8c-4.3-20.6,16.3-41.3,37-37c15.5,3.2,27.5,19,26,34
				c-1.1,10.5-9,21.3-19,26.2C3278.9,10504.1,3269.5,10504.9,3263.3,10502.8z"/>
			<path class="st7" d="M3391.5,10502.8c-10.5-3.5-20-14.1-22.2-24.8c-2.5-11.7,3.2-24.4,14.2-32c10.7-7.4,22.9-7.5,33.8-0.3
				c17.7,11.8,20.1,33.9,5.3,48.6C3414.1,10502.9,3401.8,10506.3,3391.5,10502.8z"/>
			<path class="st7" d="M3519.7,10502.8c-10.5-3.5-20-14.1-22.2-24.8c-2.5-11.7,3.2-24.4,14.2-32c10.7-7.4,22.9-7.5,33.8-0.3
				c17.7,11.8,20.1,33.9,5.3,48.6C3542.3,10502.9,3530.1,10506.3,3519.7,10502.8z"/>
			<path class="st7" d="M3648,10502.8c-10.5-3.5-20-14.1-22.2-24.8c-4.3-20.6,16.3-41.3,37-37c15.5,3.2,27.5,19,26,34
				c-1.1,10.5-9,21.3-19,26.2C3663.6,10504.1,3654.2,10504.9,3648,10502.8z"/>
			<path class="st7" d="M3776.2,10502.8c-10.5-3.5-20-14.1-22.2-24.8c-4.3-20.6,16.3-41.3,37-37c15.5,3.2,27.5,19,26,34
				c-1.1,10.5-9,21.3-19,26.2C3791.8,10504.1,3782.4,10504.9,3776.2,10502.8z"/>
			<path class="st7" d="M3904.4,10502.8c-10.5-3.5-20-14.1-22.2-24.8c-4.3-20.6,16.3-41.3,37-37c15.5,3.2,27.5,19,26,34
				c-1.1,10.5-9,21.3-19,26.2C3920.1,10504.1,3910.6,10504.9,3904.4,10502.8z"/>
			<path class="st7" d="M4032.7,10502.8c-10.5-3.5-20-14.1-22.2-24.8c-4.3-20.6,16.3-41.3,37-37c15.5,3.2,27.5,19,26,34
				c-1.1,10.5-9,21.3-19,26.2C4048.3,10504.1,4038.9,10504.9,4032.7,10502.8z"/>
			<path class="st7" d="M4160.9,10502.8c-10.5-3.5-20-14.1-22.2-24.8c-4.3-20.6,16.3-41.3,37-37c15.5,3.2,27.5,19,26,34
				c-1.1,10.5-9,21.3-19,26.2C4176.5,10504.1,4167.1,10504.9,4160.9,10502.8z"/>
			<path class="st7" d="M4289.1,10502.8c-10.5-3.5-20-14.1-22.2-24.8c-4.3-20.6,16.3-41.3,37-37c15.5,3.2,27.5,19,26,34
				c-1.1,10.5-9,21.3-19,26.2C4304.7,10504.1,4295.3,10504.9,4289.1,10502.8z"/>
			<path class="st7" d="M3135.1,10374.6c-10.5-3.5-20-14.1-22.2-24.8c-4.3-20.6,16.3-41.3,37-37c15.5,3.2,27.5,19,26,34
				c-1.1,10.5-9,21.3-19,26.2C3150.7,10375.9,3141.3,10376.6,3135.1,10374.6z"/>
			<path class="st7" d="M3263.3,10374.6c-10.5-3.5-20-14.1-22.2-24.8c-4.3-20.6,16.3-41.3,37-37c15.5,3.2,27.5,19,26,34
				c-1.1,10.5-9,21.3-19,26.2C3278.9,10375.9,3269.5,10376.6,3263.3,10374.6z"/>
			<path class="st7" d="M3391.5,10374.6c-10.5-3.5-20-14.1-22.2-24.8c-4.3-20.6,16.3-41.3,37-37c15.5,3.2,27.5,19,26,34
				c-1.1,10.5-9,21.3-19,26.2C3407.2,10375.9,3397.7,10376.6,3391.5,10374.6z"/>
			<path class="st7" d="M3519.7,10374.6c-10.5-3.5-20-14.1-22.2-24.8c-4.3-20.6,16.3-41.3,37-37c15.5,3.2,27.5,19,26,34
				c-1.1,10.5-9,21.3-19,26.2C3535.4,10375.9,3526,10376.6,3519.7,10374.6z"/>
			<path class="st7" d="M3648,10374.6c-10.5-3.5-20-14.1-22.2-24.8c-4.3-20.6,16.3-41.3,37-37c15.5,3.2,27.5,19,26,34
				c-1.1,10.5-9,21.3-19,26.2C3663.6,10375.9,3654.2,10376.6,3648,10374.6z"/>
			<path class="st7" d="M3776.2,10374.6c-10.5-3.5-20-14.1-22.2-24.8c-4.3-20.6,16.3-41.3,37-37c15.5,3.2,27.5,19,26,34
				c-1.1,10.5-9,21.3-19,26.2C3791.8,10375.9,3782.4,10376.6,3776.2,10374.6z"/>
			<path class="st7" d="M3904.4,10374.6c-10.5-3.5-20-14.1-22.2-24.8c-4.3-20.6,16.3-41.3,37-37c15.5,3.2,27.5,19,26,34
				c-1.1,10.5-9,21.3-19,26.2C3920.1,10375.9,3910.6,10376.6,3904.4,10374.6z"/>
			<path class="st7" d="M4032.7,10374.6c-10.5-3.5-20-14.1-22.2-24.8c-4.3-20.6,16.3-41.3,37-37c15.5,3.2,27.5,19,26,34
				c-1.1,10.5-9,21.3-19,26.2C4048.3,10375.9,4038.9,10376.6,4032.7,10374.6z"/>
			<path class="st7" d="M4160.9,10374.6c-10.5-3.5-20-14.1-22.2-24.8c-4.3-20.6,16.3-41.3,37-37c15.5,3.2,27.5,19,26,34
				c-1.1,10.5-9,21.3-19,26.2C4176.5,10375.9,4167.1,10376.6,4160.9,10374.6z"/>
			<path class="st7" d="M4289.1,10374.6c-10.5-3.5-20-14.1-22.2-24.8c-4.3-20.6,16.3-41.3,37-37c15.5,3.2,27.5,19,26,34
				c-1.1,10.5-9,21.3-19,26.2C4304.7,10375.9,4295.3,10376.6,4289.1,10374.6z"/>
		</g>
	</g>
	<rect id="biurko" y="290" class="st1" width="623" height="94"/>
	<g id="doniczka">
		<path class="st7" d="M80,224c0,0,10,6,13,50H77.8C77.8,274,73,228,80,224z"/>
		<path class="st8" d="M93,211c0,0,10.7,8,6.9,63H84.6C84.6,274,83,215,93,211z"/>
		<rect x="71" y="274" class="st9" width="35" height="35"/>
	</g>
	<path class="st10" d="M180,353c0,0,20-5,32-6s29-9,30-13s1-8-4-9s-19,5-24,8s-20,11-25,11c0,0-10,7-20,7s-26-5-26-21
		c0,0,2-12,10-12c0,0,2-35,50-33c0,0,30-4,41,22s7,34-6,46s-30,17-45,16s-16-12-16-12S177,355,180,353z"/>
	<g id="uszy">
		<g>
			<g>
				<path class="st11" d="M145,325c3-7,11-7,11-7l-7-11L145,325z"/>
			</g>
			<path class="st11" d="M191,327c-3-7-9-8-9-8l8-11L191,327z"/>
		</g>
	</g>
	<g id="oczy_nos">
		<path class="st12" d="M151,335c0,0,4,4,9,1"/>
		<path class="st12" d="M172.9,335.7c0,0,6,3.4,9.6-1.2"/>
		<path class="st12" d="M167.5,341.5c0,2,0,2,0,2"/>
	</g>
	<rect x="341" y="301" class="st8" width="96" height="10"/>
	<rect x="437" y="301" class="st13" width="110" height="10"/>
	<polygon class="st7" points="458,219 591,219 547,301 415.9,301 	"/>
</g>
</svg>
