<svg xmlns="http://www.w3.org/2000/svg" viewBox="0 0 29.512 28.283"><defs><style>.a{fill:#fff;}</style></defs><path class="a" d="M14.756.5A14.628,14.628,0,0,0,0,15,14.525,14.525,0,0,0,10.09,28.758c.738.136,1.008-.312,1.008-.7,0-.344-.012-1.257-.018-2.466-4.1.874-4.97-1.945-4.97-1.945a3.865,3.865,0,0,0-1.642-2.121c-1.337-.9.1-.88.1-.88a3.087,3.087,0,0,1,2.26,1.494,3.177,3.177,0,0,0,4.3,1.206,3.07,3.07,0,0,1,.935-1.939c-3.277-.363-6.721-1.61-6.721-7.165A5.54,5.54,0,0,1,6.86,10.353,5.073,5.073,0,0,1,6.99,6.516S8.225,6.127,11.047,8a14.148,14.148,0,0,1,7.378,0c2.8-1.875,4.04-1.487,4.04-1.487a5.213,5.213,0,0,1,.148,3.838,5.562,5.562,0,0,1,1.513,3.891c0,5.57-3.449,6.8-6.733,7.153a3.441,3.441,0,0,1,1,2.683c0,1.94-.018,3.5-.018,3.971,0,.38.258.834,1.014.689A14.481,14.481,0,0,0,29.512,15,14.631,14.631,0,0,0,14.756.5Z" transform="translate(0 -0.5)"/></svg>