<svg xmlns="http://www.w3.org/2000/svg" viewBox="0 0 28.283 28.283"><defs><style>.a{fill:#fff;}</style></defs><path class="a" d="M26.761,26.931h.007V16.557c0-5.074-1.092-8.983-7.025-8.983A6.158,6.158,0,0,0,14.2,10.623h-.082V8.048H8.489V26.93h5.857V17.58c0-2.462.467-4.842,3.515-4.842,3,0,3.049,2.809,3.049,5v9.193Z" transform="translate(1.515 1.352)"/><path class="a" d="M.4,7.977H6.26V26.86H.4Z" transform="translate(0.071 1.424)"/><path class="a" d="M3.4,0a3.412,3.412,0,1,0,3.4,3.4A3.4,3.4,0,0,0,3.4,0Z"/></svg>