<?xml version="1.0" encoding="utf-8"?>
<!-- Generator: Adobe Illustrator 23.0.1, SVG Export Plug-In . SVG Version: 6.00 Build 0)  -->
<svg version="1.1" id="w1" xmlns="http://www.w3.org/2000/svg" xmlns:xlink="http://www.w3.org/1999/xlink" x="0px" y="0px"
	 viewBox="0 0 123.5 127.6" style="enable-background:new 0 0 123.5 127.6;" xml:space="preserve">
<style type="text/css">
	.st0{fill:#332B3B;}
	.st1{fill:#73C598;}
</style>
<g id="g1" transform="translate(-648.203 -14.107)">
	
		<rect id="_x36_" x="682.5" y="43.9" transform="matrix(0.4677 -0.8839 0.8839 0.4677 307.2535 640.3884)" class="st0" width="5.6" height="42.3"/>
	
		<rect id="_x35_" x="682.1" y="98" transform="matrix(0.4677 -0.8839 0.8839 0.4677 259.8609 668.2648)" class="st0" width="5.3" height="40.8"/>
	
		<rect id="_x34_" x="713.6" y="62.3" transform="matrix(0.866 -0.5 0.5 0.866 65.8876 376.0946)" class="st0" width="42.3" height="5.6"/>
	<rect id="_x33_" x="707.3" y="86.6" class="st0" width="5.6" height="34.2"/>
	
		<rect id="_x32_" x="714.8" y="116.1" transform="matrix(0.866 -0.5 0.5 0.866 39.1354 383.5778)" class="st0" width="41.1" height="5.3"/>
	
		<rect id="_x31_" x="664.1" y="34.3" transform="matrix(0.8958 -0.4444 0.4444 0.8958 54.888 308.3864)" class="st0" width="42.3" height="5.6"/>
	<g id="poits" transform="translate(648.203 14.107)">
		<path id="_x37_" class="st1" d="M61.9,0c-6.2,0-11.2,5-11.2,11.2s5,11.2,11.2,11.2s11.2-5,11.2-11.2l0,0C73.1,5,68.2,0,61.9,0
			C62,0,61.9,0,61.9,0z M61.9,17.4c-3.4,0-6.2-2.8-6.2-6.2S58.5,5,61.9,5s6.2,2.8,6.2,6.2l0,0C68.1,14.6,65.3,17.4,61.9,17.4z"/>
		<path id="_x36__1_" class="st1" d="M11.2,24.9C5,24.9,0,29.9,0,36.1s5,11.2,11.2,11.2s11.2-5,11.2-11.2l0,0
			C22.4,29.9,17.5,24.9,11.2,24.9C11.3,24.9,11.2,24.9,11.2,24.9z M11.2,42.3c-3.4,0-6.2-2.8-6.2-6.2s2.8-6.2,6.2-6.2
			s6.2,2.8,6.2,6.2l0,0C17.4,39.5,14.6,42.3,11.2,42.3z"/>
		<path id="_x35__1_" class="st1" d="M61.9,52.6c-6.2,0-11.2,5-11.2,11.2S55.7,75,61.9,75s11.2-5,11.2-11.2l0,0
			C73,57.6,68.1,52.7,61.9,52.6z M61.9,70c-3.4,0-6.2-2.8-6.2-6.2s2.8-6.2,6.2-6.2s6.2,2.8,6.2,6.2l0,0c0.1,3.3-2.5,6.1-5.9,6.2
			C62.2,70,62,70,61.9,70z"/>
		<path id="_x34__1_" class="st1" d="M61.9,105.2c-6.2,0-11.2,5-11.2,11.2s5,11.2,11.2,11.2s11.2-5,11.2-11.2l0,0
			C73.1,110.2,68.2,105.2,61.9,105.2C62,105.2,61.9,105.2,61.9,105.2z M61.9,122.6c-3.4,0-6.2-2.8-6.2-6.2s2.8-6.2,6.2-6.2
			s6.2,2.8,6.2,6.2l0,0C68.1,119.8,65.3,122.6,61.9,122.6z"/>
		<path id="_x33__1_" class="st1" d="M112.3,81.2c-6.2,0-11.2,5-11.2,11.2s5,11.2,11.2,11.2s11.2-5,11.2-11.2l0,0
			C123.4,86.3,118.5,81.3,112.3,81.2z M112.3,98.6c-3.4,0-6.2-2.8-6.2-6.2c0-3.4,2.8-6.2,6.2-6.2c3.4,0,6.2,2.8,6.2,6.2
			C118.2,95.8,115.4,98.6,112.3,98.6z"/>
		<path id="_x32__1_" class="st1" d="M11.2,80.9C5,80.9,0,85.9,0,92.1s5,11.2,11.2,11.2s11.2-5,11.2-11.2l0,0
			C22.4,85.9,17.5,80.9,11.2,80.9C11.3,80.9,11.2,80.9,11.2,80.9z M11.2,98.3c-3.4,0-6.2-2.8-6.2-6.2s2.8-6.2,6.2-6.2
			s6.2,2.8,6.2,6.2l0,0C17.4,95.5,14.6,98.3,11.2,98.3z"/>
		<path id="_x31__1_" class="st1" d="M112.3,24.9c-6.2,0-11.2,5-11.2,11.2s5,11.2,11.2,11.2s11.2-5,11.2-11.2l0,0
			C123.5,29.9,118.6,24.9,112.3,24.9C112.4,24.9,112.4,24.9,112.3,24.9z M112.3,42.3c-3.4,0-6.2-2.8-6.2-6.2s2.8-6.2,6.2-6.2
			c3.4,0,6.2,2.8,6.2,6.2C118.2,39.5,115.4,42.3,112.3,42.3z"/>
	</g>
</g>
</svg>
