<svg xmlns="http://www.w3.org/2000/svg" viewBox="0 0 123.524 127.569"><defs><style>.logo-class-a{fill:#fff;}.logo-class-b{fill:#73c598;}</style></defs><g transform="translate(-648.203 -14.107)"><rect class="logo-class-a" width="5.601" height="42.316" transform="translate(665.255 57.703) rotate(-62.115)"/><rect class="logo-class-a" width="5.289" height="40.76" transform="translate(665.494 111.199) rotate(-62.115)"/><rect class="logo-class-a" width="42.316" height="5.601" transform="matrix(0.866, -0.5, 0.5, 0.866, 715.015, 73.265)"/><rect class="logo-class-a" width="5.601" height="34.226" transform="translate(707.32 86.603)"/><rect class="logo-class-a" width="41.071" height="5.289" transform="matrix(0.866, -0.5, 0.5, 0.866, 716.248, 126.767)"/><rect class="logo-class-a" width="42.316" height="5.601" transform="translate(665.063 44.032) rotate(-26.386)"/><g transform="translate(648.203 14.107)"><path class="logo-class-a" d="M119.5,6.5a11.2,11.2,0,1,0,11.2,11.2A11.155,11.155,0,0,0,119.5,6.5Zm0,17.424a6.223,6.223,0,1,1,6.223-6.223A6.241,6.241,0,0,1,119.5,23.924Z" transform="translate(-57.583 -6.5)"/><path class="logo-class-a" d="M103.2,14.5a11.2,11.2,0,1,0,11.2,11.2A11.155,11.155,0,0,0,103.2,14.5Zm0,17.424a6.223,6.223,0,1,1,6.223-6.223A6.241,6.241,0,0,1,103.2,31.924Z" transform="translate(-92 10.392)"/><path class="logo-class-b" d="M119.5,23.4a11.2,11.2,0,1,0,11.2,11.2A11.356,11.356,0,0,0,119.5,23.4Zm0,17.424a6.223,6.223,0,1,1,6.223-6.223A6.049,6.049,0,0,1,119.5,40.824Z" transform="translate(-57.583 29.183)"/><path class="logo-class-a" d="M119.5,40.3a11.2,11.2,0,1,0,11.2,11.2A11.155,11.155,0,0,0,119.5,40.3Zm0,17.424a6.223,6.223,0,1,1,6.223-6.223A6.241,6.241,0,0,1,119.5,57.724Z" transform="translate(-57.583 64.867)"/><path class="logo-class-b" d="M135.7,32.6a11.2,11.2,0,1,0,11.2,11.2A11.356,11.356,0,0,0,135.7,32.6Zm0,17.424a6.223,6.223,0,1,1,6.223-6.223C141.613,47.224,138.813,50.024,135.7,50.024Z" transform="translate(-23.378 48.609)"/><path class="logo-class-b" d="M103.2,32.5a11.2,11.2,0,1,0,11.2,11.2A11.155,11.155,0,0,0,103.2,32.5Zm0,17.424a6.223,6.223,0,1,1,6.223-6.223A6.241,6.241,0,0,1,103.2,49.924Z" transform="translate(-92 48.397)"/><path class="logo-class-a" d="M135.7,14.5a11.2,11.2,0,1,0,11.2,11.2A11.155,11.155,0,0,0,135.7,14.5Zm0,17.424a6.223,6.223,0,1,1,6.223-6.223C141.613,29.124,138.813,31.924,135.7,31.924Z" transform="translate(-23.378 10.392)"/></g></g></svg>