<svg xmlns="http://www.w3.org/2000/svg" viewBox="0 0 497.463 653"><defs><style>.a{fill:#1e1c24;}.b{fill:#22b573;}.c{fill:#2adb7e;}.d{fill:#3cd387;}.e{fill:#ed956e;}.f{fill:#7ad3ab;}.g{fill:#5cd89f;}.h,.k{fill:none;stroke-miterlimit:10;}.h{stroke:#bbbdc7;}.i{fill:#8e91a2;}.j{fill:#aae3c9;}.k{stroke:#8e91a2;}.l{fill:#bbbdc7;}.m{fill:#332b3b;}.n{fill:#302533;}.o{fill:#564b63;}</style></defs><g transform="translate(-11.1 -3.442)"><g transform="translate(11.1 191.262)"><path class="a" d="M114.347,321.913c.812-2.267,1.9-5.794,2.979-9.825,4.062-12.847,10.29-31.489,11.1-34.764,1.625-5.038,13.54-38.29,13.54-38.29s4.874-22.672,29.517-5.29l48.2,24.687,3.25-15.87L214,245.584s-7.041,4.534-10.02-6.3l-7.853-22.672L214,208.553l7.582,13.351,34.392-30.733s13-37.283,33.85,1.26c0,0,6.228,9.321-1.625,24.687l-15.436,42.825,9.749,23.932-.812,12.6s-4.874,26.954-38.454,26.954l-23.831,5.542-2.979.252s13.811,11.84,21.123,15.618c7.582,3.527,14.623,10.076,14.623,10.076l-3.52,16.626L232.146,366s-58.764-21.664-73.117-25.695-13.811-2.267-21.123-15.367a15.581,15.581,0,0,0-2.708,2.771,2.825,2.825,0,0,0-1.083,2.519c-1.625.756-9.749-2.015-15.165-3.779a47.53,47.53,0,0,1-5.416-2.015S113.806,323.676,114.347,321.913Zm76.366-29.726-23.56-16.122s0,19.9-17.873,31.237Z" transform="translate(-72.102 69.305)"/><g transform="translate(141.358 338.871)"><path class="b" d="M125.8,235.519l2.166,4.786a75.522,75.522,0,0,0,7.853-2.519h0c2.437-1.26,4.333-2.771,4.333-4.786l-13,2.267Z" transform="translate(-94.658 -181.409)"/><path class="c" d="M141.211,235.393c-1.354,3.023-5.687,37.535-5.687,37.535,7.582,2.519,17.873.756,25.185-1.26a75.52,75.52,0,0,0,7.853-2.519h0c-3.52-.252-6.5-1.008-8.666-2.519-5.958-4.031-6.77-13.351-2.979-27.206,5.416-19.145.542-24.183.542-24.183-8.936-10.076-30.059,11.084-30.059,11.084l5.145-.252C144.19,226.325,141.211,235.393,141.211,235.393Z" transform="translate(-127.4 -212.52)"/></g><g transform="translate(0 380.386)"><path class="d" d="M180.248,229s-6.228,16.122-2.437,19.145,8.395-7.305,8.395-7.305,2.166-8.061-1.9-10.076Z" transform="translate(-137.461 -229)"/><path class="c" d="M171.316,238.033l54.973,23.428s7.582-7.053,5.958-13.1c0,0-1.625-3.779-1.354-6.55a2.825,2.825,0,0,1,1.083-2.519L218.435,234a.87.87,0,0,1-.542-.252c-1.083-.5-3.25-1.008-6.77,0a11.824,11.824,0,0,0-2.708,1.008,41.514,41.514,0,0,0-5.687,3.527,23.368,23.368,0,0,1-15.165-1.26C179.71,233.5,174.295,233.751,171.316,238.033Z" transform="translate(-168.878 -222.667)"/><path class="d" d="M176.037,235.1l-2.437,3.779,54.7,23.428,2.708-3.779Z" transform="translate(-173.6 -219.733)"/><ellipse class="d" cx="5.145" cy="4.786" rx="5.145" ry="4.786" transform="translate(45.495 21.916)"/></g><g transform="translate(152.732 414.394)"><path class="d" d="M140.786,246.165s-7.582-5.038-10.02.5-3.791,9.321,1.354,11.084,16.519,4.534,16.519,4.534l6.5-6.55Z" transform="translate(-128.6 -240.119)"/><path class="c" d="M121.52,263.913c14.623,1.763,23.018,18.389,23.018,18.389C150.5,300.943,157,289.859,157,289.859c8.124-4.283,3.52-13.855,3.52-13.855L153.2,250.813a44.809,44.809,0,0,1-6.228-1.26,54.048,54.048,0,0,1-9.207-3.023,61.652,61.652,0,0,1-8.124-4.031l-1.083,4.031c-5.416,10.076,4.874,16.122,4.874,16.122C123.145,258.37,121.52,263.913,121.52,263.913Z" transform="translate(-116.104 -242.5)"/><path class="d" d="M130.368,252.82c6.228,1.008,8.124-5.542,8.124-5.542h-.542a54.047,54.047,0,0,1-9.207-3.023L128.2,244C128.2,243.752,124.139,251.813,130.368,252.82Z" transform="translate(-107.35 -240.225)"/><path class="d" d="M122.883,245.8l4.062.756,7.312,25.695s3.52,10.328-3.52,14.107c0,0-7.041,3.275-10.561,1.26,0,0,12.457-5.794,10.832-11.588C129.653,269.983,122.883,245.8,122.883,245.8Z" transform="translate(-85.783 -237.487)"/></g><g transform="translate(150.59 194.863)"><path class="e" d="M167.89,176.7v8.565l-27.351,9.573s-4.874,5.29-8.395,0a40.449,40.449,0,0,1-4.6-8.565s-7.582.252-2.437-6.3-4.6-8.313-4.6-8.313l16.519-7.557Z" transform="translate(-117.275 -142.067)"/><path class="a" d="M147.555,208.371l.542-14.107s-4.874-13.6-24.372-6.55c0,0-15.707-24.939,22.206-31.993,0,0,20.852-4.786,25.185,20.153v17.634s-10.832.756-17.873,4.031l.271,8.061Z" transform="translate(-120.5 -155.354)"/><ellipse class="c" cx="2.979" cy="2.771" rx="2.979" ry="2.771" transform="translate(27.326 34.376)"/></g><g transform="translate(153.342 209.338)"><path class="b" d="M166.7,161.1s3.52,2.519.542,3.779c-2.979,1.008-31.413,11.336-31.413,11.336l1.625,2.771s2.979,4.786-8.124,6.55c0,0-3.52.756-4.062.252,0,0-8.936-6.3-2.437-8.565Z" transform="translate(-120.458 -161.1)"/><path class="f" d="M139.666,167.356s-10.02,2.519-6.228,5.794l1.9,1.511s1.9,1.26,5.687-.5,4.333-2.519,2.708-5.542C143.458,168.615,142.374,166.348,139.666,167.356Z" transform="translate(-129.444 -151.989)"/></g><g transform="translate(160.044)"><path class="g" d="M137.585,207.6l-4.6,14.107s-2.708,5.794-.542,6.046,3.52-1.26,4.874-6.046,4.874-13.351,4.874-13.351Z" transform="translate(-131.086 118.877)"/><path class="g" d="M144.038,210.2l-12.457,9.321s-4.874,3.275-3.25,4.786c1.625,1.26,2.708,1.008,7.041-2.267s12.186-8.313,12.186-8.313Z" transform="translate(-126.707 122.826)"/><path class="g" d="M134.147,198.5l-12.728,9.824s-1.9,24.184,32.225,34.26l4.6-13.1C157.977,229.233,137.667,226.966,134.147,198.5Z" transform="translate(-119.523 105.053)"/><path class="c" d="M93.219,191.806s11.374-1.26,17.061,24.687l12.728,32.748s5.416,12.847-1.083,18.138l-13-6.3Z" transform="translate(-10.083 94.869)"/><path class="c" d="M106,178.327c.271,0,.542.252,1.083,4.031h0c0,1.008.271,2.015.271,3.527.271,2.519,3.52,5.542,7.853,8.313a48.482,48.482,0,0,0,6.228,3.527h0c1.083.5,2.166,1.26,3.25,1.763,7.041,3.275,13.269,5.794,13.269,5.794v-3.275c-.271-5.29-1.625-15.618-10.02-23.428-.542-.5-1.354-1.008-1.9-1.511l-6.228,6.55-1.083,1.26c0,.252.271.252.271.5a2.8,2.8,0,0,1-2.166,1.26,1.724,1.724,0,0,1-1.083-.252,2.434,2.434,0,0,1-1.354-3.275l1.083-2.267,3.25-6.55a14.742,14.742,0,0,0-8.395,1.26A13.806,13.806,0,0,0,106,178.327Z" transform="translate(-57.527 68.042)"/><path class="d" d="M101,183.814s20.581-6.3,27.622,24.939l2.437,14.863H114.54Z" transform="translate(-37.091 81.952)"/><path class="b" d="M107.766,248.423s-3.52-21.161-7.853-26.7c0,0,1.625-20.909-.812-22.42h12.186s5.145,6.8,5.145,30.481v19.4s-.271,1.008-8.666,0v-.756Z" transform="translate(-17.318 106.268)"/><path class="g" d="M101.94,218.556l22.206-15.87c4.062-12.344,11.1-18.138,23.018-12.847,11.645,5.29,12.728,26.7,11.915,27.71-.542.756-12.728,36.275-18.685,53.153-1.9,5.542-3.25,9.069-3.25,9.069a34.073,34.073,0,0,0-1.354,4.031h0c-1.625,8.061,4.874,9.573,4.874,9.573a114.717,114.717,0,0,0,11.1,3.023c15.707,3.275,40.891,7.053,40.891,7.053a38.989,38.989,0,0,0,.542-11.336c-1.354-14.107-8.666-28.718-8.666-28.718s1.354-11.336,1.625-21.412h0c0-10.076-13.54-24.687-13.54-24.687-.271-3.779-2.166-10.076-3.25-13.6a5.3,5.3,0,0,0-.812-2.015v-.252a28.146,28.146,0,0,0-4.874-12.092,2.8,2.8,0,0,1-2.166,1.26,1.724,1.724,0,0,1-1.083-.252,2.434,2.434,0,0,1-1.354-3.275l1.083-2.267a50.5,50.5,0,0,0-4.874-5.29,62.943,62.943,0,0,0-7.853-6.3A14.833,14.833,0,0,0,143.1,171.7c-6.77-1.511-12.728.5-17.873,4.786a36.766,36.766,0,0,0-5.416,5.542c-.271.5-.542.756-.812,1.26-11.1,13.351-16.79,33.756-17.06,35.268Z" transform="translate(-101.94 63.584)"/><line class="h" x1="173.855" y2="133.009" transform="translate(145.691 27.206)"/><line class="h" x1="120.236" y2="156.437" transform="translate(145.691 3.779)"/><line class="h" x1="156.794" y2="160.215" transform="translate(145.691)"/></g><path class="b" d="M155.728,222.02l17.873-8.061-11.915-18.138s8.124-8.061.271-17.13c0,0-1.625-2.267-3.52-.756l-1.625-4.786s-1.9-5.29-7.041,3.527l-5.687,6.046s-5.687,4.031,3.25,18.641Z" transform="translate(-31.43 64.151)"/></g><g transform="translate(152.052 313.691)"><path class="i" d="M108.706,220.359a1.043,1.043,0,0,0,.812.252,1.724,1.724,0,0,0,1.083-.252L193.2,137.228l8.395-8.313h0a2.552,2.552,0,0,0-1.354-2.015c-.271,0-.542.252-.812.252l-4.062,4.031L108.706,218.6A1.16,1.16,0,0,0,108.706,220.359Z" transform="translate(-108.3 -126.144)"/><line class="h" y1="81.619" x2="87.198" transform="translate(0.948 11.588)"/><path class="i" d="M110.077,140.455h.812a2.614,2.614,0,0,0,2.437-1.511l3.52-9.069v-.756a2.552,2.552,0,0,0-1.354-2.015s-.271,0-.271-.252c-.271,0-.542-.252-.812-.252a2.614,2.614,0,0,0-2.437,1.511l-1.354,3.275-2.166,5.794h0A2.986,2.986,0,0,0,110.077,140.455Z" transform="translate(-23.827 -126.6)"/></g><path class="j" d="M110.3,182.409l6.228-6.55a9.64,9.64,0,0,0-2.166-1.26Z" transform="translate(123.399 260.008)"/><path class="j" d="M161.331,140.708l-80.97,85.65a13.934,13.934,0,0,1,4.6,2.519l80.428-85.146a2.77,2.77,0,0,0,.542-2.519.863.863,0,0,0-.271-.5c0-.252-.271-.252-.271-.5h0a4.05,4.05,0,0,0-1.625-.5A5.287,5.287,0,0,0,161.331,140.708Z" transform="translate(154.963 206.991)"/><path class="j" d="M114,181.386a2.087,2.087,0,0,0,1.625.5,2.548,2.548,0,0,0,1.9-.756l.542-.5c-1.083-1.511-2.166-2.771-3.25-4.031l-1.354,1.512A2.542,2.542,0,0,0,114,181.386Z" transform="translate(114.286 263.046)"/><g transform="translate(122.389 119.468)"><path class="j" d="M144.827,207.8l29.788-42.573a1.574,1.574,0,0,0-.542-2.267h0a2.205,2.205,0,0,0-2.708.5l-29.788,42.573a1.574,1.574,0,0,0,.542,2.267h0A2.205,2.205,0,0,0,144.827,207.8Z" transform="translate(-141.296 122.457)"/><path class="j" d="M144.687,195.923l15.436-30.733c.542-.756,0-1.763-.812-2.267h0a1.93,1.93,0,0,0-2.437.756l-15.436,30.733c-.542.756,0,1.763.812,2.267h0C143.333,197.182,144.416,196.93,144.687,195.923Z" transform="translate(-126.533 122.493)"/><line class="k" x1="102.363" y2="151.398" transform="translate(166.554 58.947)"/><line class="k" x1="49.828" y2="147.872" transform="translate(167.908 60.711)"/><line class="k" x1="79.887" y2="157.192" transform="translate(166.554 52.146)"/><line class="h" y1="103.787" x2="76.366" transform="translate(119.976 75.573)"/><line class="h" y1="147.368" x2="63.638" transform="translate(119.976 29.977)"/><line class="h" x1="15.165" y2="162.231" transform="translate(119.705 15.618)"/><path class="j" d="M113.478,264.586l35.746-142.834a2.716,2.716,0,0,0-1.9-3.023h0a2.977,2.977,0,0,0-3.25,1.763L108.333,263.326a2.716,2.716,0,0,0,1.9,3.023h0C111.853,266.6,113.207,265.845,113.478,264.586Z" transform="translate(-26.269 55.593)"/><path class="l" d="M117,112.3" transform="translate(-17.605 45.9)"/><line class="k" x1="15.707" y2="165.002" transform="translate(80.71 6.298)"/><line class="k" x2="17.602" y2="152.658" transform="translate(63.92 25.191)"/><line class="k" x2="37.1" y2="174.322" transform="translate(44.152)"/><path class="j" d="M131.284,268.933l-4.6-151.147a2.43,2.43,0,0,0-2.708-2.267h0c-1.354,0-2.708,1.26-2.437,2.519l4.6,151.147a2.43,2.43,0,0,0,2.708,2.267h0A2.562,2.562,0,0,0,131.284,268.933Z" transform="translate(-44.075 50.742)"/></g><path class="j" d="M112.1,180.45h0l5.687-6.046a8.413,8.413,0,0,0-2.437-.5Z" transform="translate(117.266 258.945)"/><path class="j" d="M114.462,182.142a1.724,1.724,0,0,0,1.083.252,2.434,2.434,0,0,0,2.166-1.26c0-.252-.271-.252-.271-.5-1.083-1.511-2.166-2.771-3.25-4.031h0l-1.083,2.267A2.513,2.513,0,0,0,114.462,182.142Z" transform="translate(115.175 263.047)"/><path class="j" d="M111,180.246c1.083,1.26,2.166,2.771,3.25,4.031l1.083-1.26,4.062-7.809a9.995,9.995,0,0,0-2.437-1.008Z" transform="translate(118.637 259.401)"/><path class="j" d="M90.423,241.2a8.414,8.414,0,0,1,2.437.5c.812.252,1.625.756,2.437,1.008l55.785-109.581a2.434,2.434,0,0,0-1.354-3.275,1.724,1.724,0,0,0-1.083-.252,2.614,2.614,0,0,0-2.437,1.511Z" transform="translate(142.463 191.648)"/><path class="j" d="M112.5,178.96c0,.252.271.252.271.5l.271-.252.812-1.512Z" transform="translate(120.116 264.717)"/><g transform="translate(155.928 3.442)"><path class="a" d="M135.447,76.95,182.3,62.088S129.761,50,112.7,51.255Z" transform="translate(-104.796 69.053)"/><path class="a" d="M11.182,125.04,29.6,154.01S47.2,127.56,46.116,70.628V68.864a84.566,84.566,0,0,0-2.708-17.13L23.368,47.2v2.519C23.1,60.8,22.556,103.628,11.182,125.04Z" transform="translate(306.248 63.032)"/><path class="m" d="M94.375,81.854s115.9,16.626,141.088,28.466l-.542-.5C227.338,102.007,133.1,4.013,91.938,38.525c-2.708,4.534-4.062,7.557-4.333,8.061h0C85.709,54.4,84.084,69.258,94.375,81.854Z" transform="translate(-86.2 38.707)"/><path class="n" d="M149.089,48.816s3.25,50.13-13.269,75.321l-37.641,6.8L19.1,103.229S102.511,38.992,149.089,48.816Z" transform="translate(181.611 63.935)"/><path class="o" d="M28,88.483c32.767-46.6,138.921,55.169,147.316,63.23l.542.5c37.912-56.428,27.351-39.3,66.617-75.573,38.454-35.771,88.823-13.1,90.719-12.344-13.54-12.344-128.9-51.39-128.9-51.39C102.741-23.366,47.769,54.475,32.6,80.421A69.048,69.048,0,0,0,28,88.483Z" transform="translate(-26.324 -3.442)"/><path class="m" d="M11.1,122.038l12.728,45.848c96.405-71.795,144.067-85.65,167.626-82.123,19.769,2.771,22.477,17.886,23.018,20.909h0V105.16a84.566,84.566,0,0,0-2.708-17.13c-10.02-35.016-40.349-52.4-40.349-52.4C86.383-17.772,11.1,122.038,11.1,122.038Z" transform="translate(138.163 26.988)"/></g></g></svg>