<svg xmlns="http://www.w3.org/2000/svg" viewBox="0 0 172.362 609.916"><defs><style>.a{fill:#2cb678;}.b{fill:#010101;}.c{fill:#f8d2af;}.d{fill:#533613;}.e{fill:#2adb7e;}.f{fill:#5cd89f;}.g{fill:#332b3b;}.h{fill:#302533;}</style></defs><g transform="translate(-443.482 -42.002)"><path class="a" d="M633.206,1095.106l-.22,6.771-.11,2.917-.055,2.037-.055,2.862-.165,4.349h11.835l.055-4.349.055-2.862.055-2.037v-2.917l.165-8.477Z" transform="translate(-85.015 -472.638)"/><path class="a" d="M463.05,1095.106l-.22,6.771-.055,2.917-.055,2.037-.11,2.862-.11,4.349h11.78l.055-4.349.055-2.862.055-2.037.055-2.917.165-8.477Z" transform="translate(-8.549 -472.638)"/><path class="b" d="M624.365,1130.855c-.44,3.853-5.395,5.78-8.367,6.33h-.11a2.094,2.094,0,0,0,.5,4.129c3.853.055,11.119.11,14.092-.055,4.128-.22,4.9-2.917,4.9-2.917l.826-7.541H624.365Z" transform="translate(-76.78 -489.451)"/><path class="b" d="M453.565,1130.855c-.44,3.853-5.395,5.78-8.367,6.33h-.11a2.094,2.094,0,0,0,.5,4.129c3.853.055,11.119.11,14.092-.055,4.128-.22,4.9-2.917,4.9-2.917l.826-7.541H453.565Z" transform="translate(0 -489.451)"/><path class="c" d="M23.4,44.223a35.87,35.87,0,0,0,14.058-9.78C47.243,23.57,49.387,9.559,42.127,3.158c-7.2-6.4-21.009-2.758-30.851,8.114C1.944,21.584-.375,34.749,5.635,41.538,5.093,46.491,3.456,59.491,0,62.288l30.2-2.43C30.028,59.8,23.607,50.813,23.4,44.223Z" transform="matrix(0.921, -0.391, 0.391, 0.921, 531.298, 85.03)"/><path class="d" d="M1.2,23.3c3.093,4.863,13.92,12.553,14.71,19.654.732,7.045-2.851,11.313-1.442,14.1a24.46,24.46,0,0,0,3.032,4.641S42.673,48.987,35.382,33.927,22.7,24.438,20.165,18.475c-2.244-5.239-2.971-11.951-1.886-15.646A2.024,2.024,0,0,0,16.931.373c-2-.694-5.368-.8-9.3,3.133C1.231,9.837-1.888,18.432,1.2,23.3Z" transform="matrix(0.921, -0.391, 0.391, 0.921, 536.986, 56.345)"/><path class="e" d="M572.27,222.421a308.053,308.053,0,0,0-29.89,69.3c-14.312,48.992-23.78,103.708-23.78,103.708l121.323,5.945c8.422-25.927,9.138-73.652,9.138-73.652C654.675,223.577,615.592,197.1,615.592,197.1L588.4,200.073l-6.606,8.422A127.319,127.319,0,0,0,572.27,222.421Z" transform="translate(-33.768 -69.722)"/><path class="f" d="M616.3,291.028c2.642-2.973,31.211-65.065,56.808-53.836s1.376,92.754,1.376,92.754Z" transform="translate(-77.687 -87.135)"/><path class="g" d="M614.017,682.587s10.459-7.651,25.266-27.248c6.33-8.367,11.174-18.551,14.863-28.239L617.6,762.735l.385,122.974a2.561,2.561,0,0,1-2.532,2.532l-9.083-.055a2.48,2.48,0,0,1-2.422-1.872l-32.312-122.2L570.2,749.469Z" transform="translate(-56.964 -263.021)"/><path class="h" d="M502.132,555.885l-11.174-.385L458.7,732.2l1.046,119.561a3.736,3.736,0,0,0,3.743,3.688h7.431a3.767,3.767,0,0,0,3.633-2.807l29.065-110.424,60.331-91.873s10.459-7.651,25.266-27.248C607.436,598.877,613.6,559.9,613.6,559.9Z" transform="translate(-6.841 -230.834)"/><path class="c" d="M637.4,375.018c-10.349,47.175-103.6,107.836-103.6,107.836l1.046-14.367C545.69,464.3,579.214,336.1,579.214,336.1Z" transform="translate(-40.601 -132.207)"/><path class="g" d="M507.9,555.5l11.174.385c-6.22,19.542,5.835,41.725,5.5,42.386-6.661,12-18.771,17.67-28.184,20.367Z" transform="translate(-23.788 -230.834)"/></g></svg>