<svg xmlns="http://www.w3.org/2000/svg" viewBox="0 0 179 610.434"><defs><style>.a{fill:#2cb678;}.b{fill:#010101;}.c{fill:#f8d2af;}.d{fill:#533613;}.e{fill:#2adb7e;}.f{fill:#5cd89f;}.g{fill:#332b3b;}.h{fill:#302533;}</style></defs><g transform="translate(-443.482 -41.484)"><path class="a" d="M644.625,1095.106l.229,6.771.115,2.917.057,2.037.057,2.862.172,4.349H632.944l-.057-4.349-.057-2.862-.057-2.037v-2.917l-.172-8.477Z" transform="translate(-130.871 -472.638)"/><path class="a" d="M474.582,1095.106l.229,6.771.057,2.917.057,2.037.115,2.862.115,4.349H462.9l-.057-4.349-.057-2.862-.057-2.037-.057-2.917-.172-8.477Z" transform="translate(136.437 -472.638)"/><path class="b" d="M626.594,1130.855c.458,3.853,5.612,5.78,8.7,6.33h.115a2.087,2.087,0,0,1-.515,4.129c-4.008.055-11.567.11-14.659-.055-4.295-.22-5.1-2.917-5.1-2.917l-.859-7.541h12.312Z" transform="translate(-112.217 -489.451)"/><path class="b" d="M455.794,1130.855c.458,3.853,5.612,5.78,8.7,6.33h.115a2.087,2.087,0,0,1-.515,4.129c-4.008.055-11.567.11-14.659-.055-4.295-.22-5.1-2.917-5.1-2.917l-.859-7.541h12.312Z" transform="translate(156.199 -489.451)"/><path class="c" d="M23.938,17.837a35.724,35.724,0,0,1,14.4,9.637c9.961,10.8,11.975,24.864,4.375,31.41-7.542,6.545-21.766,3.079-31.786-7.717C1.421,40.926-.787,27.714,5.527,20.8,5.038,15.82,3.533,2.764,0,0L31.194,2.008C31.016,2.068,24.246,11.2,23.938,17.837Z" transform="matrix(-0.921, -0.391, 0.391, -0.921, 506.115, 142.366)"/><path class="d" d="M1.313,38.869c3.269-4.938,14.577-12.832,15.5-19.988.859-7.1-2.785-11.341-1.287-14.168A25.58,25.58,0,0,1,18.725,0S44.568,12.419,36.81,27.678,23.562,37.408,20.85,43.445c-2.4,5.3-3.245,12.068-2.177,15.77a2.089,2.089,0,0,1-1.429,2.491c-2.083.727-5.563.881-9.57-3.017C1.146,52.41-1.956,43.808,1.313,38.869Z" transform="matrix(-0.921, -0.391, 0.391, -0.921, 500.915, 113.61)"/><path class="e" d="M599.056,222.421a301.933,301.933,0,0,1,31.094,69.3c14.888,48.992,24.738,103.708,24.738,103.708L528.68,401.378c-8.761-25.927-9.506-73.652-9.506-73.652C513.333,223.577,553.99,197.1,553.99,197.1l28.288,2.973,6.872,8.422A127.22,127.22,0,0,1,599.056,222.421Z" transform="translate(-75.118 -69.722)"/><path class="f" d="M687.613,291.028c-2.749-2.973-32.468-65.065-59.1-53.836s-1.432,92.754-1.432,92.754Z" transform="translate(-163.789 -87.135)"/><path class="g" d="M611.945,682.587s-10.88-7.651-26.284-27.248c-6.585-8.367-11.624-18.551-15.461-28.239l38.023,135.635-.4,122.974a2.614,2.614,0,0,0,2.634,2.532l9.448-.055a2.563,2.563,0,0,0,2.52-1.872l33.613-122.2,1.489-14.642Z" transform="translate(-107.304 -263.021)"/><path class="h" d="M574.44,555.885l11.6-.385,33.493,176.7L618.45,851.761a3.812,3.812,0,0,1-3.887,3.688h-7.716a3.889,3.889,0,0,1-3.772-2.807L572.9,742.218l-62.643-91.873s-10.86-7.651-26.234-27.248C465.1,598.877,458.7,559.9,458.7,559.9Z" transform="translate(-5.768 -230.834)"/><path class="c" d="M533.8,375.018c10.765,47.175,107.769,107.836,107.769,107.836l-1.088-14.367C629.2,464.3,594.327,336.1,594.327,336.1Z" transform="translate(-70.503 -132.207)"/><path class="g" d="M513.757,555.5l-11.624.385c6.471,19.542-6.07,41.725-5.726,42.386,6.929,12,19.527,17.67,29.319,20.367Z" transform="translate(66.515 -230.834)"/></g></svg>