<svg id="ey5hmzhb6ogk1" xmlns="http://www.w3.org/2000/svg" xmlns:xlink="http://www.w3.org/1999/xlink" viewBox="0 0 150 150" shape-rendering="geometricPrecision" text-rendering="geometricPrecision"><style><![CDATA[#ey5hmzhb6ogk2_to {animation: ey5hmzhb6ogk2_to__to 4000ms linear infinite normal forwards}@keyframes ey5hmzhb6ogk2_to__to { 0% {transform: translate(68.152024px,69.501226px);animation-timing-function: cubic-bezier(0.420000,0,0.580000,1)} 10% {transform: translate(68.152024px,69.501226px);animation-timing-function: cubic-bezier(0.420000,0,0.580000,1)} 20% {transform: translate(64.277906px,73.090707px);animation-timing-function: cubic-bezier(0.420000,0,0.580000,1)} 50% {transform: translate(64.277906px,73.090707px);animation-timing-function: cubic-bezier(0.420000,0,0.580000,1)} 80% {transform: translate(64.277906px,73.090707px);animation-timing-function: cubic-bezier(0.420000,0,0.580000,1)} 90% {transform: translate(68.152024px,69.501226px);animation-timing-function: cubic-bezier(0.420000,0,0.580000,1)} 100% {transform: translate(68.152024px,69.501226px)} }#ey5hmzhb6ogk2_tr {animation: ey5hmzhb6ogk2_tr__tr 4000ms linear infinite normal forwards}@keyframes ey5hmzhb6ogk2_tr__tr { 0% {transform: rotate(0deg);animation-timing-function: cubic-bezier(0.420000,0,0.580000,1)} 10% {transform: rotate(0deg);animation-timing-function: cubic-bezier(0.420000,0,0.580000,1)} 20% {transform: rotate(-28.025038deg);animation-timing-function: cubic-bezier(0.420000,0,0.580000,1)} 50% {transform: rotate(-28.025038deg);animation-timing-function: cubic-bezier(0.420000,0,0.580000,1)} 80% {transform: rotate(-28.025038deg);animation-timing-function: cubic-bezier(0.420000,0,0.580000,1)} 90% {transform: rotate(0deg);animation-timing-function: cubic-bezier(0.420000,0,0.580000,1)} 100% {transform: rotate(0deg)} }#ey5hmzhb6ogk2_ts {animation: ey5hmzhb6ogk2_ts__ts 4000ms linear infinite normal forwards}@keyframes ey5hmzhb6ogk2_ts__ts { 0% {transform: scale(1,1);animation-timing-function: cubic-bezier(0.420000,0,0.580000,1)} 10% {transform: scale(1,1);animation-timing-function: cubic-bezier(0.420000,0,0.580000,1)} 20% {transform: scale(1,1);animation-timing-function: cubic-bezier(0.420000,0,0.580000,1)} 50% {transform: scale(1,1);animation-timing-function: cubic-bezier(0.420000,0,0.580000,1)} 80% {transform: scale(1,1);animation-timing-function: cubic-bezier(0.420000,0,0.580000,1)} 90% {transform: scale(1,1);animation-timing-function: cubic-bezier(0.420000,0,0.580000,1)} 100% {transform: scale(1,1)} }#ey5hmzhb6ogk5_to {animation: ey5hmzhb6ogk5_to__to 4000ms linear infinite normal forwards}@keyframes ey5hmzhb6ogk5_to__to { 0% {transform: translate(66.915197px,123.003226px);animation-timing-function: cubic-bezier(0.420000,0,0.580000,1)} 10% {transform: translate(65.159314px,125.464708px);animation-timing-function: cubic-bezier(0.420000,0,0.580000,1)} 20% {transform: translate(65.159314px,125.464708px);animation-timing-function: cubic-bezier(0.420000,0,0.580000,1)} 50% {transform: translate(65.159314px,125.464708px);animation-timing-function: cubic-bezier(0.420000,0,0.580000,1)} 80% {transform: translate(65.159314px,125.464708px);animation-timing-function: cubic-bezier(0.420000,0,0.580000,1)} 90% {transform: translate(65.159314px,125.464708px);animation-timing-function: cubic-bezier(0.420000,0,0.580000,1)} 100% {transform: translate(66.915197px,123.003226px)} }#ey5hmzhb6ogk5_tr {animation: ey5hmzhb6ogk5_tr__tr 4000ms linear infinite normal forwards}@keyframes ey5hmzhb6ogk5_tr__tr { 0% {transform: rotate(0deg);animation-timing-function: cubic-bezier(0.420000,0,0.580000,1)} 10% {transform: rotate(-27.809546deg);animation-timing-function: cubic-bezier(0.420000,0,0.580000,1)} 20% {transform: rotate(-27.809546deg);animation-timing-function: cubic-bezier(0.420000,0,0.580000,1)} 50% {transform: rotate(-27.809546deg);animation-timing-function: cubic-bezier(0.420000,0,0.580000,1)} 80% {transform: rotate(-27.809546deg);animation-timing-function: cubic-bezier(0.420000,0,0.580000,1)} 90% {transform: rotate(-27.809546deg);animation-timing-function: cubic-bezier(0.420000,0,0.580000,1)} 100% {transform: rotate(0deg)} }#ey5hmzhb6ogk5_ts {animation: ey5hmzhb6ogk5_ts__ts 4000ms linear infinite normal forwards}@keyframes ey5hmzhb6ogk5_ts__ts { 0% {transform: scale(1,1);animation-timing-function: cubic-bezier(0.420000,0,0.580000,1)} 20% {transform: scale(1,1);animation-timing-function: cubic-bezier(0.420000,0,0.580000,1)} 50% {transform: scale(1,1);animation-timing-function: cubic-bezier(0.420000,0,0.580000,1)} 80% {transform: scale(1,1);animation-timing-function: cubic-bezier(0.420000,0,0.580000,1)} 100% {transform: scale(1,1)} }#ey5hmzhb6ogk8_to {animation: ey5hmzhb6ogk8_to__to 4000ms linear infinite normal forwards}@keyframes ey5hmzhb6ogk8_to__to { 0% {transform: translate(83.209422px,71.926459px);animation-timing-function: cubic-bezier(0.420000,0,0.580000,1)} 20% {transform: translate(83.209422px,71.926459px);animation-timing-function: cubic-bezier(0.420000,0,0.580000,1)} 30% {transform: translate(26.232244px,16.696387px);animation-timing-function: cubic-bezier(0.420000,0,0.580000,1)} 50% {transform: translate(26.232244px,16.696387px);animation-timing-function: cubic-bezier(0.420000,0,0.580000,1)} 70% {transform: translate(26.232244px,16.696387px);animation-timing-function: cubic-bezier(0.420000,0,0.580000,1)} 80% {transform: translate(83.209422px,71.926459px);animation-timing-function: cubic-bezier(0.420000,0,0.580000,1)} 100% {transform: translate(83.209422px,71.926459px)} }#ey5hmzhb6ogk8_tr {animation: ey5hmzhb6ogk8_tr__tr 4000ms linear infinite normal forwards}@keyframes ey5hmzhb6ogk8_tr__tr { 0% {transform: rotate(0deg);animation-timing-function: cubic-bezier(0.420000,0,0.580000,1)} 20% {transform: rotate(0deg);animation-timing-function: cubic-bezier(0.420000,0,0.580000,1)} 30% {transform: rotate(31.005199deg);animation-timing-function: cubic-bezier(0.420000,0,0.580000,1)} 50% {transform: rotate(31.005199deg);animation-timing-function: cubic-bezier(0.420000,0,0.580000,1)} 70% {transform: rotate(31.005199deg);animation-timing-function: cubic-bezier(0.420000,0,0.580000,1)} 80% {transform: rotate(0deg);animation-timing-function: cubic-bezier(0.420000,0,0.580000,1)} 100% {transform: rotate(0deg)} }#ey5hmzhb6ogk8_ts {animation: ey5hmzhb6ogk8_ts__ts 4000ms linear infinite normal forwards}@keyframes ey5hmzhb6ogk8_ts__ts { 0% {transform: scale(1,1);animation-timing-function: cubic-bezier(0.420000,0,0.580000,1)} 20% {transform: scale(1,1);animation-timing-function: cubic-bezier(0.420000,0,0.580000,1)} 30% {transform: scale(1,1);animation-timing-function: cubic-bezier(0.420000,0,0.580000,1)} 50% {transform: scale(1,1);animation-timing-function: cubic-bezier(0.420000,0,0.580000,1)} 70% {transform: scale(1,1);animation-timing-function: cubic-bezier(0.420000,0,0.580000,1)} 80% {transform: scale(1,1);animation-timing-function: cubic-bezier(0.420000,0,0.580000,1)} 100% {transform: scale(1,1)} }#ey5hmzhb6ogk14_to {animation: ey5hmzhb6ogk14_to__to 4000ms linear infinite normal forwards}@keyframes ey5hmzhb6ogk14_to__to { 0% {transform: translate(125.560791px,103.625709px);animation-timing-function: cubic-bezier(0.420000,0,0.580000,1)} 35% {transform: translate(125.560791px,103.625709px);animation-timing-function: cubic-bezier(0.420000,0,0.580000,1)} 50% {transform: translate(125.560791px,103.625709px);animation-timing-function: cubic-bezier(0.420000,0,0.580000,1)} 65% {transform: translate(125.560791px,103.625709px);animation-timing-function: cubic-bezier(0.420000,0,0.580000,1)} 100% {transform: translate(125.560791px,103.625709px)} }#ey5hmzhb6ogk14_tr {animation: ey5hmzhb6ogk14_tr__tr 4000ms linear infinite normal forwards}@keyframes ey5hmzhb6ogk14_tr__tr { 0% {transform: rotate(0deg);animation-timing-function: cubic-bezier(0.420000,0,0.580000,1)} 35% {transform: rotate(0deg);animation-timing-function: cubic-bezier(0.420000,0,0.580000,1)} 50% {transform: rotate(-61.703140deg);animation-timing-function: cubic-bezier(0.420000,0,0.580000,1)} 65% {transform: rotate(0deg);animation-timing-function: cubic-bezier(0.420000,0,0.580000,1)} 100% {transform: rotate(0deg)} }#ey5hmzhb6ogk14_ts {animation: ey5hmzhb6ogk14_ts__ts 4000ms linear infinite normal forwards}@keyframes ey5hmzhb6ogk14_ts__ts { 0% {transform: scale(1,1);animation-timing-function: cubic-bezier(0.420000,0,0.580000,1)} 35% {transform: scale(1,1);animation-timing-function: cubic-bezier(0.420000,0,0.580000,1)} 50% {transform: scale(0.893952,0.891759);animation-timing-function: cubic-bezier(0.420000,0,0.580000,1)} 65% {transform: scale(1,1);animation-timing-function: cubic-bezier(0.420000,0,0.580000,1)} 100% {transform: scale(1,1)} }#ey5hmzhb6ogk17_to {animation: ey5hmzhb6ogk17_to__to 4000ms linear infinite normal forwards}@keyframes ey5hmzhb6ogk17_to__to { 0% {transform: translate(32.946096px,42.776970px);animation-timing-function: cubic-bezier(0.420000,0,0.580000,1)} 10% {transform: translate(32.946096px,42.776970px);animation-timing-function: cubic-bezier(0.420000,0,0.580000,1)} 20% {transform: translate(16.210951px,65.294346px);animation-timing-function: cubic-bezier(0.420000,0,0.580000,1)} 50% {transform: translate(16.210951px,65.294346px);animation-timing-function: cubic-bezier(0.420000,0,0.580000,1)} 80% {transform: translate(16.210951px,65.294346px);animation-timing-function: cubic-bezier(0.420000,0,0.580000,1)} 90% {transform: translate(32.946096px,42.776970px);animation-timing-function: cubic-bezier(0.420000,0,0.580000,1)} 100% {transform: translate(32.946096px,42.776970px)} }#ey5hmzhb6ogk17_tr {animation: ey5hmzhb6ogk17_tr__tr 4000ms linear infinite normal forwards}@keyframes ey5hmzhb6ogk17_tr__tr { 0% {transform: rotate(0deg);animation-timing-function: cubic-bezier(0.420000,0,0.580000,1)} 10% {transform: rotate(0deg);animation-timing-function: cubic-bezier(0.420000,0,0.580000,1)} 20% {transform: rotate(-61.875301deg);animation-timing-function: cubic-bezier(0.420000,0,0.580000,1)} 50% {transform: rotate(-61.875301deg);animation-timing-function: cubic-bezier(0.420000,0,0.580000,1)} 80% {transform: rotate(-61.875301deg);animation-timing-function: cubic-bezier(0.420000,0,0.580000,1)} 90% {transform: rotate(0deg);animation-timing-function: cubic-bezier(0.420000,0,0.580000,1)} 100% {transform: rotate(0deg)} }#ey5hmzhb6ogk17_ts {animation: ey5hmzhb6ogk17_ts__ts 4000ms linear infinite normal forwards}@keyframes ey5hmzhb6ogk17_ts__ts { 0% {transform: scale(1,1);animation-timing-function: cubic-bezier(0.420000,0,0.580000,1)} 10% {transform: scale(1,1);animation-timing-function: cubic-bezier(0.420000,0,0.580000,1)} 20% {transform: scale(1,1);animation-timing-function: cubic-bezier(0.420000,0,0.580000,1)} 50% {transform: scale(1,1);animation-timing-function: cubic-bezier(0.420000,0,0.580000,1)} 80% {transform: scale(1,1);animation-timing-function: cubic-bezier(0.420000,0,0.580000,1)} 90% {transform: scale(1,1);animation-timing-function: cubic-bezier(0.420000,0,0.580000,1)} 100% {transform: scale(1,1)} }]]></style><g id="ey5hmzhb6ogk2_to" transform="translate(68.152024,69.501226)"><g id="ey5hmzhb6ogk2_tr" transform="rotate(0)"><g id="ey5hmzhb6ogk2_ts" transform="scale(1,1)"><g id="ey5hmzhb6ogk2" transform="translate(-68.152024,-69.501226)"><rect id="ey5hmzhb6ogk3" width="5.601000" height="42.316000" rx="0" ry="0" transform="matrix(0.46769800000000 -0.88388800000000 0.88388800000000 0.46769800000000 30.64892200499996 53.93922599500007)" fill="rgb(30,28,36)" stroke="none" stroke-width="1"/><path id="ey5hmzhb6ogk4" d="M103.200000,14.500000C97.014411,14.500000,92,19.514411,92,25.700000C92,31.885589,97.014411,36.900000,103.200000,36.900000C109.385589,36.900000,114.400000,31.885589,114.400000,25.700000C114.412022,22.725906,113.235886,19.870152,111.132867,17.767133C109.029848,15.664114,106.174094,14.487978,103.200000,14.500000ZM103.200000,31.924000C99.763132,31.924000,96.977000,29.137868,96.977000,25.701000C96.977000,22.264132,99.763132,19.478000,103.200000,19.478000C106.636868,19.478000,109.423000,22.264132,109.423000,25.701000C109.413114,29.133765,106.632765,31.914114,103.200000,31.924000Z" transform="matrix(1 0 0 1 -78.76104563000001 21.60854563500003)" fill="rgb(30,28,36)" stroke="none" stroke-width="1"/></g></g></g></g><g id="ey5hmzhb6ogk5_to" transform="translate(66.915197,123.003226)"><g id="ey5hmzhb6ogk5_tr" transform="rotate(0)"><g id="ey5hmzhb6ogk5_ts" transform="scale(1,1)"><g id="ey5hmzhb6ogk5" transform="translate(-66.915197,-123.003226)"><rect id="ey5hmzhb6ogk6" width="5.289000" height="40.760000" rx="0" ry="0" transform="matrix(0.46769800000000 -0.88388800000000 0.88388800000000 0.46769800000000 30.88792200499999 107.43522599500010)" fill="rgb(30,28,36)" stroke="none" stroke-width="1"/><path id="ey5hmzhb6ogk7" d="M103.200000,32.500000C97.014411,32.500000,92,37.514411,92,43.700000C92,49.885589,97.014411,54.900000,103.200000,54.900000C109.385589,54.900000,114.400000,49.885589,114.400000,43.700000C114.412022,40.725906,113.235886,37.870152,111.132867,35.767133C109.029848,33.664114,106.174094,32.487978,103.200000,32.500000ZM103.200000,49.924000C99.763132,49.924000,96.977000,47.137868,96.977000,43.701000C96.977000,40.264132,99.763132,37.478000,103.200000,37.478000C106.636868,37.478000,109.423000,40.264132,109.423000,43.701000C109.413114,47.133765,106.632765,49.914114,103.200000,49.924000Z" transform="matrix(1 0 0 1 -78.76104563000001 59.61354563500003)" fill="rgb(115,197,152)" stroke="none" stroke-width="1"/></g></g></g></g><g id="ey5hmzhb6ogk8_to" transform="translate(83.209422,71.926459)"><g id="ey5hmzhb6ogk8_tr" transform="rotate(0)"><g id="ey5hmzhb6ogk8_ts" transform="scale(1,1)"><g id="ey5hmzhb6ogk8" transform="translate(-83.209422,-71.926459)"><rect id="ey5hmzhb6ogk9" width="42.316000" height="5.601000" rx="0" ry="0" transform="matrix(0.86600000000000 -0.50000000000000 0.50000000000000 0.86600000000000 80.40892200499995 69.50122599500007)" fill="rgb(30,28,36)" stroke="none" stroke-width="1"/><path id="ey5hmzhb6ogk10" d="M135.700000,14.500000C131.170023,14.500000,127.086096,17.228792,125.352549,21.413946C123.619002,25.599099,124.577226,30.416418,127.780404,33.619596C130.983582,36.822774,135.800901,37.780998,139.986054,36.047451C144.171208,34.313904,146.900000,30.229977,146.900000,25.700000C146.912022,22.725906,145.735886,19.870152,143.632867,17.767133C141.529848,15.664114,138.674094,14.487978,135.700000,14.500000ZM135.700000,31.924000C132.263132,31.924000,129.477000,29.137868,129.477000,25.701000C129.477000,22.264132,132.263132,19.478000,135.700000,19.478000C139.136868,19.478000,141.923000,22.264132,141.923000,25.701000C141.613000,29.124000,138.813000,31.924000,135.700000,31.924000Z" transform="matrix(1 0 0 1 -10.54633711466660 21.04251850161643)" fill="rgb(30,28,36)" stroke="none" stroke-width="1"/></g></g></g></g><g id="ey5hmzhb6ogk11"><rect id="ey5hmzhb6ogk12" width="5.601000" height="34.226000" rx="0" ry="0" transform="matrix(1 0 0 1 72.71392200500001 82.83922599500009)" fill="rgb(30,28,36)" stroke="none" stroke-width="1"/><path id="ey5hmzhb6ogk13" d="M119.500000,23.400000C114.970023,23.400000,110.886096,26.128792,109.152549,30.313946C107.419002,34.499099,108.377226,39.316418,111.580404,42.519596C114.783582,45.722774,119.600901,46.680998,123.786054,44.947451C127.971208,43.213904,130.700000,39.129977,130.700000,34.600000C130.616074,28.449509,125.650491,23.483926,119.500000,23.400000ZM119.500000,40.824000C116.063132,40.824000,113.277000,38.037868,113.277000,34.601000C113.277000,31.164132,116.063132,28.378000,119.500000,28.378000C122.936868,28.378000,125.723000,31.164132,125.723000,34.601000C125.771620,36.265872,125.131611,37.877123,123.953867,39.054867C122.776123,40.232611,121.164872,40.872620,119.500000,40.824000Z" transform="matrix(1 0 0 1 -44.34404563000001 40.39954563500003)" fill="rgb(115,197,152)" stroke="none" stroke-width="1"/></g><g id="ey5hmzhb6ogk14_to" transform="translate(125.560791,103.625709)"><g id="ey5hmzhb6ogk14_tr" transform="rotate(0)"><g id="ey5hmzhb6ogk14_ts" transform="scale(1,1)"><g id="ey5hmzhb6ogk14" transform="translate(-125.560791,-103.625709)"><rect id="ey5hmzhb6ogk15" width="41.071000" height="5.289000" rx="0" ry="0" transform="matrix(0.86600000000000 -0.50000000000000 0.50000000000000 0.86600000000000 81.64192200500001 123.00322599500008)" fill="rgb(30,28,36)" stroke="none" stroke-width="1"/><path id="ey5hmzhb6ogk16" d="M135.700000,32.600000C131.170023,32.600000,127.086096,35.328792,125.352549,39.513946C123.619002,43.699099,124.577226,48.516418,127.780404,51.719596C130.983582,54.922774,135.800901,55.880998,139.986054,54.147451C144.171208,52.413904,146.900000,48.329977,146.900000,43.800000C146.816074,37.649509,141.850491,32.683926,135.700000,32.600000ZM135.700000,50.024000C132.263132,50.024000,129.477000,47.237868,129.477000,43.801000C129.477000,40.364132,132.263132,37.578000,135.700000,37.578000C139.136868,37.578000,141.923000,40.364132,141.923000,43.801000C141.613000,47.224000,138.813000,50.024000,135.700000,50.024000Z" transform="matrix(1 0 0 1 -10.13904563000001 59.82554563500003)" fill="rgb(115,197,152)" stroke="none" stroke-width="1"/></g></g></g></g><g id="ey5hmzhb6ogk17_to" transform="translate(32.946096,42.776970)"><g id="ey5hmzhb6ogk17_tr" transform="rotate(0)"><g id="ey5hmzhb6ogk17_ts" transform="scale(1,1)"><g id="ey5hmzhb6ogk17" transform="translate(-32.946096,-42.776970)"><rect id="ey5hmzhb6ogk18" width="41.611558" height="5.601000" rx="0" ry="0" transform="matrix(0.89582000000000 -0.44441600000000 0.44441600000000 0.89582000000000 30.45692200499995 40.26822599500007)" fill="rgb(30,28,36)" stroke="none" stroke-width="1"/><path id="ey5hmzhb6ogk19" d="M119.500000,6.500000C114.970023,6.500000,110.886096,9.228792,109.152549,13.413946C107.419002,17.599099,108.377226,22.416418,111.580404,25.619596C114.783582,28.822774,119.600901,29.780998,123.786054,28.047451C127.971208,26.313904,130.700000,22.229977,130.700000,17.700000C130.712022,14.725906,129.535886,11.870152,127.432867,9.767133C125.329848,7.664114,122.474094,6.487978,119.500000,6.500000ZM119.500000,23.924000C116.063132,23.924000,113.277000,21.137868,113.277000,17.701000C113.277000,14.264132,116.063132,11.478000,119.500000,11.478000C122.936868,11.478000,125.723000,14.264132,125.723000,17.701000C125.713114,21.133765,122.932765,23.914114,119.500000,23.924000Z" transform="matrix(1 0 0 1 -44.34404563000001 4.71654563500003)" fill="rgb(30,28,36)" stroke="none" stroke-width="1"/></g></g></g></g><path id="ey5hmzhb6ogk20" d="M119.500000,40.300000C113.314411,40.300000,108.300000,45.314411,108.300000,51.500000C108.300000,57.685589,113.314411,62.700000,119.500000,62.700000C125.685589,62.700000,130.700000,57.685589,130.700000,51.500000C130.712022,48.525906,129.535886,45.670152,127.432867,43.567133C125.329848,41.464114,122.474094,40.287978,119.500000,40.300000ZM119.500000,57.724000C116.063132,57.724000,113.277000,54.937868,113.277000,51.501000C113.277000,48.064132,116.063132,45.278000,119.500000,45.278000C122.936868,45.278000,125.723000,48.064132,125.723000,51.501000C125.713114,54.933765,122.932765,57.714114,119.500000,57.724000Z" transform="matrix(1 0 0 1 -44.34404563000001 76.08354563500004)" fill="rgb(30,28,36)" stroke="none" stroke-width="1"/></svg>