<svg id="es4wqg482iw1" xmlns="http://www.w3.org/2000/svg" xmlns:xlink="http://www.w3.org/1999/xlink" viewBox="0 0 160 160" shape-rendering="geometricPrecision" text-rendering="geometricPrecision"><style><![CDATA[#es4wqg482iw2_to {animation: es4wqg482iw2_to__to 2000ms linear infinite normal forwards}@keyframes es4wqg482iw2_to__to { 0% {transform: translate(71.915197px,74.501226px);animation-timing-function: cubic-bezier(0.420000,0,0.580000,1)} 50% {transform: translate(69.848711px,78.976863px);animation-timing-function: cubic-bezier(0.420000,0,0.580000,1)} 100% {transform: translate(71.915197px,74.501226px)} }#es4wqg482iw2_tr {animation: es4wqg482iw2_tr__tr 2000ms linear infinite normal forwards}@keyframes es4wqg482iw2_tr__tr { 0% {transform: rotate(0deg);animation-timing-function: cubic-bezier(0.420000,0,0.580000,1)} 50% {transform: rotate(-26.226246deg);animation-timing-function: cubic-bezier(0.420000,0,0.580000,1)} 100% {transform: rotate(0deg)} }#es4wqg482iw2_ts {animation: es4wqg482iw2_ts__ts 2000ms linear infinite normal forwards}@keyframes es4wqg482iw2_ts__ts { 0% {transform: scale(1,1);animation-timing-function: cubic-bezier(0.420000,0,0.580000,1)} 100% {transform: scale(1,1)} }#es4wqg482iw5_to {animation: es4wqg482iw5_to__to 2000ms linear infinite normal forwards}@keyframes es4wqg482iw5_to__to { 0% {transform: translate(71.915197px,128.003226px);animation-timing-function: cubic-bezier(0.420000,0,0.580000,1)} 50% {transform: translate(70.599831px,131.297853px);animation-timing-function: cubic-bezier(0.420000,0,0.580000,1)} 100% {transform: translate(71.915197px,128.003226px)} }#es4wqg482iw5_tr {animation: es4wqg482iw5_tr__tr 2000ms linear infinite normal forwards}@keyframes es4wqg482iw5_tr__tr { 0% {transform: rotate(0deg);animation-timing-function: cubic-bezier(0.420000,0,0.580000,1)} 50% {transform: rotate(-26.165080deg);animation-timing-function: cubic-bezier(0.420000,0,0.580000,1)} 100% {transform: rotate(0deg)} }#es4wqg482iw5_ts {animation: es4wqg482iw5_ts__ts 2000ms linear infinite normal forwards}@keyframes es4wqg482iw5_ts__ts { 0% {transform: scale(1,1);animation-timing-function: cubic-bezier(0.420000,0,0.580000,1)} 100% {transform: scale(1,1)} }#es4wqg482iw8_to {animation: es4wqg482iw8_to__to 2000ms linear infinite normal forwards}@keyframes es4wqg482iw8_to__to { 0% {transform: translate(88.209422px,76.255006px);animation-timing-function: cubic-bezier(0.420000,0,0.580000,1)} 50% {transform: translate(33.239223px,25.040141px);animation-timing-function: cubic-bezier(0.420000,0,0.580000,1)} 100% {transform: translate(88.209422px,76.255006px)} }#es4wqg482iw8_tr {animation: es4wqg482iw8_tr__tr 2000ms linear infinite normal forwards}@keyframes es4wqg482iw8_tr__tr { 0% {transform: rotate(0deg);animation-timing-function: cubic-bezier(0.420000,0,0.580000,1)} 50% {transform: rotate(31.256391deg);animation-timing-function: cubic-bezier(0.420000,0,0.580000,1)} 100% {transform: rotate(0deg)} }#es4wqg482iw8_ts {animation: es4wqg482iw8_ts__ts 2000ms linear infinite normal forwards}@keyframes es4wqg482iw8_ts__ts { 0% {transform: scale(1,1);animation-timing-function: cubic-bezier(0.420000,0,0.580000,1)} 100% {transform: scale(1,1)} }#es4wqg482iw11_to {animation: es4wqg482iw11_to__to 2000ms linear infinite normal forwards}@keyframes es4wqg482iw11_to__to { 0% {transform: translate(80.155788px,95.432388px);animation-timing-function: cubic-bezier(0.420000,0,0.580000,1)} 100% {transform: translate(80.155788px,95.432388px)} }#es4wqg482iw11_tr {animation: es4wqg482iw11_tr__tr 2000ms linear infinite normal forwards}@keyframes es4wqg482iw11_tr__tr { 0% {transform: rotate(0deg);animation-timing-function: cubic-bezier(0.420000,0,0.580000,1)} 100% {transform: rotate(0deg)} }#es4wqg482iw11_ts {animation: es4wqg482iw11_ts__ts 2000ms linear infinite normal forwards}@keyframes es4wqg482iw11_ts__ts { 0% {transform: scale(1,1);animation-timing-function: cubic-bezier(0.420000,0,0.580000,1)} 100% {transform: scale(1,1)} }#es4wqg482iw14_to {animation: es4wqg482iw14_to__to 2000ms linear infinite normal forwards}@keyframes es4wqg482iw14_to__to { 0% {transform: translate(130.608131px,108.634698px);animation-timing-function: cubic-bezier(0.420000,0,0.580000,1)} 100% {transform: translate(130.534160px,108.804823px)} }#es4wqg482iw14_tr {animation: es4wqg482iw14_tr__tr 2000ms linear infinite normal forwards}@keyframes es4wqg482iw14_tr__tr { 0% {transform: rotate(0deg);animation-timing-function: cubic-bezier(0.420000,0,0.580000,1)} 50% {transform: rotate(-64.409149deg);animation-timing-function: cubic-bezier(0.420000,0,0.580000,1)} 100% {transform: rotate(0deg)} }#es4wqg482iw14_ts {animation: es4wqg482iw14_ts__ts 2000ms linear infinite normal forwards}@keyframes es4wqg482iw14_ts__ts { 0% {transform: scale(1,1);animation-timing-function: cubic-bezier(0.420000,0,0.580000,1)} 100% {transform: scale(1,1)} }#es4wqg482iw17_to {animation: es4wqg482iw17_to__to 2000ms linear infinite normal forwards}@keyframes es4wqg482iw17_to__to { 0% {transform: translate(37.477729px,47.965857px);animation-timing-function: cubic-bezier(0.420000,0,0.580000,1)} 50% {transform: translate(23.301224px,70.510110px);animation-timing-function: cubic-bezier(0.420000,0,0.580000,1)} 100% {transform: translate(37.477729px,47.965857px)} }#es4wqg482iw17_tr {animation: es4wqg482iw17_tr__tr 2000ms linear infinite normal forwards}@keyframes es4wqg482iw17_tr__tr { 0% {transform: rotate(0deg);animation-timing-function: cubic-bezier(0.420000,0,0.580000,1)} 50% {transform: rotate(-63.541286deg);animation-timing-function: cubic-bezier(0.420000,0,0.580000,1)} 100% {transform: rotate(0deg)} }#es4wqg482iw17_ts {animation: es4wqg482iw17_ts__ts 2000ms linear infinite normal forwards}@keyframes es4wqg482iw17_ts__ts { 0% {transform: scale(1,1);animation-timing-function: cubic-bezier(0.420000,0,0.580000,1)} 100% {transform: scale(1,1)} }]]></style><g id="es4wqg482iw2_to" transform="translate(71.915197,74.501226)"><g id="es4wqg482iw2_tr" transform="rotate(0)"><g id="es4wqg482iw2_ts" transform="scale(1,1)"><g id="es4wqg482iw2" transform="translate(-71.915197,-74.501226)"><rect id="es4wqg482iw3" width="5.601000" height="42.316000" rx="0" ry="0" transform="matrix(0.46769800000000 -0.88388800000000 0.88388800000000 0.46769800000000 35.64892200500000 58.93922599500004)" fill="rgb(30,28,36)" stroke="none" stroke-width="1"/><path id="es4wqg482iw4" d="M103.200000,14.500000C97.014411,14.500000,92,19.514411,92,25.700000C92,31.885589,97.014411,36.900000,103.200000,36.900000C109.385589,36.900000,114.400000,31.885589,114.400000,25.700000C114.412022,22.725906,113.235886,19.870152,111.132867,17.767133C109.029848,15.664114,106.174094,14.487978,103.200000,14.500000ZM103.200000,31.924000C99.763132,31.924000,96.977000,29.137868,96.977000,25.701000C96.977000,22.264132,99.763132,19.478000,103.200000,19.478000C106.636868,19.478000,109.423000,22.264132,109.423000,25.701000C109.413114,29.133765,106.632765,31.914114,103.200000,31.924000Z" transform="matrix(1 0 0 1 -73.76104563000003 26.60854563500002)" fill="rgb(30,28,36)" stroke="none" stroke-width="1"/></g></g></g></g><g id="es4wqg482iw5_to" transform="translate(71.915197,128.003226)"><g id="es4wqg482iw5_tr" transform="rotate(0)"><g id="es4wqg482iw5_ts" transform="scale(1,1)"><g id="es4wqg482iw5" transform="translate(-71.915197,-128.003226)"><rect id="es4wqg482iw6" width="5.289000" height="40.760000" rx="0" ry="0" transform="matrix(0.46769800000000 -0.88388800000000 0.88388800000000 0.46769800000000 35.88792200500004 112.43522599500002)" fill="rgb(30,28,36)" stroke="none" stroke-width="1"/><path id="es4wqg482iw7" d="M103.200000,32.500000C97.014411,32.500000,92,37.514411,92,43.700000C92,49.885589,97.014411,54.900000,103.200000,54.900000C109.385589,54.900000,114.400000,49.885589,114.400000,43.700000C114.412022,40.725906,113.235886,37.870152,111.132867,35.767133C109.029848,33.664114,106.174094,32.487978,103.200000,32.500000ZM103.200000,49.924000C99.763132,49.924000,96.977000,47.137868,96.977000,43.701000C96.977000,40.264132,99.763132,37.478000,103.200000,37.478000C106.636868,37.478000,109.423000,40.264132,109.423000,43.701000C109.413114,47.133765,106.632765,49.914114,103.200000,49.924000Z" transform="matrix(1 0 0 1 -73.76104563000003 64.61354563500001)" fill="rgb(115,197,152)" stroke="none" stroke-width="1"/></g></g></g></g><g id="es4wqg482iw8_to" transform="translate(88.209422,76.255006)"><g id="es4wqg482iw8_tr" transform="rotate(0)"><g id="es4wqg482iw8_ts" transform="scale(1,1)"><g id="es4wqg482iw8" transform="translate(-88.209422,-76.255006)"><rect id="es4wqg482iw9" width="42.316000" height="5.601000" rx="0" ry="0" transform="matrix(0.86600000000000 -0.50000000000000 0.50000000000000 0.86600000000000 85.40892200500004 74.50122599500007)" fill="rgb(30,28,36)" stroke="none" stroke-width="1"/><path id="es4wqg482iw10" d="M135.700000,14.500000C131.170023,14.500000,127.086096,17.228792,125.352549,21.413946C123.619002,25.599099,124.577226,30.416418,127.780404,33.619596C130.983582,36.822774,135.800901,37.780998,139.986054,36.047451C144.171208,34.313904,146.900000,30.229977,146.900000,25.700000C146.912022,22.725906,145.735886,19.870152,143.632867,17.767133C141.529848,15.664114,138.674094,14.487978,135.700000,14.500000ZM135.700000,31.924000C132.263132,31.924000,129.477000,29.137868,129.477000,25.701000C129.477000,22.264132,132.263132,19.478000,135.700000,19.478000C139.136868,19.478000,141.923000,22.264132,141.923000,25.701000C141.613000,29.124000,138.813000,31.924000,135.700000,31.924000Z" transform="matrix(1 0 0 1 -5.13904563000003 26.60854563500002)" fill="rgb(30,28,36)" stroke="none" stroke-width="1"/></g></g></g></g><g id="es4wqg482iw11_to" transform="translate(80.155788,95.432388)"><g id="es4wqg482iw11_tr" transform="rotate(0)"><g id="es4wqg482iw11_ts" transform="scale(1,1)"><g id="es4wqg482iw11" transform="translate(-80.155788,-95.432388)"><rect id="es4wqg482iw12" width="5.601000" height="34.226000" rx="0" ry="0" transform="matrix(1 0 0 1 77.71392200500007 87.83922599500002)" fill="rgb(30,28,36)" stroke="none" stroke-width="1"/><path id="es4wqg482iw13" d="M119.500000,23.400000C114.970023,23.400000,110.886096,26.128792,109.152549,30.313946C107.419002,34.499099,108.377226,39.316418,111.580404,42.519596C114.783582,45.722774,119.600901,46.680998,123.786054,44.947451C127.971208,43.213904,130.700000,39.129977,130.700000,34.600000C130.616074,28.449509,125.650491,23.483926,119.500000,23.400000ZM119.500000,40.824000C116.063132,40.824000,113.277000,38.037868,113.277000,34.601000C113.277000,31.164132,116.063132,28.378000,119.500000,28.378000C122.936868,28.378000,125.723000,31.164132,125.723000,34.601000C125.771620,36.265872,125.131611,37.877123,123.953867,39.054867C122.776123,40.232611,121.164872,40.872620,119.500000,40.824000Z" transform="matrix(1 0 0 1 -39.34404563000003 45.39954563500002)" fill="rgb(115,197,152)" stroke="none" stroke-width="1"/></g></g></g></g><g id="es4wqg482iw14_to" transform="translate(130.608131,108.634698)"><g id="es4wqg482iw14_tr" transform="rotate(0)"><g id="es4wqg482iw14_ts" transform="scale(1,1)"><g id="es4wqg482iw14" transform="translate(-130.592238,-108.615575)"><rect id="es4wqg482iw15" width="41.071000" height="5.289000" rx="0" ry="0" transform="matrix(0.86600000000000 -0.50000000000000 0.50000000000000 0.86600000000000 86.64192200500010 128.00322599499998)" fill="rgb(30,28,36)" stroke="none" stroke-width="1"/><path id="es4wqg482iw16" d="M135.700000,32.600000C131.170023,32.600000,127.086096,35.328792,125.352549,39.513946C123.619002,43.699099,124.577226,48.516418,127.780404,51.719596C130.983582,54.922774,135.800901,55.880998,139.986054,54.147451C144.171208,52.413904,146.900000,48.329977,146.900000,43.800000C146.816074,37.649509,141.850491,32.683926,135.700000,32.600000ZM135.700000,50.024000C132.263132,50.024000,129.477000,47.237868,129.477000,43.801000C129.477000,40.364132,132.263132,37.578000,135.700000,37.578000C139.136868,37.578000,141.923000,40.364132,141.923000,43.801000C141.613000,47.224000,138.813000,50.024000,135.700000,50.024000Z" transform="matrix(1 0 0 1 -5.13904563000003 64.82554563500003)" fill="rgb(115,197,152)" stroke="none" stroke-width="1"/></g></g></g></g><g id="es4wqg482iw17_to" transform="translate(37.477729,47.965857)"><g id="es4wqg482iw17_tr" transform="rotate(0)"><g id="es4wqg482iw17_ts" transform="scale(1,1)"><g id="es4wqg482iw17" transform="translate(-37.477729,-47.965857)"><rect id="es4wqg482iw18" width="40.593610" height="5.601000" rx="0" ry="0" transform="matrix(0.89582000000000 -0.44441600000000 0.44441600000000 0.89582000000000 36.23314163500000 45.45711354000004)" fill="rgb(30,28,36)" stroke="none" stroke-width="1"/><path id="es4wqg482iw19" d="M119.500000,6.500000C114.970023,6.500000,110.886096,9.228792,109.152549,13.413946C107.419002,17.599099,108.377226,22.416418,111.580404,25.619596C114.783582,28.822774,119.600901,29.780998,123.786054,28.047451C127.971208,26.313904,130.700000,22.229977,130.700000,17.700000C130.712022,14.725906,129.535886,11.870152,127.432867,9.767133C125.329848,7.664114,122.474094,6.487978,119.500000,6.500000ZM119.500000,23.924000C116.063132,23.924000,113.277000,21.137868,113.277000,17.701000C113.277000,14.264132,116.063132,11.478000,119.500000,11.478000C122.936868,11.478000,125.723000,14.264132,125.723000,17.701000C125.713114,21.133765,122.932765,23.914114,119.500000,23.924000Z" transform="matrix(1 0 0 1 -39.34404563000003 9.71654563500002)" fill="rgb(30,28,36)" stroke="none" stroke-width="1"/></g></g></g></g><path id="es4wqg482iw20" d="M119.500000,40.300000C113.314411,40.300000,108.300000,45.314411,108.300000,51.500000C108.300000,57.685589,113.314411,62.700000,119.500000,62.700000C125.685589,62.700000,130.700000,57.685589,130.700000,51.500000C130.712022,48.525906,129.535886,45.670152,127.432867,43.567133C125.329848,41.464114,122.474094,40.287978,119.500000,40.300000ZM119.500000,57.724000C116.063132,57.724000,113.277000,54.937868,113.277000,51.501000C113.277000,48.064132,116.063132,45.278000,119.500000,45.278000C122.936868,45.278000,125.723000,48.064132,125.723000,51.501000C125.713114,54.933765,122.932765,57.714114,119.500000,57.724000Z" transform="matrix(1 0 0 1 -39.34404563000003 81.08354563500002)" fill="rgb(30,28,36)" stroke="none" stroke-width="1"/></svg>