<svg xmlns="http://www.w3.org/2000/svg" viewBox="0 0 34.81 28.283"><defs><style>.a{fill:#fff;}</style></defs><g transform="translate(0 0)"><path class="a" d="M34.81,51.348A14.879,14.879,0,0,1,30.7,52.475a7.1,7.1,0,0,0,3.139-3.944,14.262,14.262,0,0,1-4.525,1.727,7.136,7.136,0,0,0-12.345,4.88,7.348,7.348,0,0,0,.165,1.627A20.2,20.2,0,0,1,2.424,49.3a7.138,7.138,0,0,0,2.193,9.538,7.047,7.047,0,0,1-3.224-.879v.078A7.169,7.169,0,0,0,7.11,65.05a7.122,7.122,0,0,1-1.871.235,6.31,6.31,0,0,1-1.351-.122,7.2,7.2,0,0,0,6.668,4.971,14.339,14.339,0,0,1-8.848,3.044A13.367,13.367,0,0,1,0,73.081a20.091,20.091,0,0,0,10.948,3.2c13.132,0,20.312-10.878,20.312-20.307,0-.315-.011-.62-.026-.922A14.236,14.236,0,0,0,34.81,51.348Z" transform="translate(0 -48)"/></g></svg>