<svg xmlns="http://www.w3.org/2000/svg" viewBox="0 0 29.415 23.9"><defs><style>.a{fill:#332b3b;}</style></defs><g transform="translate(0 0)"><path class="a" d="M29.415,50.829a12.573,12.573,0,0,1-3.475.952,6,6,0,0,0,2.653-3.333,12.051,12.051,0,0,1-3.824,1.46,6.03,6.03,0,0,0-10.431,4.124,6.21,6.21,0,0,0,.14,1.375A17.069,17.069,0,0,1,2.048,49.1,6.032,6.032,0,0,0,3.9,57.159a5.955,5.955,0,0,1-2.725-.743v.066a6.058,6.058,0,0,0,4.831,5.925,6.019,6.019,0,0,1-1.581.2,5.332,5.332,0,0,1-1.142-.1A6.088,6.088,0,0,0,8.92,66.7a12.117,12.117,0,0,1-7.477,2.572A11.3,11.3,0,0,1,0,69.194,16.977,16.977,0,0,0,9.251,71.9c11.1,0,17.164-9.192,17.164-17.16,0-.267-.009-.524-.022-.78A12.03,12.03,0,0,0,29.415,50.829Z" transform="translate(0 -48)"/></g></svg>